Kreon-Bold.ufo
<glyph name="numbersign" format="1">
  <advance width="675"/>
  <unicode hex="0023"/>
  <outline>
    <contour>
      <point x="355" y="512" type="line" name="mh01"/>
      <point x="433" y="512" type="line" name="mh02"/>
      <point x="485" y="670" type="line"/>
      <point x="595" y="670" type="line"/>
      <point x="608" y="656" type="line" name="mh03"/>
      <point x="561" y="512" type="line"/>
      <point x="636" y="512" type="line"/>
      <point x="642" y="512"/>
      <point x="642" y="504" type="qcurve"/>
      <point x="642" y="407" type="line"/>
      <point x="526" y="407" type="line"/>
      <point x="487" y="288" type="line"/>
      <point x="594" y="288" type="line"/>
      <point x="600" y="288"/>
      <point x="600" y="279" type="qcurve"/>
      <point x="600" y="183" type="line"/>
      <point x="453" y="183" type="line"/>
      <point x="409" y="48" type="line"/>
      <point x="302" y="48" type="line" name="hr05"/>
      <point x="286" y="61" type="line"/>
      <point x="326" y="183" type="line" name="hr04"/>
      <point x="244" y="183" type="line"/>
      <point x="199" y="48" type="line"/>
      <point x="92" y="48" type="line" name="hr03"/>
      <point x="76" y="61" type="line"/>
      <point x="117" y="183" type="line" name="hr02"/>
      <point x="47" y="183" type="line"/>
      <point x="29" y="254" type="line"/>
      <point x="47" y="288" type="line" name="hr01"/>
      <point x="152" y="288" type="line"/>
      <point x="192" y="407" type="line" name="mh04"/>
      <point x="78" y="407" type="line"/>
      <point x="60" y="479" type="line"/>
      <point x="78" y="512" type="line"/>
      <point x="228" y="512" type="line"/>
      <point x="281" y="670" type="line" name="mh05"/>
      <point x="390" y="670" type="line" name="mh06"/>
      <point x="404" y="656" type="line"/>
    </contour>
    <contour>
      <point x="280" y="288" type="line"/>
      <point x="360" y="288" type="line"/>
      <point x="399" y="407" type="line"/>
      <point x="320" y="407" type="line"/>
    </contour>
  </outline>
</glyph>
<glyph name="dollar" format="1">
  <advance width="511"/>
  <unicode hex="0024"/>
  <outline>
    <contour>
      <point x="214" y="-154" type="line" name="hr00"/>
      <point x="214" y="-2" type="line"/>
      <point x="166" y="2"/>
      <point x="81" y="28" name="mv01"/>
      <point x="47" y="42" type="qcurve"/>
      <point x="33" y="232" type="line"/>
      <point x="120" y="232" type="line"/>
      <point x="151" y="115" type="line"/>
      <point x="163" y="111"/>
      <point x="214" y="101"/>
      <point x="243" y="101" type="qcurve"/>
      <point x="291" y="101"/>
      <point x="344" y="147"/>
      <point x="344" y="191" type="qcurve"/>
      <point x="344" y="211"/>
      <point x="323" y="242"/>
      <point x="289" y="267"/>
      <point x="247" y="286"/>
      <point x="226" y="295" type="qcurve"/>
      <point x="186" y="311"/>
      <point x="117" y="347"/>
      <point x="66" y="395"/>
      <point x="37" y="458"/>
      <point x="37" y="503" type="qcurve"/>
      <point x="37" y="543"/>
      <point x="65" y="606"/>
      <point x="113" y="652"/>
      <point x="177" y="682"/>
      <point x="214" y="688" type="qcurve"/>
      <point x="214" y="807" type="line"/>
      <point x="313" y="807" type="line"/>
      <point x="313" y="692" type="line"/>
      <point x="354" y="689"/>
      <point x="420" y="674"/>
      <point x="452" y="661" type="qcurve"/>
      <point x="467" y="474" type="line"/>
      <point x="383" y="474" type="line"/>
      <point x="338" y="577" type="line"/>
      <point x="325" y="582"/>
      <point x="294" y="588"/>
      <point x="270" y="588" type="qcurve"/>
      <point x="227" y="588"/>
      <point x="174" y="552"/>
      <point x="174" y="513" type="qcurve"/>
      <point x="174" y="492"/>
      <point x="195" y="463"/>
      <point x="234" y="439"/>
      <point x="290" y="414"/>
      <point x="324" y="397" type="qcurve"/>
      <point x="395" y="361"/>
      <point x="481" y="268"/>
      <point x="481" y="203" type="qcurve"/>
      <point x="481" y="158"/>
      <point x="455" y="89"/>
      <point x="409" y="39" name="mh01"/>
      <point x="348" y="9"/>
      <point x="313" y="2" type="qcurve"/>
      <point x="313" y="-154" type="line"/>
    </contour>
  </outline>
</glyph>
<glyph name="percent" format="1">
  <advance width="823"/>
  <unicode hex="0025"/>
  <outline>
    <contour>
      <point x="581" y="180" type="qcurve" name="hr00"/>
      <point x="581" y="142"/>
      <point x="605" y="90"/>
      <point x="631" y="90" type="qcurve"/>
      <point x="656" y="90"/>
      <point x="681" y="142"/>
      <point x="681" y="180" type="qcurve"/>
      <point x="681" y="217"/>
      <point x="656" y="268"/>
      <point x="631" y="268" type="qcurve"/>
      <point x="605" y="268"/>
      <point x="581" y="217"/>
    </contour>
    <contour>
      <point x="465" y="180" type="qcurve"/>
      <point x="465" y="219"/>
      <point x="490" y="285"/>
      <point x="534" y="334"/>
      <point x="595" y="362"/>
      <point x="631" y="362" type="qcurve" name="mv01"/>
      <point x="667" y="362"/>
      <point x="727" y="337"/>
      <point x="770" y="290"/>
      <point x="795" y="222"/>
      <point x="795" y="180" type="qcurve"/>
      <point x="795" y="141"/>
      <point x="770" y="74"/>
      <point x="727" y="24"/>
      <point x="667" y="-4"/>
      <point x="631" y="-4" type="qcurve"/>
      <point x="595" y="-4"/>
      <point x="534" y="24"/>
      <point x="490" y="74"/>
      <point x="465" y="141"/>
    </contour>
    <contour>
      <point x="254" y="0" type="line"/>
      <point x="130" y="0" type="line"/>
      <point x="120" y="13" type="line"/>
      <point x="564" y="691" type="line"/>
      <point x="688" y="691" type="line"/>
      <point x="698" y="677" type="line"/>
    </contour>
    <contour>
      <point x="144" y="517" type="qcurve" name="mh01"/>
      <point x="144" y="479"/>
      <point x="168" y="427"/>
      <point x="194" y="427" type="qcurve"/>
      <point x="219" y="427"/>
      <point x="244" y="479" name="mh02"/>
      <point x="244" y="517" type="qcurve" name="mh03"/>
      <point x="244" y="554"/>
      <point x="219" y="605"/>
      <point x="194" y="605" type="qcurve"/>
      <point x="168" y="605" name="mh04"/>
      <point x="144" y="554"/>
    </contour>
    <contour>
      <point x="28" y="517" type="qcurve"/>
      <point x="28" y="556"/>
      <point x="53" y="622"/>
      <point x="97" y="671" name="mh05"/>
      <point x="158" y="699"/>
      <point x="194" y="699" type="qcurve" name="mh06"/>
      <point x="230" y="699"/>
      <point x="290" y="674"/>
      <point x="333" y="627"/>
      <point x="358" y="559"/>
      <point x="358" y="517" type="qcurve"/>
      <point x="358" y="478"/>
      <point x="333" y="411" name="mh07"/>
      <point x="290" y="361"/>
      <point x="230" y="333"/>
      <point x="194" y="333" type="qcurve" name="mh08"/>
      <point x="158" y="333"/>
      <point x="97" y="361"/>
      <point x="53" y="411"/>
      <point x="28" y="478"/>
    </contour>
  </outline>
</glyph>
<glyph name="ampersand" format="1">
  <advance width="710"/>
  <unicode hex="0026"/>
  <outline>
    <contour>
      <point x="609" y="383" type="line" name="hr00"/>
      <point x="607" y="368"/>
      <point x="597" y="321"/>
      <point x="580" y="263"/>
      <point x="554" y="198"/>
      <point x="535" y="165" type="qcurve"/>
      <point x="531" y="157" type="line"/>
      <point x="555" y="134"/>
      <point x="591" y="103"/>
      <point x="598" y="99" type="qcurve"/>
      <point x="642" y="148" type="line"/>
      <point x="718" y="52" type="line"/>
      <point x="704" y="33"/>
      <point x="648" y="-2"/>
      <point x="593" y="-2" type="qcurve"/>
      <point x="552" y="-2"/>
      <point x="476" y="23"/>
      <point x="446" y="53" type="qcurve"/>
      <point x="416" y="29"/>
      <point x="332" y="-4"/>
      <point x="274" y="-4" type="qcurve"/>
      <point x="227" y="-4"/>
      <point x="139" y="20"/>
      <point x="70" y="72"/>
      <point x="28" y="153"/>
      <point x="28" y="209" type="qcurve"/>
      <point x="28" y="243"/>
      <point x="48" y="300"/>
      <point x="81" y="347"/>
      <point x="122" y="385"/>
      <point x="144" y="400" type="qcurve" name="mh01"/>
      <point x="120" y="435"/>
      <point x="88" y="510"/>
      <point x="88" y="555" type="qcurve"/>
      <point x="88" y="585"/>
      <point x="104" y="648"/>
      <point x="146" y="701"/>
      <point x="219" y="735"/>
      <point x="276" y="735" type="qcurve" name="mh02"/>
      <point x="354" y="735"/>
      <point x="439" y="653"/>
      <point x="439" y="587" type="qcurve"/>
      <point x="439" y="528"/>
      <point x="375" y="424"/>
      <point x="322" y="378" type="qcurve" name="hr02"/>
      <point x="334" y="364"/>
      <point x="357" y="336"/>
      <point x="386" y="304"/>
      <point x="422" y="265"/>
      <point x="447" y="240" type="qcurve"/>
      <point x="463" y="274"/>
      <point x="471" y="314" type="qcurve" name="mh03"/>
      <point x="424" y="314" type="line" name="mh04"/>
      <point x="403" y="399" type="line"/>
      <point x="594" y="399" type="line"/>
    </contour>
    <contour>
      <point x="208" y="320" type="line"/>
      <point x="185" y="297"/>
      <point x="159" y="245"/>
      <point x="159" y="210" type="qcurve"/>
      <point x="159" y="187"/>
      <point x="176" y="146"/>
      <point x="207" y="115"/>
      <point x="251" y="96"/>
      <point x="279" y="96" type="qcurve"/>
      <point x="325" y="96"/>
      <point x="367" y="130" type="qcurve" name="mh05"/>
      <point x="335" y="163"/>
      <point x="275" y="234"/>
      <point x="252" y="265" type="qcurve"/>
    </contour>
    <contour>
      <point x="208" y="575" type="qcurve" name="hr01"/>
      <point x="208" y="556"/>
      <point x="228" y="507"/>
      <point x="252" y="471" type="qcurve"/>
      <point x="280" y="497"/>
      <point x="316" y="551"/>
      <point x="316" y="580" type="qcurve"/>
      <point x="316" y="604"/>
      <point x="288" y="635"/>
      <point x="263" y="635" type="qcurve"/>
      <point x="237" y="635"/>
      <point x="208" y="601"/>
    </contour>
  </outline>
</glyph>
<glyph name="quotesingle" format="1">
  <advance width="203"/>
  <unicode hex="0027"/>
  <outline>
    <contour>
      <point x="66" y="412" type="line" name="hr00"/>
      <point x="141" y="412" type="line"/>
      <point x="170" y="639" type="line"/>
      <point x="153" y="669" type="line"/>
      <point x="30" y="659" type="line"/>
    </contour>
  </outline>
</glyph>
<glyph name="parenleft" format="1">
  <advance width="310"/>
  <unicode hex="0028"/>
  <outline>
    <contour>
      <point x="282" y="-162" type="line" name="hr00"/>
      <point x="250" y="-84"/>
      <point x="183" y="81"/>
      <point x="183" y="291" type="curve" smooth="yes"/>
      <point x="183" y="501"/>
      <point x="239" y="661"/>
      <point x="282" y="742" type="curve"/>
      <point x="156" y="742" type="line"/>
      <point x="115" y="671"/>
      <point x="47" y="510"/>
      <point x="47" y="290" type="curve" smooth="yes"/>
      <point x="47" y="69"/>
      <point x="126" y="-100"/>
      <point x="156" y="-162" type="curve"/>
    </contour>
  </outline>
</glyph>
<glyph name="hyphen" format="1">
  <advance width="423"/>
  <unicode hex="002D"/>
  <outline>
    <contour>
      <point x="369" y="250" type="line" name="hr00"/>
      <point x="369" y="337" type="line" smooth="yes"/>
      <point x="369" y="342"/>
      <point x="367" y="344"/>
      <point x="363" y="344" type="curve" smooth="yes"/>
      <point x="71" y="344" type="line"/>
      <point x="53" y="332" type="line"/>
      <point x="53" y="250" type="line"/>
    </contour>
  </outline>
</glyph>
<glyph name="period" format="1">
  <advance width="211"/>
  <unicode hex="002E"/>
  <outline>
    <contour>
      <point x="38" y="63" type="qcurve" name="hr00"/>
      <point x="38" y="91"/>
      <point x="78" y="129"/>
      <point x="105" y="129" type="qcurve"/>
      <point x="133" y="129"/>
      <point x="172" y="91"/>
      <point x="172" y="63" type="qcurve"/>
      <point x="172" y="35"/>
      <point x="133" y="-4"/>
      <point x="105" y="-4" type="qcurve"/>
      <point x="78" y="-4"/>
      <point x="38" y="35"/>
    </contour>
  </outline>
</glyph>
<glyph name="slash" format="1">
  <advance width="486"/>
  <unicode hex="002F"/>
  <outline>
    <contour>
      <point x="148" y="0" type="line" name="hr00"/>
      <point x="23" y="0" type="line"/>
      <point x="20" y="13" type="line"/>
      <point x="338" y="691" type="line" name="mh01"/>
      <point x="466" y="691" type="line"/>
      <point x="465" y="677" type="line"/>
    </contour>
  </outline>
</glyph>
<glyph name="zero" format="1">
  <advance width="590"/>
  <unicode hex="0030"/>
  <outline>
    <contour>
      <point x="37" y="343" type="qcurve" name="hr00"/>
      <point x="37" y="408"/>
      <point x="64" y="533"/>
      <point x="125" y="630"/>
      <point x="223" y="690"/>
      <point x="294" y="690" type="qcurve" name="mh01"/>
      <point x="365" y="690"/>
      <point x="464" y="630"/>
      <point x="525" y="533"/>
      <point x="553" y="408"/>
      <point x="553" y="343" type="qcurve" name="mh02"/>
      <point x="553" y="278"/>
      <point x="525" y="154"/>
      <point x="464" y="56"/>
      <point x="365" y="-4"/>
      <point x="294" y="-4" type="qcurve"/>
      <point x="223" y="-4"/>
      <point x="125" y="56"/>
      <point x="64" y="154"/>
      <point x="37" y="278"/>
    </contour>
    <contour>
      <point x="175" y="343" type="qcurve" name="mh03"/>
      <point x="175" y="306"/>
      <point x="183" y="221"/>
      <point x="209" y="149"/>
      <point x="256" y="101"/>
      <point x="294" y="101" type="qcurve"/>
      <point x="333" y="101"/>
      <point x="380" y="149" name="mv01"/>
      <point x="406" y="221"/>
      <point x="415" y="306"/>
      <point x="415" y="343" type="qcurve" name="mh04"/>
      <point x="415" y="380"/>
      <point x="406" y="465"/>
      <point x="380" y="537" name="mh05"/>
      <point x="333" y="585"/>
      <point x="294" y="585" type="qcurve"/>
      <point x="256" y="585"/>
      <point x="209" y="537"/>
      <point x="183" y="465"/>
      <point x="175" y="380"/>
    </contour>
  </outline>
</glyph>
<glyph name="one" format="1">
  <advance width="365"/>
  <unicode hex="0031"/>
  <outline>
    <contour>
      <point x="34" y="83" type="line" name="hr00"/>
      <point x="133" y="98" type="line"/>
      <point x="133" y="555" type="line"/>
      <point x="40" y="538" type="line"/>
      <point x="20" y="625" type="line"/>
      <point x="249" y="694" type="line"/>
      <point x="264" y="685" type="line"/>
      <point x="264" y="93" type="line"/>
      <point x="349" y="80" type="line"/>
      <point x="349" y="74"/>
      <point x="348" y="62" type="qcurve"/>
      <point x="347" y="38" type="line"/>
      <point x="347" y="26"/>
      <point x="346" y="5"/>
      <point x="346" y="1" type="qcurve"/>
      <point x="37" y="1" type="line"/>
    </contour>
  </outline>
</glyph>
<glyph name="two" format="1">
  <advance width="538"/>
  <unicode hex="0032"/>
  <outline>
    <contour>
      <point x="53" y="0" type="line" name="hr00"/>
      <point x="38" y="81" type="line"/>
      <point x="52" y="98"/>
      <point x="107" y="155"/>
      <point x="172" y="226"/>
      <point x="241" y="307"/>
      <point x="296" y="388"/>
      <point x="332" y="464"/>
      <point x="332" y="496" type="qcurve"/>
      <point x="332" y="544"/>
      <point x="283" y="584"/>
      <point x="246" y="584" type="qcurve"/>
      <point x="226" y="584"/>
      <point x="197" y="579"/>
      <point x="186" y="574" type="qcurve"/>
      <point x="142" y="470" type="line"/>
      <point x="14" y="535" type="line"/>
      <point x="32" y="567"/>
      <point x="83" y="623"/>
      <point x="147" y="665"/>
      <point x="223" y="689"/>
      <point x="266" y="689" type="qcurve" name="mh01"/>
      <point x="300" y="689"/>
      <point x="373" y="668"/>
      <point x="432" y="623"/>
      <point x="470" y="551"/>
      <point x="470" y="500" type="qcurve"/>
      <point x="470" y="461"/>
      <point x="439" y="381"/>
      <point x="391" y="304"/>
      <point x="331" y="232"/>
      <point x="271" y="170"/>
      <point x="220" y="121"/>
      <point x="204" y="105" type="qcurve"/>
      <point x="391" y="105" type="line"/>
      <point x="432" y="215" type="line"/>
      <point x="510" y="215" type="line"/>
      <point x="488" y="0" type="line"/>
    </contour>
  </outline>
</glyph>
<glyph name="three" format="1">
  <advance width="522"/>
  <unicode hex="0033"/>
  <outline>
    <contour>
      <point x="96" y="176" type="line" name="hr00"/>
      <point x="128" y="146"/>
      <point x="202" y="100"/>
      <point x="250" y="100" type="qcurve"/>
      <point x="283" y="100"/>
      <point x="321" y="124"/>
      <point x="341" y="155"/>
      <point x="346" y="185"/>
      <point x="346" y="191" type="qcurve"/>
      <point x="346" y="204"/>
      <point x="336" y="239"/>
      <point x="306" y="269"/>
      <point x="249" y="290"/>
      <point x="202" y="290" type="qcurve"/>
      <point x="135" y="290" type="line"/>
      <point x="135" y="395" type="line"/>
      <point x="182" y="395" type="line"/>
      <point x="258" y="395"/>
      <point x="331" y="449"/>
      <point x="331" y="500" type="qcurve"/>
      <point x="331" y="524"/>
      <point x="314" y="556"/>
      <point x="288" y="576"/>
      <point x="259" y="585"/>
      <point x="247" y="585" type="qcurve"/>
      <point x="227" y="585"/>
      <point x="194" y="582"/>
      <point x="184" y="578" type="qcurve"/>
      <point x="138" y="470" type="line"/>
      <point x="17" y="535" type="line"/>
      <point x="35" y="568"/>
      <point x="82" y="625"/>
      <point x="142" y="666"/>
      <point x="217" y="690"/>
      <point x="264" y="690" type="qcurve"/>
      <point x="300" y="690"/>
      <point x="373" y="668"/>
      <point x="432" y="622"/>
      <point x="470" y="553"/>
      <point x="470" y="505" type="qcurve"/>
      <point x="470" y="478"/>
      <point x="454" y="426"/>
      <point x="425" y="384"/>
      <point x="383" y="354"/>
      <point x="358" y="349" type="qcurve"/>
      <point x="377" y="345"/>
      <point x="398" y="336" type="qcurve"/>
      <point x="421" y="327"/>
      <point x="459" y="292"/>
      <point x="484" y="238"/>
      <point x="484" y="201" type="qcurve"/>
      <point x="484" y="149"/>
      <point x="442" y="72"/>
      <point x="375" y="21"/>
      <point x="293" y="-4"/>
      <point x="253" y="-4" type="qcurve"/>
      <point x="207" y="-4"/>
      <point x="134" y="11"/>
      <point x="77" y="33"/>
      <point x="37" y="61"/>
      <point x="25" y="73" type="qcurve" name="hr01"/>
    </contour>
  </outline>
</glyph>
<glyph name="four" format="1">
  <advance width="539"/>
  <unicode hex="0034"/>
  <outline>
    <contour>
      <point x="152" y="83" type="line" name="hr00"/>
      <point x="295" y="98" type="line"/>
      <point x="295" y="187" type="line"/>
      <point x="33" y="187" type="line"/>
      <point x="-5" y="275" type="line"/>
      <point x="278" y="691" type="line"/>
      <point x="425" y="691" type="line"/>
      <point x="425" y="292" type="line"/>
      <point x="503" y="292" type="line"/>
      <point x="503" y="187" type="line"/>
      <point x="425" y="187" type="line"/>
      <point x="425" y="94" type="line"/>
      <point x="500" y="81" type="line"/>
      <point x="500" y="62" type="line"/>
      <point x="500" y="50"/>
      <point x="501" y="24"/>
      <point x="502" y="3"/>
      <point x="503" y="0" type="qcurve"/>
      <point x="152" y="0" type="line"/>
    </contour>
    <contour>
      <point x="295" y="292" type="line"/>
      <point x="295" y="549" type="line"/>
      <point x="117" y="292" type="line"/>
    </contour>
  </outline>
</glyph>
<glyph name="five" format="1">
  <advance width="517"/>
  <unicode hex="0035"/>
  <outline>
    <contour>
      <point x="104" y="691" type="line" name="hr00"/>
      <point x="467" y="691" type="line" name="mv01"/>
      <point x="467" y="585" type="line" name="mv02"/>
      <point x="205" y="585" type="line" name="mh01"/>
      <point x="205" y="470" type="line" name="mh02"/>
      <point x="214" y="471"/>
      <point x="232" y="472"/>
      <point x="241" y="472" type="qcurve"/>
      <point x="295" y="472"/>
      <point x="384" y="440"/>
      <point x="448" y="380" name="mh03"/>
      <point x="483" y="294"/>
      <point x="483" y="240" type="qcurve" name="mh04"/>
      <point x="483" y="182" name="mh05"/>
      <point x="443" y="91"/>
      <point x="373" y="29"/>
      <point x="277" y="-4"/>
      <point x="220" y="-4" type="qcurve" name="mh06"/>
      <point x="179" y="-4"/>
      <point x="113" y="11"/>
      <point x="61" y="34"/>
      <point x="23" y="61"/>
      <point x="11" y="73" type="qcurve" name="mh07"/>
      <point x="71" y="171" type="line"/>
      <point x="81" y="159"/>
      <point x="109" y="134"/>
      <point x="145" y="113"/>
      <point x="186" y="100"/>
      <point x="209" y="100" type="qcurve" name="mv03"/>
      <point x="237" y="100"/>
      <point x="287" y="120"/>
      <point x="324" y="157"/>
      <point x="345" y="207"/>
      <point x="345" y="237" type="qcurve"/>
      <point x="345" y="271"/>
      <point x="318" y="321"/>
      <point x="273" y="355"/>
      <point x="217" y="372"/>
      <point x="187" y="372" type="qcurve" name="mh08"/>
      <point x="167" y="372"/>
      <point x="137" y="369"/>
      <point x="111" y="365"/>
      <point x="87" y="359"/>
      <point x="74" y="355" type="qcurve" name="mh09"/>
      <point x="74" y="658" type="line"/>
    </contour>
  </outline>
</glyph>
<glyph name="six" format="1">
  <advance width="554"/>
  <unicode hex="0036"/>
  <outline>
    <contour>
      <point x="317" y="692" type="qcurve" name="ah01"/>
      <point x="363" y="692"/>
      <point x="430" y="668"/>
      <point x="476" y="635"/>
      <point x="505" y="600"/>
      <point x="513" y="588" type="qcurve" name="mh01"/>
      <point x="398" y="514" type="line" name="mh02"/>
      <point x="349" y="582" type="line" name="mh03"/>
      <point x="342" y="584"/>
      <point x="323" y="587"/>
      <point x="309" y="587" type="qcurve" name="mv01"/>
      <point x="287" y="587"/>
      <point x="242" y="562"/>
      <point x="203" y="510"/>
      <point x="175" y="432"/>
      <point x="172" y="378" type="qcurve"/>
      <point x="195" y="404"/>
      <point x="273" y="434"/>
      <point x="316" y="434" type="qcurve"/>
      <point x="352" y="434"/>
      <point x="425" y="409"/>
      <point x="484" y="358"/>
      <point x="522" y="277"/>
      <point x="522" y="222" type="qcurve"/>
      <point x="522" y="171"/>
      <point x="490" y="88"/>
      <point x="431" y="28"/>
      <point x="347" y="-4"/>
      <point x="294" y="-4" type="qcurve"/>
      <point x="221" y="-4"/>
      <point x="122" y="57"/>
      <point x="62" y="156"/>
      <point x="36" y="283"/>
      <point x="36" y="350" type="qcurve"/>
      <point x="36" y="421" name="mh04"/>
      <point x="76" y="545"/>
      <point x="150" y="637"/>
      <point x="254" y="691" name="mh05"/>
    </contour>
    <contour>
      <point x="288" y="327" type="qcurve"/>
      <point x="248" y="327"/>
      <point x="189" y="269"/>
      <point x="189" y="207" type="qcurve" name="mh06"/>
      <point x="202" y="161"/>
      <point x="252" y="101"/>
      <point x="292" y="101" type="qcurve"/>
      <point x="342" y="101"/>
      <point x="385" y="167"/>
      <point x="385" y="216" type="qcurve" name="mh07"/>
      <point x="385" y="243"/>
      <point x="367" y="284"/>
      <point x="339" y="313"/>
      <point x="304" y="327"/>
    </contour>
  </outline>
</glyph>
<glyph name="eight" format="1">
  <advance width="545"/>
  <unicode hex="0038"/>
  <outline>
    <contour>
      <point x="69" y="526" type="qcurve" name="mh01"/>
      <point x="69" y="571"/>
      <point x="107" y="635" name="mh02"/>
      <point x="167" y="677"/>
      <point x="241" y="696"/>
      <point x="276" y="696" type="qcurve" name="mh03"/>
      <point x="312" y="696"/>
      <point x="385" y="677"/>
      <point x="443" y="637"/>
      <point x="480" y="573"/>
      <point x="480" y="528" type="qcurve"/>
      <point x="480" y="478"/>
      <point x="424" y="403"/>
      <point x="384" y="374" type="qcurve"/>
      <point x="409" y="360" name="mv01"/>
      <point x="456" y="328"/>
      <point x="491" y="285" name="mv02"/>
      <point x="512" y="230"/>
      <point x="512" y="194" type="qcurve" name="mh04"/>
      <point x="512" y="145"/>
      <point x="472" y="71" name="mh05"/>
      <point x="404" y="21"/>
      <point x="317" y="-5"/>
      <point x="270" y="-5" type="qcurve"/>
      <point x="223" y="-5"/>
      <point x="137" y="19"/>
      <point x="72" y="66"/>
      <point x="33" y="137"/>
      <point x="33" y="184" type="qcurve" name="mh06"/>
      <point x="33" y="247"/>
      <point x="94" y="347"/>
      <point x="149" y="376" type="qcurve"/>
      <point x="114" y="401"/>
      <point x="69" y="471"/>
    </contour>
    <contour>
      <point x="171" y="197" type="qcurve"/>
      <point x="171" y="164"/>
      <point x="197" y="125"/>
      <point x="232" y="106"/>
      <point x="265" y="100"/>
      <point x="273" y="100" type="qcurve"/>
      <point x="288" y="100"/>
      <point x="323" y="110"/>
      <point x="353" y="133"/>
      <point x="374" y="170"/>
      <point x="374" y="198" type="qcurve"/>
      <point x="374" y="221"/>
      <point x="354" y="256"/>
      <point x="320" y="285"/>
      <point x="275" y="308"/>
      <point x="251" y="320" type="qcurve"/>
      <point x="215" y="296"/>
      <point x="171" y="232"/>
    </contour>
    <contour>
      <point x="355" y="532" type="qcurve"/>
      <point x="355" y="562"/>
      <point x="316" y="610"/>
      <point x="275" y="610" type="qcurve"/>
      <point x="236" y="610"/>
      <point x="195" y="565"/>
      <point x="195" y="533" type="qcurve"/>
      <point x="195" y="494"/>
      <point x="245" y="444"/>
      <point x="282" y="424" type="qcurve"/>
      <point x="295" y="434"/>
      <point x="321" y="457"/>
      <point x="342" y="484"/>
      <point x="355" y="515"/>
    </contour>
  </outline>
</glyph>
<glyph name="nine" format="1">
  <advance width="543"/>
  <unicode hex="0039"/>
  <outline>
    <contour>
      <point x="234" y="-4" type="qcurve" name="hr00"/>
      <point x="197" y="-4"/>
      <point x="133" y="11"/>
      <point x="80" y="34"/>
      <point x="39" y="61"/>
      <point x="27" y="73" type="qcurve"/>
      <point x="98" y="167" type="line"/>
      <point x="128" y="139"/>
      <point x="198" y="103"/>
      <point x="243" y="101" type="qcurve"/>
      <point x="276" y="102"/>
      <point x="321" y="130"/>
      <point x="350" y="178"/>
      <point x="365" y="247"/>
      <point x="367" y="289" type="qcurve"/>
      <point x="341" y="266"/>
      <point x="277" y="249"/>
      <point x="253" y="249" type="qcurve"/>
      <point x="206" y="249"/>
      <point x="128" y="275"/>
      <point x="71" y="328"/>
      <point x="39" y="406"/>
      <point x="39" y="458" type="qcurve"/>
      <point x="39" y="505"/>
      <point x="67" y="590"/>
      <point x="124" y="654"/>
      <point x="212" y="691"/>
      <point x="271" y="691" type="qcurve" name="mh01"/>
      <point x="334" y="691"/>
      <point x="423" y="634"/>
      <point x="480" y="538"/>
      <point x="506" y="410"/>
      <point x="506" y="338" type="qcurve"/>
      <point x="506" y="267"/>
      <point x="470" y="143"/>
      <point x="401" y="50"/>
      <point x="300" y="-4"/>
    </contour>
    <contour>
      <point x="262" y="354" type="qcurve"/>
      <point x="291" y="354"/>
      <point x="352" y="392"/>
      <point x="366" y="427" type="qcurve"/>
      <point x="364" y="460"/>
      <point x="352" y="518"/>
      <point x="328" y="561"/>
      <point x="290" y="586"/>
      <point x="262" y="586" type="qcurve"/>
      <point x="238" y="586"/>
      <point x="204" y="563"/>
      <point x="184" y="529"/>
      <point x="175" y="486"/>
      <point x="175" y="467" type="qcurve"/>
      <point x="175" y="419"/>
      <point x="217" y="354"/>
    </contour>
  </outline>
</glyph>
<glyph name="colon" format="1">
  <advance width="241"/>
  <unicode hex="003A"/>
  <outline>
    <contour>
      <point x="54" y="193" type="qcurve" name="hr00"/>
      <point x="54" y="221"/>
      <point x="94" y="259" name="mh01"/>
      <point x="122" y="259" type="qcurve" name="mv01"/>
      <point x="149" y="259" name="mh02"/>
      <point x="188" y="221"/>
      <point x="188" y="193" type="qcurve" name="mh03"/>
      <point x="188" y="165"/>
      <point x="149" y="126"/>
      <point x="122" y="126" type="qcurve" name="mv02"/>
      <point x="94" y="126" name="mh04"/>
      <point x="54" y="165" name="mv03"/>
    </contour>
    <contour>
      <point x="54" y="455" type="qcurve" name="mh05"/>
      <point x="54" y="483"/>
      <point x="94" y="522"/>
      <point x="122" y="522" type="qcurve" name="ah01"/>
      <point x="149" y="522"/>
      <point x="188" y="483"/>
      <point x="188" y="455" type="qcurve" name="mh06"/>
      <point x="188" y="428"/>
      <point x="149" y="388"/>
      <point x="122" y="388" type="qcurve" name="mv04"/>
      <point x="94" y="388" name="mh07"/>
      <point x="54" y="428"/>
    </contour>
  </outline>
</glyph>
<glyph name="semicolon" format="1">
  <advance width="248"/>
  <unicode hex="003B"/>
  <outline>
    <contour>
      <point x="24" y="-123" type="line" name="hr00"/>
      <point x="75" y="-11" type="line"/>
      <point x="49" y="114" type="line"/>
      <point x="186" y="133" type="line"/>
      <point x="188" y="125"/>
      <point x="194" y="78"/>
      <point x="194" y="47" type="qcurve"/>
      <point x="194" y="14"/>
      <point x="178" y="-50"/>
      <point x="154" y="-107"/>
      <point x="125" y="-155"/>
      <point x="111" y="-173" type="qcurve"/>
      <point x="27" y="-134" type="line"/>
    </contour>
    <contour>
      <point x="58" y="295" type="qcurve"/>
      <point x="58" y="323"/>
      <point x="98" y="362"/>
      <point x="126" y="362" type="qcurve"/>
      <point x="153" y="362"/>
      <point x="192" y="323"/>
      <point x="192" y="295" type="qcurve"/>
      <point x="192" y="268"/>
      <point x="153" y="228"/>
      <point x="126" y="228" type="qcurve"/>
      <point x="98" y="228"/>
      <point x="58" y="268"/>
    </contour>
  </outline>
</glyph>
<glyph name="question" format="1">
  <advance width="429"/>
  <unicode hex="003F"/>
  <outline>
    <contour>
      <point x="128" y="235" type="line" name="hr00"/>
      <point x="126" y="240"/>
      <point x="118" y="281"/>
      <point x="118" y="302" type="qcurve"/>
      <point x="118" y="332"/>
      <point x="140" y="377"/>
      <point x="172" y="414"/>
      <point x="210" y="445"/>
      <point x="242" y="476"/>
      <point x="264" y="511"/>
      <point x="264" y="534" type="qcurve"/>
      <point x="264" y="568"/>
      <point x="224" y="599"/>
      <point x="198" y="599" type="qcurve"/>
      <point x="182" y="599"/>
      <point x="146" y="594"/>
      <point x="138" y="591" type="qcurve"/>
      <point x="113" y="495" type="line"/>
      <point x="32" y="495" type="line"/>
      <point x="48" y="670" type="line" name="mh01"/>
      <point x="80" y="681"/>
      <point x="163" y="702"/>
      <point x="215" y="702" type="qcurve" name="mh02"/>
      <point x="303" y="702" name="mh03"/>
      <point x="401" y="619"/>
      <point x="401" y="551" type="qcurve"/>
      <point x="401" y="505"/>
      <point x="375" y="440"/>
      <point x="336" y="391"/>
      <point x="291" y="354"/>
      <point x="252" y="317"/>
      <point x="226" y="276"/>
      <point x="226" y="247" type="qcurve"/>
      <point x="226" y="245"/>
      <point x="227" y="239"/>
      <point x="227" y="236" type="qcurve"/>
    </contour>
    <contour>
      <point x="111" y="63" type="qcurve"/>
      <point x="111" y="91"/>
      <point x="150" y="129"/>
      <point x="178" y="129" type="qcurve" name="hr01"/>
      <point x="206" y="129"/>
      <point x="244" y="91"/>
      <point x="244" y="63" type="qcurve"/>
      <point x="244" y="35"/>
      <point x="206" y="-4"/>
      <point x="178" y="-4" type="qcurve"/>
      <point x="150" y="-4"/>
      <point x="111" y="35"/>
    </contour>
  </outline>
</glyph>
<glyph name="at" format="1">
  <advance width="879"/>
  <unicode hex="0040"/>
  <outline>
    <contour>
      <point x="460" y="526" type="qcurve" name="hr00"/>
      <point x="495" y="526"/>
      <point x="553" y="511"/>
      <point x="575" y="500" type="qcurve"/>
      <point x="602" y="509" type="line"/>
      <point x="635" y="498" type="line"/>
      <point x="635" y="244" type="line"/>
      <point x="635" y="216"/>
      <point x="653" y="205"/>
      <point x="666" y="205" type="qcurve"/>
      <point x="673" y="205"/>
      <point x="695" y="224"/>
      <point x="715" y="264"/>
      <point x="729" y="326"/>
      <point x="729" y="369" type="qcurve"/>
      <point x="729" y="423"/>
      <point x="691" y="512"/>
      <point x="619" y="576"/>
      <point x="515" y="612"/>
      <point x="449" y="612" type="qcurve"/>
      <point x="391" y="612"/>
      <point x="284" y="573"/>
      <point x="202" y="498"/>
      <point x="153" y="390"/>
      <point x="153" y="320" type="qcurve"/>
      <point x="153" y="249"/>
      <point x="201" y="138"/>
      <point x="283" y="62"/>
      <point x="395" y="23"/>
      <point x="460" y="23" type="qcurve"/>
      <point x="491" y="23"/>
      <point x="562" y="33"/>
      <point x="586" y="44" type="qcurve"/>
      <point x="609" y="40" type="line"/>
      <point x="573" y="-76" type="line"/>
      <point x="547" y="-84"/>
      <point x="472" y="-92"/>
      <point x="441" y="-92" type="qcurve"/>
      <point x="360" y="-92"/>
      <point x="211" y="-38"/>
      <point x="99" y="67"/>
      <point x="32" y="221"/>
      <point x="32" y="322" type="qcurve"/>
      <point x="32" y="422"/>
      <point x="106" y="574"/>
      <point x="227" y="677"/>
      <point x="381" y="729"/>
      <point x="461" y="729" type="qcurve"/>
      <point x="541" y="729"/>
      <point x="683" y="677"/>
      <point x="789" y="582"/>
      <point x="850" y="450"/>
      <point x="850" y="370" type="qcurve"/>
      <point x="850" y="312"/>
      <point x="818" y="213"/>
      <point x="763" y="141"/>
      <point x="688" y="100"/>
      <point x="645" y="100" type="qcurve"/>
      <point x="610" y="100"/>
      <point x="563" y="117"/>
      <point x="548" y="132" type="qcurve"/>
      <point x="533" y="121"/>
      <point x="477" y="101"/>
      <point x="436" y="101" type="qcurve"/>
      <point x="405" y="101"/>
      <point x="335" y="122"/>
      <point x="275" y="171"/>
      <point x="235" y="250"/>
      <point x="235" y="308" type="qcurve"/>
      <point x="235" y="374"/>
      <point x="284" y="459"/>
      <point x="354" y="508"/>
      <point x="431" y="526"/>
    </contour>
    <contour>
      <point x="459" y="186" type="qcurve"/>
      <point x="472" y="186"/>
      <point x="501" y="195"/>
      <point x="515" y="205" type="qcurve"/>
      <point x="514" y="212"/>
      <point x="514" y="218" type="qcurve"/>
      <point x="514" y="432" type="line"/>
      <point x="492" y="442"/>
      <point x="464" y="442" type="qcurve"/>
      <point x="414" y="442"/>
      <point x="359" y="377"/>
      <point x="359" y="311" type="qcurve"/>
      <point x="359" y="252"/>
      <point x="412" y="186"/>
    </contour>
  </outline>
</glyph>
<glyph name="B" format="1">
  <advance width="596"/>
  <unicode hex="0042"/>
  <outline>
    <contour>
      <point x="55" y="0" type="line" name="hr00"/>
      <point x="41" y="85" type="line"/>
      <point x="105" y="100" type="line"/>
      <point x="105" y="593" type="line"/>
      <point x="35" y="600" type="line"/>
      <point x="35" y="690" type="line" name="ah01"/>
      <point x="312" y="690" type="line"/>
      <point x="365" y="690"/>
      <point x="448" y="662"/>
      <point x="506" y="613"/>
      <point x="536" y="547"/>
      <point x="536" y="509" type="qcurve"/>
      <point x="536" y="474"/>
      <point x="513" y="419"/>
      <point x="479" y="380"/>
      <point x="440" y="357"/>
      <point x="424" y="353" type="qcurve"/>
      <point x="488" y="336"/>
      <point x="564" y="258"/>
      <point x="564" y="187" type="qcurve" name="ah02"/>
      <point x="564" y="140"/>
      <point x="532" y="69"/>
      <point x="473" y="23"/>
      <point x="391" y="0"/>
      <point x="342" y="0" type="qcurve"/>
    </contour>
    <contour>
      <point x="236" y="295" type="line" name="hr01"/>
      <point x="236" y="105" type="line"/>
      <point x="310" y="105" type="line"/>
      <point x="334" y="105"/>
      <point x="377" y="114"/>
      <point x="408" y="136"/>
      <point x="427" y="172"/>
      <point x="427" y="199" type="qcurve"/>
      <point x="427" y="249"/>
      <point x="358" y="295"/>
      <point x="294" y="295" type="qcurve"/>
    </contour>
    <contour>
      <point x="399" y="494" type="qcurve"/>
      <point x="399" y="519"/>
      <point x="380" y="553"/>
      <point x="347" y="575"/>
      <point x="304" y="585"/>
      <point x="281" y="585" type="qcurve"/>
      <point x="236" y="585" type="line"/>
      <point x="236" y="400" type="line"/>
      <point x="295" y="400" type="line"/>
      <point x="347" y="400"/>
      <point x="399" y="452"/>
    </contour>
  </outline>
</glyph>
<glyph name="C" format="1">
  <advance width="587"/>
  <unicode hex="0043"/>
  <outline>
    <contour>
      <point x="162" y="348" type="qcurve" name="hr00"/>
      <point x="163" y="294"/>
      <point x="193" y="203"/>
      <point x="247" y="138"/>
      <point x="323" y="101"/>
      <point x="370" y="101" type="qcurve"/>
      <point x="411" y="101"/>
      <point x="493" y="131"/>
      <point x="522" y="160" type="qcurve"/>
      <point x="564" y="71" type="line"/>
      <point x="550" y="55"/>
      <point x="507" y="27"/>
      <point x="455" y="7"/>
      <point x="395" y="-4"/>
      <point x="365" y="-4" type="qcurve"/>
      <point x="297" y="-4"/>
      <point x="175" y="38"/>
      <point x="83" y="123"/>
      <point x="28" y="250"/>
      <point x="28" y="334" type="qcurve" name="av01"/>
      <point x="28" y="422"/>
      <point x="85" y="555"/>
      <point x="178" y="645"/>
      <point x="296" y="691"/>
      <point x="358" y="691" type="qcurve" name="ah02"/>
      <point x="425" y="691"/>
      <point x="510" y="672"/>
      <point x="527" y="667" type="qcurve"/>
      <point x="547" y="460" type="line"/>
      <point x="466" y="460" type="line"/>
      <point x="445" y="506"/>
      <point x="423" y="556"/>
      <point x="412" y="580"/>
      <point x="408" y="584"/>
      <point x="407" y="584" type="qcurve"/>
      <point x="400" y="585"/>
      <point x="384" y="586"/>
      <point x="368" y="586" type="qcurve" name="ah01"/>
      <point x="326" y="586"/>
      <point x="252" y="553"/>
      <point x="197" y="491"/>
      <point x="163" y="403"/>
    </contour>
  </outline>
</glyph>
<glyph name="D" format="1">
  <advance width="637"/>
  <unicode hex="0044"/>
  <outline>
    <contour>
      <point x="39" y="88" type="line" name="hr00"/>
      <point x="104" y="101" type="line" name="ah05"/>
      <point x="104" y="594" type="line" name="mh01"/>
      <point x="41" y="602" type="line" name="fh01"/>
      <point x="41" y="690" type="line" name="ah08"/>
      <point x="219" y="690" type="line" name="ah01"/>
      <point x="310" y="690"/>
      <point x="454" y="648" name="ah04"/>
      <point x="553" y="564"/>
      <point x="606" y="437"/>
      <point x="606" y="353" type="qcurve" name="ah02"/>
      <point x="606" y="183" name="fv01"/>
      <point x="433" y="0" name="fh02"/>
      <point x="262" y="0" type="qcurve"/>
      <point x="53" y="0" type="line"/>
    </contour>
    <contour>
      <point x="469" y="350" type="qcurve" name="ah03"/>
      <point x="469" y="469"/>
      <point x="349" y="585"/>
      <point x="235" y="585" type="qcurve" name="ah07"/>
      <point x="235" y="105" type="line" name="ah06"/>
      <point x="240" y="105"/>
      <point x="249" y="104"/>
      <point x="254" y="104" type="qcurve"/>
      <point x="360" y="104" name="mh02"/>
      <point x="469" y="229" name="mv01"/>
    </contour>
  </outline>
</glyph>
<glyph name="E" format="1">
  <advance width="555"/>
  <unicode hex="0045"/>
  <outline>
    <contour>
      <point x="497" y="690" type="line" name="mh01"/>
      <point x="516" y="486" type="line"/>
      <point x="438" y="486" type="line" name="hr03"/>
      <point x="397" y="585" type="line" name="mh02"/>
      <point x="235" y="585" type="line" name="mh03"/>
      <point x="235" y="407" type="line" name="mh04"/>
      <point x="387" y="407" type="line" name="mh05"/>
      <point x="387" y="302" type="line" name="mv01"/>
      <point x="235" y="302" type="line" name="mh06"/>
      <point x="235" y="105" type="line" name="mv02"/>
      <point x="404" y="105" type="line" name="hr02"/>
      <point x="441" y="204" type="line" name="mh07"/>
      <point x="520" y="204" type="line" name="hr01"/>
      <point x="499" y="0" type="line"/>
      <point x="53" y="0" type="line"/>
      <point x="39" y="88" type="line"/>
      <point x="104" y="101" type="line"/>
      <point x="104" y="594" type="line" name="mh08"/>
      <point x="41" y="601" type="line"/>
      <point x="41" y="690" type="line" name="mh09"/>
    </contour>
  </outline>
</glyph>
<glyph name="F" format="1">
  <advance width="528"/>
  <unicode hex="0046"/>
  <outline>
    <contour>
      <point x="398" y="0" type="line" name="hr00"/>
      <point x="53" y="0" type="line"/>
      <point x="39" y="88" type="line"/>
      <point x="104" y="101" type="line"/>
      <point x="104" y="594" type="line" name="mh01"/>
      <point x="41" y="601" type="line" name="mh02"/>
      <point x="41" y="690" type="line" name="mv01"/>
      <point x="497" y="690" type="line" name="mh03"/>
      <point x="516" y="485" type="line"/>
      <point x="440" y="485" type="line" name="hr01"/>
      <point x="397" y="585" type="line" name="mh04"/>
      <point x="235" y="585" type="line" name="mh05"/>
      <point x="235" y="407" type="line" name="mh06"/>
      <point x="387" y="407" type="line" name="av01"/>
      <point x="387" y="302" type="line" name="mv02"/>
      <point x="235" y="302" type="line"/>
      <point x="235" y="105" type="line"/>
      <point x="405" y="79" type="line" name="mv03"/>
    </contour>
  </outline>
</glyph>
<glyph name="G" format="1">
  <advance width="620"/>
  <unicode hex="0047"/>
  <outline>
    <contour>
      <point x="572" y="324" type="line" name="hr00"/>
      <point x="572" y="9" type="line"/>
      <point x="558" y="7"/>
      <point x="516" y="3"/>
      <point x="465" y="-1"/>
      <point x="408" y="-4"/>
      <point x="380" y="-4" type="qcurve"/>
      <point x="310" y="-4"/>
      <point x="182" y="36"/>
      <point x="85" y="120"/>
      <point x="27" y="249"/>
      <point x="27" y="337" type="qcurve" name="av01"/>
      <point x="27" y="420"/>
      <point x="79" y="552"/>
      <point x="172" y="643" name="ah04"/>
      <point x="299" y="692" name="ah05"/>
      <point x="374" y="692" type="qcurve" name="ah01"/>
      <point x="404" y="692"/>
      <point x="459" y="686"/>
      <point x="506" y="678" name="ah03"/>
      <point x="539" y="669" name="ah02"/>
      <point x="547" y="667" type="qcurve"/>
      <point x="565" y="461" type="line"/>
      <point x="484" y="461" type="line"/>
      <point x="433" y="584" type="line"/>
      <point x="424" y="585"/>
      <point x="402" y="587"/>
      <point x="372" y="587" type="qcurve" name="ah06"/>
      <point x="330" y="587"/>
      <point x="254" y="552" name="av02"/>
      <point x="197" y="486"/>
      <point x="164" y="394"/>
      <point x="164" y="337" type="qcurve"/>
      <point x="164" y="284"/>
      <point x="196" y="197"/>
      <point x="258" y="133"/>
      <point x="351" y="98"/>
      <point x="411" y="98" type="qcurve"/>
      <point x="422" y="98"/>
      <point x="436" y="99"/>
      <point x="441" y="100" type="qcurve"/>
      <point x="441" y="229" type="line"/>
      <point x="338" y="243" type="line"/>
      <point x="356" y="324" type="line"/>
    </contour>
  </outline>
</glyph>
<glyph name="H" format="1">
  <advance width="702"/>
  <unicode hex="0048"/>
  <outline>
    <contour>
      <point x="403" y="89" type="line" name="hr00"/>
      <point x="461" y="102" type="line"/>
      <point x="461" y="302" type="line"/>
      <point x="236" y="302" type="line"/>
      <point x="236" y="99" type="line"/>
      <point x="299" y="87" type="line"/>
      <point x="299" y="68" type="line"/>
      <point x="299" y="55"/>
      <point x="300" y="27"/>
      <point x="300" y="15" type="qcurve"/>
      <point x="300" y="0" type="line"/>
      <point x="55" y="0" type="line"/>
      <point x="40" y="89" type="line"/>
      <point x="105" y="102" type="line"/>
      <point x="105" y="592" type="line"/>
      <point x="42" y="599" type="line"/>
      <point x="42" y="690" type="line"/>
      <point x="286" y="690" type="line"/>
      <point x="301" y="597" type="line"/>
      <point x="236" y="585" type="line"/>
      <point x="236" y="407" type="line"/>
      <point x="461" y="407" type="line"/>
      <point x="461" y="592" type="line"/>
      <point x="405" y="599" type="line"/>
      <point x="405" y="690" type="line"/>
      <point x="652" y="690" type="line"/>
      <point x="667" y="597" type="line"/>
      <point x="592" y="585" type="line"/>
      <point x="592" y="99" type="line"/>
      <point x="665" y="87" type="line"/>
      <point x="665" y="68" type="line"/>
      <point x="665" y="55"/>
      <point x="664" y="27"/>
      <point x="664" y="15" type="qcurve"/>
      <point x="664" y="0" type="line"/>
      <point x="418" y="0" type="line"/>
    </contour>
  </outline>
</glyph>
<glyph name="I" format="1">
  <advance width="348"/>
  <unicode hex="0049"/>
  <outline>
    <contour>
      <point x="37" y="89" type="line" name="hr00"/>
      <point x="107" y="102" type="line"/>
      <point x="107" y="592" type="line"/>
      <point x="39" y="599" type="line"/>
      <point x="39" y="690" type="line"/>
      <point x="299" y="690" type="line"/>
      <point x="314" y="597" type="line"/>
      <point x="238" y="585" type="line"/>
      <point x="238" y="99" type="line"/>
      <point x="312" y="87" type="line"/>
      <point x="312" y="68" type="line"/>
      <point x="312" y="55"/>
      <point x="311" y="27"/>
      <point x="311" y="15" type="qcurve"/>
      <point x="311" y="0" type="line"/>
      <point x="51" y="0" type="line"/>
    </contour>
  </outline>
</glyph>
<glyph name="J" format="1">
  <advance width="397"/>
  <unicode hex="004A"/>
  <outline>
    <contour>
      <point x="304" y="175" type="line" name="hr00"/>
      <point x="304" y="117"/>
      <point x="276" y="47" name="mh01"/>
      <point x="232" y="9"/>
      <point x="181" y="-4"/>
      <point x="159" y="-4" type="qcurve"/>
      <point x="135" y="-4" name="mv01"/>
      <point x="89" y="8"/>
      <point x="48" y="26"/>
      <point x="14" y="48" name="mh02"/>
      <point x="2" y="59" type="qcurve"/>
      <point x="72" y="160" type="line" name="mv02"/>
      <point x="101" y="137"/>
      <point x="142" y="110"/>
      <point x="156" y="110" type="qcurve"/>
      <point x="173" y="110"/>
      <point x="173" y="136" type="qcurve" name="mh03"/>
      <point x="173" y="585" type="line"/>
      <point x="93" y="597" type="line" name="mh04"/>
      <point x="108" y="690" type="line" name="ah01"/>
      <point x="372" y="690" type="line" name="mh05"/>
      <point x="372" y="599" type="line"/>
      <point x="304" y="592" type="line" name="mh06"/>
    </contour>
  </outline>
</glyph>
<glyph name="K" format="1">
  <advance width="635"/>
  <unicode hex="004B"/>
  <outline>
    <contour>
      <point x="37" y="89" type="line" name="hr00"/>
      <point x="107" y="102" type="line"/>
      <point x="107" y="592" type="line"/>
      <point x="39" y="597" type="line"/>
      <point x="39" y="690" type="line"/>
      <point x="292" y="690" type="line"/>
      <point x="307" y="600" type="line"/>
      <point x="238" y="585" type="line"/>
      <point x="238" y="345" type="line"/>
      <point x="439" y="585" type="line"/>
      <point x="362" y="601" type="line"/>
      <point x="362" y="690" type="line"/>
      <point x="614" y="690" type="line"/>
      <point x="614" y="601" type="line"/>
      <point x="575" y="593" type="line"/>
      <point x="562" y="576"/>
      <point x="525" y="531"/>
      <point x="479" y="479"/>
      <point x="428" y="421"/>
      <point x="402" y="391" type="qcurve"/>
      <point x="564" y="97" type="line"/>
      <point x="618" y="87" type="line"/>
      <point x="618" y="0" type="line"/>
      <point x="460" y="0" type="line"/>
      <point x="314" y="291" type="line"/>
      <point x="291" y="265"/>
      <point x="252" y="219"/>
      <point x="238" y="202" type="qcurve"/>
      <point x="238" y="99" type="line"/>
      <point x="304" y="87" type="line"/>
      <point x="304" y="68" type="line"/>
      <point x="304" y="55"/>
      <point x="305" y="27"/>
      <point x="305" y="15" type="qcurve"/>
      <point x="305" y="0" type="line"/>
      <point x="51" y="0" type="line"/>
    </contour>
  </outline>
</glyph>
<glyph name="L" format="1">
  <advance width="524"/>
  <unicode hex="004C"/>
  <outline>
    <contour>
      <point x="295" y="690" type="line" name="mv01"/>
      <point x="310" y="599" type="line"/>
      <point x="235" y="585" type="line" name="mv02"/>
      <point x="235" y="105" type="line" name="mv03"/>
      <point x="404" y="105" type="line" name="hr02"/>
      <point x="441" y="204" type="line"/>
      <point x="520" y="204" type="line" name="hr01"/>
      <point x="499" y="0" type="line"/>
      <point x="53" y="0" type="line"/>
      <point x="39" y="88" type="line"/>
      <point x="104" y="101" type="line"/>
      <point x="104" y="594" type="line"/>
      <point x="41" y="601" type="line"/>
      <point x="41" y="690" type="line" name="mh01"/>
    </contour>
  </outline>
</glyph>
<glyph name="O" format="1">
  <advance width="655"/>
  <unicode hex="004F"/>
  <outline>
    <contour>
      <point x="328" y="-4" type="qcurve" name="hr00"/>
      <point x="257" y="-4"/>
      <point x="148" y="48"/>
      <point x="74" y="140"/>
      <point x="36" y="268"/>
      <point x="36" y="345" type="qcurve" name="mh01"/>
      <point x="36" y="422"/>
      <point x="74" y="550"/>
      <point x="148" y="642" name="mh02"/>
      <point x="257" y="693"/>
      <point x="328" y="693" type="qcurve" name="mh03"/>
      <point x="399" y="693"/>
      <point x="508" y="642"/>
      <point x="581" y="550"/>
      <point x="619" y="422"/>
      <point x="619" y="345" type="qcurve" name="mh04"/>
      <point x="619" y="268"/>
      <point x="581" y="140"/>
      <point x="508" y="48"/>
      <point x="399" y="-4"/>
    </contour>
    <contour>
      <point x="173" y="343" type="qcurve"/>
      <point x="173" y="292"/>
      <point x="195" y="204"/>
      <point x="235" y="138"/>
      <point x="292" y="101"/>
      <point x="328" y="101" type="qcurve"/>
      <point x="363" y="101"/>
      <point x="420" y="138"/>
      <point x="460" y="204"/>
      <point x="482" y="292"/>
      <point x="482" y="343" type="qcurve" name="mh05"/>
      <point x="482" y="394"/>
      <point x="460" y="484"/>
      <point x="420" y="550"/>
      <point x="363" y="588"/>
      <point x="328" y="588" type="qcurve"/>
      <point x="292" y="588"/>
      <point x="235" y="550"/>
      <point x="195" y="484"/>
      <point x="173" y="394"/>
    </contour>
  </outline>
</glyph>
<glyph name="P" format="1">
  <advance width="585"/>
  <unicode hex="0050"/>
  <outline>
    <contour>
      <point x="238" y="327" type="line" name="hr00"/>
      <point x="299" y="327"/>
      <point x="376" y="346" name="mh01"/>
      <point x="419" y="381" name="mh02"/>
      <point x="434" y="431"/>
      <point x="434" y="463" type="qcurve" name="mh03"/>
      <point x="434" y="519"/>
      <point x="366" y="585" name="mh04"/>
      <point x="293" y="585" type="qcurve" name="mh05"/>
      <point x="238" y="585" type="line" name="mh06"/>
    </contour>
    <contour>
      <point x="37" y="86" type="line"/>
      <point x="107" y="100" type="line"/>
      <point x="107" y="592" type="line" name="mh07"/>
      <point x="39" y="599" type="line" name="mh08"/>
      <point x="39" y="690" type="line" name="mh09"/>
      <point x="289" y="690" type="line" name="mh10"/>
      <point x="360" y="690" name="mh11"/>
      <point x="466" y="658" name="mh12"/>
      <point x="536" y="598"/>
      <point x="571" y="513"/>
      <point x="571" y="460" type="qcurve" name="mh13"/>
      <point x="571" y="407" name="mv01"/>
      <point x="536" y="319"/>
      <point x="464" y="256" name="mh14"/>
      <point x="357" y="222"/>
      <point x="285" y="222" type="qcurve" name="mh15"/>
      <point x="238" y="222" type="line" name="mh16"/>
      <point x="238" y="114" type="line" name="mh17"/>
      <point x="238" y="106"/>
      <point x="247" y="103"/>
      <point x="255" y="102" type="qcurve"/>
      <point x="267" y="100"/>
      <point x="304" y="96"/>
      <point x="342" y="90"/>
      <point x="378" y="85"/>
      <point x="390" y="83" type="qcurve"/>
      <point x="384" y="0" type="line"/>
      <point x="51" y="0" type="line" name="mh18"/>
    </contour>
  </outline>
</glyph>
<glyph name="Q" format="1">
  <advance width="655"/>
  <unicode hex="0051"/>
  <outline>
    <contour>
      <point x="314" y="-15" type="line" name="hr00"/>
      <point x="522" y="-91" type="line"/>
      <point x="529" y="-129" type="line"/>
      <point x="435" y="-227" type="line"/>
      <point x="259" y="-72" type="line"/>
    </contour>
    <contour>
      <point x="328" y="-4" type="qcurve"/>
      <point x="257" y="-4"/>
      <point x="148" y="48"/>
      <point x="74" y="140"/>
      <point x="36" y="268"/>
      <point x="36" y="345" type="qcurve"/>
      <point x="36" y="422"/>
      <point x="74" y="550"/>
      <point x="148" y="642"/>
      <point x="257" y="693"/>
      <point x="328" y="693" type="qcurve" name="mh01"/>
      <point x="399" y="693"/>
      <point x="508" y="642"/>
      <point x="581" y="550"/>
      <point x="619" y="422"/>
      <point x="619" y="345" type="qcurve"/>
      <point x="619" y="268"/>
      <point x="581" y="140"/>
      <point x="508" y="48"/>
      <point x="399" y="-4"/>
    </contour>
    <contour>
      <point x="173" y="343" type="qcurve"/>
      <point x="173" y="292"/>
      <point x="195" y="204"/>
      <point x="235" y="138"/>
      <point x="292" y="101"/>
      <point x="328" y="101" type="qcurve"/>
      <point x="363" y="101"/>
      <point x="420" y="138"/>
      <point x="460" y="204"/>
      <point x="482" y="292"/>
      <point x="482" y="343" type="qcurve"/>
      <point x="482" y="394"/>
      <point x="460" y="484"/>
      <point x="420" y="550"/>
      <point x="363" y="588"/>
      <point x="328" y="588" type="qcurve"/>
      <point x="292" y="588"/>
      <point x="235" y="550"/>
      <point x="195" y="484"/>
      <point x="173" y="394"/>
    </contour>
  </outline>
</glyph>
<glyph name="R" format="1">
  <advance width="612"/>
  <unicode hex="0052"/>
  <outline>
    <contour>
      <point x="38" y="85" type="line" name="hr00"/>
      <point x="107" y="99" type="line"/>
      <point x="107" y="592" type="line"/>
      <point x="39" y="599" type="line"/>
      <point x="39" y="690" type="line"/>
      <point x="284" y="690" type="line"/>
      <point x="357" y="690"/>
      <point x="466" y="657"/>
      <point x="537" y="597"/>
      <point x="572" y="514"/>
      <point x="572" y="465" type="qcurve"/>
      <point x="572" y="391"/>
      <point x="499" y="291"/>
      <point x="433" y="264" type="qcurve"/>
      <point x="521" y="97" type="line"/>
      <point x="584" y="87" type="line"/>
      <point x="584" y="0" type="line"/>
      <point x="415" y="0" type="line"/>
      <point x="311" y="234" type="line"/>
      <point x="276" y="231"/>
      <point x="238" y="231" type="qcurve"/>
      <point x="238" y="95" type="line"/>
      <point x="290" y="87" type="line"/>
      <point x="290" y="0" type="line"/>
      <point x="47" y="0" type="line"/>
    </contour>
    <contour>
      <point x="238" y="337" type="line"/>
      <point x="244" y="336"/>
      <point x="253" y="336" type="qcurve"/>
      <point x="271" y="336" type="line"/>
      <point x="315" y="336"/>
      <point x="378" y="356"/>
      <point x="418" y="390"/>
      <point x="437" y="436"/>
      <point x="437" y="462" type="qcurve"/>
      <point x="437" y="491"/>
      <point x="419" y="537"/>
      <point x="373" y="568"/>
      <point x="296" y="584"/>
      <point x="238" y="584" type="qcurve"/>
    </contour>
  </outline>
</glyph>
<glyph name="S" format="1">
  <advance width="528"/>
  <unicode hex="0053"/>
  <outline>
    <contour>
      <point x="352" y="183" type="qcurve" name="hr00"/>
      <point x="352" y="203"/>
      <point x="337" y="232" name="mh01"/>
      <point x="305" y="257"/>
      <point x="258" y="280"/>
      <point x="226" y="295" type="qcurve"/>
      <point x="187" y="313"/>
      <point x="121" y="349"/>
      <point x="72" y="396" name="mh02"/>
      <point x="44" y="459"/>
      <point x="44" y="504" type="qcurve" name="mh03"/>
      <point x="44" y="547"/>
      <point x="81" y="617" name="mh04"/>
      <point x="144" y="666" name="mh05"/>
      <point x="230" y="692"/>
      <point x="278" y="692" type="qcurve" name="mh06"/>
      <point x="330" y="692"/>
      <point x="429" y="676"/>
      <point x="468" y="665" type="qcurve"/>
      <point x="483" y="475" type="line"/>
      <point x="399" y="475" type="line" name="mh07"/>
      <point x="350" y="581" type="line"/>
      <point x="337" y="583"/>
      <point x="299" y="587"/>
      <point x="282" y="587" type="qcurve"/>
      <point x="229" y="587"/>
      <point x="180" y="543"/>
      <point x="180" y="511" type="qcurve" name="mh08"/>
      <point x="180" y="491"/>
      <point x="206" y="460"/>
      <point x="246" y="435"/>
      <point x="293" y="413"/>
      <point x="315" y="403" type="qcurve"/>
      <point x="359" y="382"/>
      <point x="425" y="341" name="mh09"/>
      <point x="468" y="293"/>
      <point x="489" y="237" name="mh10"/>
      <point x="489" y="201" type="qcurve"/>
      <point x="489" y="145" name="mh11"/>
      <point x="445" y="67"/>
      <point x="375" y="18"/>
      <point x="285" y="-4"/>
      <point x="240" y="-4" type="qcurve"/>
      <point x="181" y="-4"/>
      <point x="76" y="25"/>
      <point x="36" y="41" type="qcurve" name="mh12"/>
      <point x="56" y="234" type="line"/>
      <point x="140" y="227" type="line"/>
      <point x="148" y="116" type="line"/>
      <point x="161" y="113"/>
      <point x="206" y="101"/>
      <point x="234" y="101" type="qcurve"/>
      <point x="258" y="101"/>
      <point x="300" y="110"/>
      <point x="333" y="130"/>
      <point x="352" y="161"/>
    </contour>
  </outline>
</glyph>
<glyph name="U" format="1">
  <advance width="670"/>
  <unicode hex="0055"/>
  <outline>
    <contour>
      <point x="219" y="250" type="line" name="hr00"/>
      <point x="219" y="175"/>
      <point x="278" y="101"/>
      <point x="353" y="101" type="qcurve"/>
      <point x="413" y="101"/>
      <point x="479" y="172"/>
      <point x="479" y="251" type="qcurve"/>
      <point x="479" y="593" type="line" name="mh01"/>
      <point x="415" y="602" type="line"/>
      <point x="415" y="690" type="line" name="mv01"/>
      <point x="643" y="690" type="line" name="mh02"/>
      <point x="643" y="599" type="line" name="hr02"/>
      <point x="584" y="586" type="line" name="mh03"/>
      <point x="584" y="248" type="line"/>
      <point x="584" y="131" name="mh04"/>
      <point x="466" y="-4"/>
      <point x="353" y="-4" type="qcurve"/>
      <point x="278" y="-4"/>
      <point x="176" y="30"/>
      <point x="115" y="95"/>
      <point x="88" y="189"/>
      <point x="88" y="248" type="qcurve" name="hr01"/>
      <point x="88" y="592" type="line" name="mh05"/>
      <point x="21" y="601" type="line"/>
      <point x="21" y="690" type="line" name="mh06"/>
      <point x="290" y="690" type="line"/>
      <point x="290" y="602" type="line"/>
      <point x="219" y="591" type="line" name="mh07"/>
    </contour>
  </outline>
</glyph>
<glyph name="Z" format="1">
  <advance width="562"/>
  <unicode hex="005A"/>
  <outline>
    <contour>
      <point x="28" y="79" type="line" name="hr00"/>
      <point x="365" y="585" type="line"/>
      <point x="144" y="585" type="line" name="hr01"/>
      <point x="125" y="475" type="line"/>
      <point x="47" y="475" type="line"/>
      <point x="47" y="690" type="line" name="mh01"/>
      <point x="507" y="690" type="line"/>
      <point x="527" y="597" type="line"/>
      <point x="514" y="575"/>
      <point x="469" y="505"/>
      <point x="414" y="420"/>
      <point x="352" y="326"/>
      <point x="289" y="232"/>
      <point x="230" y="142"/>
      <point x="205" y="105" type="qcurve"/>
      <point x="420" y="105" type="line"/>
      <point x="438" y="215" type="line"/>
      <point x="518" y="215" type="line"/>
      <point x="518" y="0" type="line"/>
      <point x="47" y="0" type="line"/>
    </contour>
  </outline>
</glyph>
<glyph name="bracketright" format="1">
  <advance width="336"/>
  <unicode hex="005D"/>
  <outline>
    <contour>
      <point x="-10" y="640" type="line" name="hr00"/>
      <point x="-10" y="719" type="line"/>
      <point x="-10" y="726"/>
      <point x="-4" y="726" type="qcurve"/>
      <point x="254" y="726" type="line"/>
      <point x="262" y="714" type="line"/>
      <point x="262" y="-167" type="line"/>
      <point x="254" y="-179" type="line"/>
      <point x="-4" y="-179" type="line"/>
      <point x="-10" y="-179"/>
      <point x="-10" y="-171" type="qcurve"/>
      <point x="-10" y="-92" type="line"/>
      <point x="141" y="-92" type="line"/>
      <point x="141" y="640" type="line"/>
    </contour>
  </outline>
</glyph>
<glyph name="asciicircum" format="1">
  <advance width="514"/>
  <unicode hex="005E"/>
  <outline>
    <contour>
      <point x="82" y="561" type="line" name="hr00"/>
      <point x="253" y="726" type="line" name="mh01"/>
      <point x="290" y="726" type="line" name="mh02"/>
      <point x="462" y="560" type="line" name="mh03"/>
      <point x="455" y="548" type="line"/>
      <point x="369" y="548" type="line"/>
      <point x="271" y="616" type="line" name="mh04"/>
      <point x="173" y="548" type="line"/>
      <point x="88" y="548" type="line"/>
    </contour>
  </outline>
</glyph>
<glyph name="grave" format="1">
  <advance width="338"/>
  <unicode hex="0060"/>
  <outline>
    <contour>
      <point x="240" y="447" type="line" name="hr00"/>
      <point x="57" y="591" type="line"/>
      <point x="134" y="682" type="line" name="mh01"/>
      <point x="169" y="665" type="line" name="mh02"/>
      <point x="281" y="488" type="line"/>
    </contour>
  </outline>
</glyph>
<glyph name="b" format="1">
  <advance width="499"/>
  <unicode hex="0062"/>
  <outline>
    <contour>
      <point x="12" y="648" type="line" name="hr00"/>
      <point x="1" y="716" type="line"/>
      <point x="150" y="736" type="line"/>
      <point x="184" y="701" type="line"/>
      <point x="184" y="472" type="line"/>
      <point x="200" y="480"/>
      <point x="242" y="491"/>
      <point x="271" y="491" type="qcurve" name="mh01"/>
      <point x="316" y="491"/>
      <point x="388" y="458"/>
      <point x="440" y="396"/>
      <point x="468" y="307"/>
      <point x="468" y="251" type="qcurve"/>
      <point x="468" y="177"/>
      <point x="429" y="79" name="mh02"/>
      <point x="366" y="21"/>
      <point x="286" y="-4"/>
      <point x="245" y="-4" type="qcurve"/>
      <point x="188" y="-4"/>
      <point x="149" y="17" type="qcurve"/>
      <point x="96" y="-4" type="line"/>
      <point x="64" y="23" type="line"/>
      <point x="64" y="651" type="line"/>
    </contour>
    <contour>
      <point x="247" y="397" type="qcurve"/>
      <point x="228" y="397"/>
      <point x="195" y="387"/>
      <point x="184" y="379" type="qcurve"/>
      <point x="184" y="103" type="line"/>
      <point x="193" y="97"/>
      <point x="228" y="90"/>
      <point x="245" y="90" type="qcurve"/>
      <point x="286" y="90"/>
      <point x="344" y="165" name="mv01"/>
      <point x="344" y="246" type="qcurve" name="mh03"/>
      <point x="344" y="324" name="mv02"/>
      <point x="289" y="397"/>
    </contour>
  </outline>
</glyph>
<glyph name="c" format="1">
  <advance width="431"/>
  <unicode hex="0063"/>
  <outline>
    <contour>
      <point x="408" y="52" type="curve" name="hr00"/>
      <point x="404" y="68"/>
      <point x="388" y="121"/>
      <point x="382" y="139" type="curve"/>
      <point x="366" y="125"/>
      <point x="327" y="91"/>
      <point x="270" y="91" type="curve" smooth="yes"/>
      <point x="188" y="91"/>
      <point x="154" y="160"/>
      <point x="154" y="238" type="curve" smooth="yes"/>
      <point x="154" y="335"/>
      <point x="190" y="397"/>
      <point x="251" y="397" type="curve"/>
      <point x="294" y="337" type="line"/>
      <point x="415" y="402" type="line"/>
      <point x="408" y="416"/>
      <point x="365" y="491"/>
      <point x="248" y="491" type="curve" smooth="yes"/>
      <point x="149" y="491"/>
      <point x="30" y="433"/>
      <point x="30" y="233" type="curve" smooth="yes"/>
      <point x="30" y="66"/>
      <point x="147" y="-4"/>
      <point x="249" y="-4" type="curve" smooth="yes"/>
      <point x="313" y="-4"/>
      <point x="372" y="15"/>
    </contour>
  </outline>
</glyph>
<glyph name="e" format="1">
  <advance width="454"/>
  <unicode hex="0065"/>
  <outline>
    <contour>
      <point x="253" y="491" type="qcurve" name="hr00"/>
      <point x="284" y="491"/>
      <point x="345" y="475"/>
      <point x="394" y="441"/>
      <point x="424" y="389"/>
      <point x="424" y="354" type="qcurve"/>
      <point x="424" y="312"/>
      <point x="389" y="253"/>
      <point x="329" y="215"/>
      <point x="250" y="197"/>
      <point x="207" y="197" type="qcurve"/>
      <point x="180" y="197" type="line"/>
      <point x="167" y="197"/>
      <point x="156" y="198" type="qcurve"/>
      <point x="159" y="175"/>
      <point x="175" y="136"/>
      <point x="203" y="108"/>
      <point x="247" y="91"/>
      <point x="277" y="91" type="qcurve"/>
      <point x="323" y="91"/>
      <point x="379" y="126"/>
      <point x="397" y="143" type="qcurve"/>
      <point x="420" y="56" type="line"/>
      <point x="413" y="47"/>
      <point x="384" y="26"/>
      <point x="341" y="8"/>
      <point x="288" y="-4"/>
      <point x="257" y="-4" type="qcurve"/>
      <point x="214" y="-4"/>
      <point x="133" y="26"/>
      <point x="69" y="86"/>
      <point x="30" y="177"/>
      <point x="30" y="239" type="qcurve"/>
      <point x="30" y="305"/>
      <point x="70" y="400"/>
      <point x="133" y="462"/>
      <point x="213" y="491"/>
    </contour>
    <contour>
      <point x="157" y="282" type="qcurve"/>
      <point x="162" y="281"/>
      <point x="172" y="281" type="qcurve"/>
      <point x="190" y="281" type="line"/>
      <point x="209" y="281"/>
      <point x="249" y="288"/>
      <point x="281" y="304"/>
      <point x="301" y="330"/>
      <point x="301" y="350" type="qcurve"/>
      <point x="301" y="373"/>
      <point x="275" y="396"/>
      <point x="255" y="396" type="qcurve"/>
      <point x="237" y="396"/>
      <point x="203" y="378"/>
      <point x="176" y="347"/>
      <point x="159" y="305"/>
    </contour>
  </outline>
</glyph>
<glyph name="f" format="1">
  <advance width="359"/>
  <unicode hex="0066"/>
  <outline>
    <contour>
      <point x="220" y="400" type="line" name="hr00"/>
      <point x="220" y="74" type="line"/>
      <point x="316" y="63" type="line"/>
      <point x="316" y="44"/>
      <point x="315" y="6"/>
      <point x="315" y="0" type="qcurve"/>
      <point x="59" y="0" type="line"/>
      <point x="45" y="63" type="line" name="mh01"/>
      <point x="99" y="76" type="line"/>
      <point x="99" y="400" type="line"/>
      <point x="27" y="400" type="line"/>
      <point x="12" y="481" type="line"/>
      <point x="19" y="491" type="line"/>
      <point x="100" y="491" type="line"/>
      <point x="100" y="541" type="line"/>
      <point x="100" y="594"/>
      <point x="127" y="668"/>
      <point x="172" y="714"/>
      <point x="230" y="734"/>
      <point x="261" y="734" type="qcurve" name="mh02"/>
      <point x="276" y="734"/>
      <point x="314" y="727"/>
      <point x="355" y="709"/>
      <point x="396" y="678"/>
      <point x="414" y="653" type="qcurve"/>
      <point x="300" y="584" type="line"/>
      <point x="260" y="639" type="line" name="mh03"/>
      <point x="237" y="639" name="mh04"/>
      <point x="220" y="614"/>
      <point x="220" y="592" type="qcurve"/>
      <point x="220" y="491" type="line"/>
      <point x="334" y="491" type="line"/>
      <point x="339" y="491"/>
      <point x="339" y="485" type="qcurve"/>
      <point x="339" y="400" type="line"/>
    </contour>
  </outline>
</glyph>
<glyph name="g" format="1">
  <advance width="503"/>
  <unicode hex="0067"/>
  <outline>
    <contour>
      <point x="232" y="491" type="qcurve" name="hr00"/>
      <point x="267" y="491"/>
      <point x="334" y="469"/>
      <point x="361" y="448" type="qcurve"/>
      <point x="470" y="503" type="line"/>
      <point x="493" y="500" type="line"/>
      <point x="504" y="401" type="line" name="hr01"/>
      <point x="411" y="390" type="line"/>
      <point x="421" y="371"/>
      <point x="432" y="327"/>
      <point x="432" y="302" type="qcurve"/>
      <point x="432" y="257"/>
      <point x="397" y="189"/>
      <point x="341" y="144"/>
      <point x="269" y="122"/>
      <point x="232" y="122" type="qcurve"/>
      <point x="218" y="122" type="line"/>
      <point x="212" y="122"/>
      <point x="206" y="123" type="qcurve"/>
      <point x="188" y="96" type="line"/>
      <point x="190" y="82" type="line"/>
      <point x="292" y="61" type="line"/>
      <point x="449" y="28"/>
      <point x="449" y="-81" type="qcurve"/>
      <point x="449" y="-126"/>
      <point x="412" y="-197"/>
      <point x="349" y="-246"/>
      <point x="264" y="-272"/>
      <point x="215" y="-272" type="qcurve"/>
      <point x="170" y="-272"/>
      <point x="99" y="-249"/>
      <point x="49" y="-209"/>
      <point x="22" y="-155"/>
      <point x="22" y="-123" type="qcurve"/>
      <point x="22" y="-75"/>
      <point x="67" y="-13"/>
      <point x="99" y="6" type="qcurve"/>
      <point x="75" y="32"/>
      <point x="75" y="73" type="qcurve"/>
      <point x="75" y="99"/>
      <point x="96" y="140"/>
      <point x="112" y="155" type="qcurve"/>
      <point x="77" y="177"/>
      <point x="33" y="250"/>
      <point x="33" y="302" type="qcurve"/>
      <point x="33" y="347"/>
      <point x="68" y="418"/>
      <point x="124" y="466"/>
      <point x="195" y="491"/>
    </contour>
    <contour>
      <point x="232" y="397" type="qcurve"/>
      <point x="212" y="397"/>
      <point x="184" y="382"/>
      <point x="166" y="357"/>
      <point x="157" y="325"/>
      <point x="157" y="307" type="qcurve"/>
      <point x="157" y="271"/>
      <point x="193" y="216"/>
      <point x="232" y="216" type="qcurve" name="hr02"/>
      <point x="272" y="216"/>
      <point x="308" y="271"/>
      <point x="308" y="307" type="qcurve"/>
      <point x="308" y="325"/>
      <point x="299" y="357"/>
      <point x="281" y="382"/>
      <point x="252" y="397"/>
    </contour>
    <contour>
      <point x="353" y="-98" type="qcurve"/>
      <point x="353" y="-83"/>
      <point x="318" y="-67"/>
      <point x="265" y="-55"/>
      <point x="200" y="-44"/>
      <point x="170" y="-34" type="qcurve"/>
      <point x="148" y="-48"/>
      <point x="131" y="-78"/>
      <point x="131" y="-93" type="qcurve"/>
      <point x="131" y="-103"/>
      <point x="141" y="-124"/>
      <point x="167" y="-141"/>
      <point x="210" y="-152"/>
      <point x="242" y="-152" type="qcurve"/>
      <point x="263" y="-152"/>
      <point x="302" y="-144"/>
      <point x="334" y="-130"/>
      <point x="353" y="-110"/>
    </contour>
  </outline>
</glyph>
<glyph name="h" format="1">
  <advance width="547"/>
  <unicode hex="0068"/>
  <outline>
    <contour>
      <point x="350" y="331" type="line" name="hr00"/>
      <point x="350" y="363" name="mv01"/>
      <point x="317" y="393"/>
      <point x="288" y="393" type="qcurve" name="mv02"/>
      <point x="273" y="393"/>
      <point x="245" y="385"/>
      <point x="221" y="373"/>
      <point x="204" y="360"/>
      <point x="201" y="356" type="qcurve" name="mh01"/>
      <point x="201" y="75" type="line"/>
      <point x="258" y="64" type="line"/>
      <point x="258" y="45"/>
      <point x="257" y="7"/>
      <point x="257" y="0" type="qcurve"/>
      <point x="35" y="0" type="line"/>
      <point x="23" y="64" type="line" name="mh02"/>
      <point x="80" y="77" type="line"/>
      <point x="80" y="648" type="line" name="mh03"/>
      <point x="28" y="648" type="line"/>
      <point x="18" y="716" type="line" name="mh04"/>
      <point x="166" y="737" type="line"/>
      <point x="201" y="700" type="line" name="mh05"/>
      <point x="201" y="455" type="line"/>
      <point x="220" y="469"/>
      <point x="284" y="491"/>
      <point x="317" y="491" type="qcurve" name="mh06"/>
      <point x="348" y="491"/>
      <point x="404" y="475"/>
      <point x="446" y="443"/>
      <point x="471" y="393"/>
      <point x="471" y="359" type="qcurve" name="mh07"/>
      <point x="471" y="76" type="line"/>
      <point x="526" y="64" type="line" name="mh08"/>
      <point x="526" y="45"/>
      <point x="525" y="7"/>
      <point x="525" y="0" type="qcurve"/>
      <point x="300" y="0" type="line"/>
      <point x="300" y="64" type="line"/>
      <point x="350" y="75" type="line" name="mv03"/>
    </contour>
  </outline>
</glyph>
<glyph name="i" format="1">
  <advance width="288"/>
  <unicode hex="0069"/>
  <outline>
    <contour>
      <point x="68" y="663" type="curve" smooth="yes" name="hr00"/>
      <point x="68" y="623"/>
      <point x="101" y="590"/>
      <point x="141" y="590" type="curve" smooth="yes"/>
      <point x="181" y="590"/>
      <point x="213" y="623"/>
      <point x="213" y="663" type="curve" smooth="yes"/>
      <point x="213" y="702"/>
      <point x="181" y="735"/>
      <point x="141" y="735" type="curve" smooth="yes"/>
      <point x="101" y="735"/>
      <point x="68" y="702"/>
    </contour>
    <contour>
      <point x="175" y="492" type="line"/>
      <point x="152" y="489"/>
      <point x="62" y="471"/>
      <point x="26" y="466" type="curve"/>
      <point x="37" y="398" type="line"/>
      <point x="88" y="398" type="line" name="hr01"/>
      <point x="88" y="77" type="line"/>
      <point x="32" y="64" type="line"/>
      <point x="43" y="0" type="line"/>
      <point x="264" y="0" type="line"/>
      <point x="264" y="64" type="line"/>
      <point x="209" y="75" type="line"/>
      <point x="209" y="456" type="line"/>
    </contour>
  </outline>
</glyph>
<glyph name="n" format="1">
  <advance width="555"/>
  <unicode hex="006E"/>
  <outline>
    <contour>
      <point x="174" y="492" type="line" name="hr00"/>
      <point x="152" y="489"/>
      <point x="62" y="471"/>
      <point x="26" y="466" type="curve"/>
      <point x="37" y="398" type="line"/>
      <point x="88" y="398" type="line"/>
      <point x="88" y="77" type="line"/>
      <point x="32" y="64" type="line"/>
      <point x="43" y="0" type="line"/>
      <point x="265" y="0" type="line"/>
      <point x="265" y="9"/>
      <point x="266" y="38"/>
      <point x="266" y="63" type="curve"/>
      <point x="209" y="75" type="line"/>
      <point x="209" y="356" type="line"/>
      <point x="218" y="367"/>
      <point x="257" y="393"/>
      <point x="296" y="393" type="curve" smooth="yes" name="hr01"/>
      <point x="335" y="393"/>
      <point x="358" y="374"/>
      <point x="358" y="331" type="curve" smooth="yes"/>
      <point x="358" y="75" type="line"/>
      <point x="308" y="64" type="line"/>
      <point x="308" y="0" type="line"/>
      <point x="533" y="0" type="line"/>
      <point x="533" y="9"/>
      <point x="534" y="39"/>
      <point x="534" y="64" type="curve"/>
      <point x="479" y="73" type="line"/>
      <point x="479" y="359" type="line" smooth="yes"/>
      <point x="479" y="450"/>
      <point x="408" y="491"/>
      <point x="325" y="491" type="curve" smooth="yes" name="hr02"/>
      <point x="281" y="491"/>
      <point x="234" y="473"/>
      <point x="209" y="455" type="curve"/>
    </contour>
  </outline>
</glyph>
<glyph name="p" format="1">
  <advance width="515"/>
  <unicode hex="0070"/>
  <outline>
    <contour>
      <point x="166" y="491" type="line" name="hr00"/>
      <point x="16" y="467" type="line"/>
      <point x="29" y="395" type="line"/>
      <point x="80" y="402" type="line"/>
      <point x="80" y="-195" type="line"/>
      <point x="29" y="-210" type="line"/>
      <point x="45" y="-273" type="line"/>
      <point x="318" y="-273" type="line"/>
      <point x="318" y="-264"/>
      <point x="319" y="-233"/>
      <point x="319" y="-208" type="curve"/>
      <point x="201" y="-182" type="line"/>
      <point x="201" y="4" type="line"/>
      <point x="220" y="-1"/>
      <point x="240" y="-4"/>
      <point x="261" y="-4" type="curve" smooth="yes"/>
      <point x="371" y="-4"/>
      <point x="484" y="55"/>
      <point x="484" y="251" type="curve" smooth="yes"/>
      <point x="484" y="401"/>
      <point x="406" y="491"/>
      <point x="287" y="491" type="curve" smooth="yes"/>
      <point x="243" y="491"/>
      <point x="212" y="480"/>
      <point x="189" y="468" type="curve"/>
    </contour>
    <contour>
      <point x="264" y="397" type="curve" smooth="yes"/>
      <point x="319" y="397"/>
      <point x="360" y="350"/>
      <point x="360" y="246" type="curve" smooth="yes"/>
      <point x="360" y="138"/>
      <point x="315" y="90"/>
      <point x="261" y="90" type="curve" smooth="yes"/>
      <point x="239" y="90"/>
      <point x="213" y="95"/>
      <point x="201" y="103" type="curve"/>
      <point x="201" y="379" type="line"/>
      <point x="216" y="390"/>
      <point x="239" y="397"/>
    </contour>
  </outline>
</glyph>
<glyph name="q" format="1">
  <advance width="499"/>
  <unicode hex="0071"/>
  <outline>
    <contour>
      <point x="435" y="469" type="line" name="hr00"/>
      <point x="401" y="493" type="line"/>
      <point x="343" y="470" type="line"/>
      <point x="314" y="483"/>
      <point x="278" y="491"/>
      <point x="237" y="491" type="curve" smooth="yes" name="hr01"/>
      <point x="172" y="491"/>
      <point x="31" y="447"/>
      <point x="31" y="233" type="curve" smooth="yes"/>
      <point x="31" y="94"/>
      <point x="102" y="-4"/>
      <point x="225" y="-4" type="curve" smooth="yes"/>
      <point x="260" y="-4"/>
      <point x="290" y="4"/>
      <point x="314" y="24" type="curve"/>
      <point x="314" y="-186" type="line"/>
      <point x="191" y="-210" type="line"/>
      <point x="202" y="-273" type="line"/>
      <point x="490" y="-273" type="line"/>
      <point x="490" y="-200" type="line"/>
      <point x="435" y="-181" type="line"/>
    </contour>
    <contour>
      <point x="247" y="91" type="curve" smooth="yes"/>
      <point x="204" y="91"/>
      <point x="155" y="119"/>
      <point x="155" y="245" type="curve" smooth="yes"/>
      <point x="155" y="370"/>
      <point x="206" y="398"/>
      <point x="252" y="398" type="curve" smooth="yes"/>
      <point x="282" y="398"/>
      <point x="304" y="387"/>
      <point x="314" y="377" type="curve"/>
      <point x="314" y="149" type="line"/>
      <point x="308" y="114"/>
      <point x="276" y="91"/>
    </contour>
  </outline>
</glyph>
<glyph name="v" format="1">
  <advance width="497"/>
  <unicode hex="0076"/>
  <outline>
    <contour>
      <point x="189" y="0" type="line" name="mh01"/>
      <point x="57" y="407" type="line"/>
      <point x="7" y="407" type="line" name="hr03"/>
      <point x="-1" y="479" type="line"/>
      <point x="167" y="491" type="line" name="hr02"/>
      <point x="275" y="127" type="line" name="mh02"/>
      <point x="379" y="407" type="line"/>
      <point x="337" y="407" type="line" name="hr01"/>
      <point x="328" y="479" type="line"/>
      <point x="476" y="491" type="line"/>
      <point x="495" y="455" type="line"/>
      <point x="328" y="0" type="line" name="mh03"/>
    </contour>
  </outline>
</glyph>
<glyph name="braceleft" format="1">
  <advance width="367"/>
  <unicode hex="007B"/>
  <outline>
    <contour>
      <point x="2" y="316" type="line" name="hr00"/>
      <point x="23" y="316"/>
      <point x="62" y="328"/>
      <point x="94" y="352"/>
      <point x="113" y="386"/>
      <point x="113" y="408" type="qcurve"/>
      <point x="113" y="432"/>
      <point x="109" y="480"/>
      <point x="109" y="503" type="qcurve"/>
      <point x="109" y="545"/>
      <point x="123" y="621"/>
      <point x="161" y="679"/>
      <point x="230" y="713"/>
      <point x="285" y="713" type="qcurve"/>
      <point x="314" y="713"/>
      <point x="364" y="703"/>
      <point x="376" y="698" type="qcurve" name="hr01"/>
      <point x="340" y="582" type="line"/>
      <point x="262" y="615" type="line"/>
      <point x="242" y="607"/>
      <point x="232" y="546"/>
      <point x="232" y="507" type="qcurve"/>
      <point x="232" y="483"/>
      <point x="233" y="449"/>
      <point x="233" y="426" type="qcurve"/>
      <point x="233" y="387"/>
      <point x="222" y="334"/>
      <point x="199" y="299"/>
      <point x="162" y="280"/>
      <point x="137" y="277" type="qcurve"/>
      <point x="129" y="274" type="line"/>
      <point x="137" y="273" type="line"/>
      <point x="188" y="267"/>
      <point x="233" y="201"/>
      <point x="233" y="124" type="qcurve"/>
      <point x="233" y="101"/>
      <point x="232" y="69"/>
      <point x="232" y="44" type="qcurve"/>
      <point x="232" y="25"/>
      <point x="234" y="-11"/>
      <point x="240" y="-39"/>
      <point x="252" y="-60"/>
      <point x="262" y="-64" type="qcurve"/>
      <point x="340" y="-30" type="line"/>
      <point x="376" y="-147" type="line"/>
      <point x="364" y="-152"/>
      <point x="314" y="-162"/>
      <point x="285" y="-162" type="qcurve"/>
      <point x="229" y="-162"/>
      <point x="161" y="-127"/>
      <point x="122" y="-69"/>
      <point x="109" y="7"/>
      <point x="109" y="49" type="qcurve"/>
      <point x="109" y="72"/>
      <point x="113" y="117"/>
      <point x="113" y="140" type="qcurve"/>
      <point x="113" y="163"/>
      <point x="94" y="198"/>
      <point x="62" y="222"/>
      <point x="23" y="234"/>
      <point x="2" y="234" type="qcurve"/>
    </contour>
  </outline>
</glyph>
<glyph name="braceright" format="1">
  <advance width="368"/>
  <unicode hex="007D"/>
  <outline>
    <contour>
      <point x="366" y="234" type="line" name="hr00"/>
      <point x="345" y="234"/>
      <point x="306" y="222"/>
      <point x="274" y="198"/>
      <point x="255" y="163"/>
      <point x="255" y="140" type="qcurve" name="hr01"/>
      <point x="255" y="117"/>
      <point x="259" y="72"/>
      <point x="259" y="49" type="qcurve"/>
      <point x="259" y="7"/>
      <point x="246" y="-69"/>
      <point x="207" y="-127"/>
      <point x="138" y="-162" name="mv01"/>
      <point x="83" y="-162" type="qcurve"/>
      <point x="54" y="-162"/>
      <point x="4" y="-152"/>
      <point x="-9" y="-147" type="qcurve"/>
      <point x="28" y="-30" type="line"/>
      <point x="106" y="-64" type="line"/>
      <point x="125" y="-56"/>
      <point x="136" y="6"/>
      <point x="136" y="44" type="qcurve"/>
      <point x="136" y="69"/>
      <point x="135" y="101"/>
      <point x="135" y="124" type="qcurve"/>
      <point x="135" y="201"/>
      <point x="180" y="267"/>
      <point x="231" y="273" type="qcurve"/>
      <point x="239" y="276" type="line"/>
      <point x="231" y="277" type="line"/>
      <point x="205" y="280"/>
      <point x="169" y="299"/>
      <point x="146" y="334"/>
      <point x="135" y="387"/>
      <point x="135" y="426" type="qcurve"/>
      <point x="135" y="449"/>
      <point x="136" y="483"/>
      <point x="136" y="507" type="qcurve" name="mh01"/>
      <point x="136" y="546"/>
      <point x="126" y="607"/>
      <point x="106" y="615" type="qcurve"/>
      <point x="28" y="582" type="line" name="mv02"/>
      <point x="-9" y="698" type="line"/>
      <point x="4" y="703"/>
      <point x="54" y="713"/>
      <point x="83" y="713" type="qcurve" name="mv03"/>
      <point x="138" y="713" name="mh02"/>
      <point x="207" y="679"/>
      <point x="245" y="621"/>
      <point x="259" y="545"/>
      <point x="259" y="503" type="qcurve" name="mh03"/>
      <point x="259" y="480"/>
      <point x="255" y="432"/>
      <point x="255" y="408" type="qcurve"/>
      <point x="255" y="386"/>
      <point x="274" y="352"/>
      <point x="306" y="328"/>
      <point x="345" y="316"/>
      <point x="366" y="316" type="qcurve" name="hr02"/>
    </contour>
  </outline>
</glyph>
<glyph name="asciitilde" format="1">
  <advance width="436"/>
  <unicode hex="007E"/>
  <outline>
    <contour>
      <point x="343" y="697" type="line" name="mh01"/>
      <point x="424" y="622" type="line" name="hr01"/>
      <point x="413" y="607"/>
      <point x="386" y="579"/>
      <point x="354" y="556"/>
      <point x="320" y="543"/>
      <point x="303" y="543" type="qcurve" name="mv01"/>
      <point x="279" y="543"/>
      <point x="245" y="557"/>
      <point x="215" y="574"/>
      <point x="184" y="588"/>
      <point x="163" y="588" type="qcurve" name="mv02"/>
      <point x="134" y="588"/>
      <point x="100" y="554"/>
      <point x="94" y="534" type="qcurve"/>
      <point x="20" y="579" type="line" name="mv03"/>
      <point x="20" y="597" type="line" name="hr02"/>
      <point x="24" y="609"/>
      <point x="45" y="641" name="mh02"/>
      <point x="77" y="669"/>
      <point x="122" y="689"/>
      <point x="152" y="689" type="qcurve" name="mv04"/>
      <point x="178" y="689"/>
      <point x="222" y="673"/>
      <point x="257" y="655"/>
      <point x="282" y="639" name="mv05"/>
      <point x="289" y="639" type="qcurve" name="hr03"/>
    </contour>
  </outline>
</glyph>
<glyph name="cent" format="1">
  <advance width="438"/>
  <unicode hex="00A2"/>
  <outline>
    <contour>
      <point x="303" y="689" type="line" name="hr00"/>
      <point x="303" y="484" type="line"/>
      <point x="331" y="477"/>
      <point x="370" y="453"/>
      <point x="396" y="427"/>
      <point x="410" y="406"/>
      <point x="412" y="402" type="qcurve"/>
      <point x="291" y="337" type="line"/>
      <point x="248" y="397" type="line"/>
      <point x="202" y="397"/>
      <point x="151" y="311"/>
      <point x="151" y="238" type="qcurve"/>
      <point x="151" y="209"/>
      <point x="164" y="155"/>
      <point x="192" y="115"/>
      <point x="236" y="91"/>
      <point x="267" y="91" type="qcurve"/>
      <point x="288" y="91"/>
      <point x="324" y="102"/>
      <point x="353" y="117"/>
      <point x="373" y="134"/>
      <point x="379" y="139" type="qcurve"/>
      <point x="381" y="132"/>
      <point x="389" y="108"/>
      <point x="397" y="82"/>
      <point x="403" y="58"/>
      <point x="405" y="52" type="qcurve"/>
      <point x="386" y="32"/>
      <point x="334" y="7"/>
      <point x="303" y="1" type="qcurve"/>
      <point x="303" y="-200" type="line"/>
      <point x="182" y="-200" type="line"/>
      <point x="182" y="5" type="line"/>
      <point x="151" y="14"/>
      <point x="95" y="50"/>
      <point x="52" y="106"/>
      <point x="27" y="183"/>
      <point x="27" y="233" type="qcurve"/>
      <point x="27" y="292"/>
      <point x="53" y="379"/>
      <point x="96" y="439"/>
      <point x="152" y="475"/>
      <point x="182" y="483" type="qcurve"/>
      <point x="182" y="689" type="line" name="at01"/>
    </contour>
  </outline>
</glyph>
<glyph name="sterling" format="1">
  <advance width="528"/>
  <unicode hex="00A3"/>
  <outline>
    <contour>
      <point x="283" y="318" type="line" name="hr00"/>
      <point x="278" y="270"/>
      <point x="258" y="179"/>
      <point x="244" y="143" type="qcurve"/>
      <point x="268" y="138"/>
      <point x="314" y="124"/>
      <point x="353" y="111"/>
      <point x="384" y="102"/>
      <point x="393" y="102" type="qcurve"/>
      <point x="429" y="144" type="line"/>
      <point x="498" y="34" type="line"/>
      <point x="478" y="12"/>
      <point x="414" y="-4"/>
      <point x="385" y="-4" type="qcurve"/>
      <point x="352" y="-4"/>
      <point x="293" y="10"/>
      <point x="241" y="27"/>
      <point x="195" y="41"/>
      <point x="176" y="41" type="qcurve"/>
      <point x="141" y="41"/>
      <point x="108" y="13"/>
      <point x="103" y="-4" type="qcurve"/>
      <point x="28" y="3" type="line"/>
      <point x="25" y="48" type="line"/>
      <point x="33" y="66"/>
      <point x="55" y="95"/>
      <point x="67" y="108" type="qcurve"/>
      <point x="107" y="150"/>
      <point x="147" y="260"/>
      <point x="155" y="318" type="qcurve"/>
      <point x="90" y="318" type="line"/>
      <point x="90" y="404" type="line"/>
      <point x="98" y="413" type="line"/>
      <point x="162" y="413" type="line"/>
      <point x="163" y="422"/>
      <point x="163" y="431" type="qcurve"/>
      <point x="163" y="451" type="line"/>
      <point x="163" y="465"/>
      <point x="162" y="494"/>
      <point x="162" y="508" type="qcurve"/>
      <point x="162" y="559"/>
      <point x="192" y="630"/>
      <point x="241" y="673"/>
      <point x="302" y="692"/>
      <point x="333" y="692" type="qcurve"/>
      <point x="357" y="692"/>
      <point x="402" y="680"/>
      <point x="439" y="663"/>
      <point x="466" y="645"/>
      <point x="474" y="639" type="qcurve"/>
      <point x="383" y="538" type="line"/>
      <point x="341" y="586" type="line"/>
      <point x="323" y="586"/>
      <point x="303" y="574"/>
      <point x="294" y="549"/>
      <point x="292" y="511"/>
      <point x="292" y="485" type="qcurve"/>
      <point x="292" y="448" type="line"/>
      <point x="292" y="431"/>
      <point x="291" y="413" type="qcurve"/>
      <point x="416" y="413" type="line"/>
      <point x="423" y="413"/>
      <point x="423" y="405" type="qcurve"/>
      <point x="423" y="318" type="line"/>
    </contour>
  </outline>
</glyph>
<glyph name="currency" format="1">
  <advance width="585"/>
  <unicode hex="00A4"/>
  <outline>
    <contour>
      <point x="97" y="346" type="qcurve" name="hr00"/>
      <point x="97" y="402"/>
      <point x="123" y="446" type="qcurve"/>
      <point x="44" y="525" type="line"/>
      <point x="119" y="600" type="line"/>
      <point x="199" y="519" type="line"/>
      <point x="220" y="530"/>
      <point x="267" y="543"/>
      <point x="293" y="543" type="qcurve" name="mh01"/>
      <point x="319" y="543"/>
      <point x="366" y="530"/>
      <point x="387" y="519" type="qcurve"/>
      <point x="467" y="600" type="line"/>
      <point x="542" y="525" type="line"/>
      <point x="462" y="445" type="line"/>
      <point x="475" y="423"/>
      <point x="489" y="373"/>
      <point x="489" y="346" type="qcurve"/>
      <point x="489" y="294"/>
      <point x="464" y="250" type="qcurve"/>
      <point x="542" y="172" type="line"/>
      <point x="467" y="98" type="line"/>
      <point x="390" y="175" type="line"/>
      <point x="345" y="150"/>
      <point x="293" y="150" type="qcurve"/>
      <point x="240" y="150"/>
      <point x="196" y="175" type="qcurve"/>
      <point x="119" y="98" type="line"/>
      <point x="44" y="172" type="line"/>
      <point x="122" y="250" type="line"/>
      <point x="97" y="294"/>
    </contour>
    <contour>
      <point x="201" y="346" type="qcurve"/>
      <point x="201" y="305"/>
      <point x="251" y="254"/>
      <point x="293" y="254" type="qcurve"/>
      <point x="334" y="254"/>
      <point x="384" y="305"/>
      <point x="384" y="346" type="qcurve"/>
      <point x="384" y="387"/>
      <point x="334" y="438"/>
      <point x="293" y="438" type="qcurve"/>
      <point x="251" y="438"/>
      <point x="201" y="387"/>
    </contour>
  </outline>
</glyph>
<glyph name="section" format="1">
  <advance width="512"/>
  <unicode hex="00A7"/>
  <outline>
    <contour>
      <point x="470" y="249" type="qcurve" name="mh01"/>
      <point x="470" y="217"/>
      <point x="441" y="161"/>
      <point x="418" y="139" type="qcurve"/>
      <point x="442" y="116"/>
      <point x="463" y="64"/>
      <point x="463" y="30" type="qcurve"/>
      <point x="463" y="-23"/>
      <point x="422" y="-95"/>
      <point x="355" y="-141"/>
      <point x="269" y="-161"/>
      <point x="223" y="-161" type="qcurve" name="mv01"/>
      <point x="165" y="-161"/>
      <point x="73" y="-135"/>
      <point x="32" y="-119" type="qcurve"/>
      <point x="52" y="75" type="line"/>
      <point x="136" y="67" type="line"/>
      <point x="145" y="-54" type="line"/>
      <point x="165" y="-59"/>
      <point x="202" y="-66"/>
      <point x="228" y="-66" type="qcurve"/>
      <point x="272" y="-66"/>
      <point x="327" y="-32"/>
      <point x="327" y="3" type="qcurve"/>
      <point x="327" y="31"/>
      <point x="286" y="68"/>
      <point x="225" y="98" name="mv02"/>
      <point x="153" y="128"/>
      <point x="92" y="171"/>
      <point x="51" y="231"/>
      <point x="51" y="276" type="qcurve" name="mh02"/>
      <point x="51" y="311"/>
      <point x="83" y="366"/>
      <point x="108" y="387" type="qcurve"/>
      <point x="83" y="410"/>
      <point x="52" y="470"/>
      <point x="52" y="512" type="qcurve" name="mh03"/>
      <point x="52" y="550"/>
      <point x="83" y="616"/>
      <point x="140" y="664"/>
      <point x="220" y="692"/>
      <point x="268" y="692" type="qcurve" name="mv03"/>
      <point x="322" y="692"/>
      <point x="418" y="676"/>
      <point x="457" y="665" type="qcurve"/>
      <point x="472" y="474" type="line"/>
      <point x="388" y="474" type="line"/>
      <point x="343" y="589" type="line"/>
      <point x="330" y="592"/>
      <point x="293" y="597"/>
      <point x="273" y="597" type="qcurve" name="mv04"/>
      <point x="231" y="597"/>
      <point x="189" y="558"/>
      <point x="189" y="530" type="qcurve"/>
      <point x="189" y="507"/>
      <point x="212" y="475"/>
      <point x="251" y="450"/>
      <point x="304" y="426"/>
      <point x="335" y="412" type="qcurve"/>
      <point x="377" y="392"/>
      <point x="430" y="353"/>
      <point x="459" y="313"/>
      <point x="470" y="271"/>
    </contour>
    <contour>
      <point x="267" y="303" type="qcurve" name="mh04"/>
      <point x="253" y="309" name="mv05"/>
      <point x="220" y="323"/>
      <point x="202" y="331" type="qcurve" name="av01"/>
      <point x="187" y="314"/>
      <point x="187" y="292" type="qcurve"/>
      <point x="187" y="276"/>
      <point x="211" y="252"/>
      <point x="249" y="232" name="mh05"/>
      <point x="293" y="215"/>
      <point x="314" y="205" type="qcurve" name="av02"/>
      <point x="316" y="203"/>
      <point x="317" y="203" type="qcurve"/>
      <point x="324" y="210"/>
      <point x="334" y="227"/>
      <point x="334" y="237" type="qcurve"/>
      <point x="334" y="259"/>
      <point x="301" y="286"/>
    </contour>
  </outline>
</glyph>
<glyph name="dieresis" format="1">
  <advance width="417"/>
  <unicode hex="00A8"/>
  <outline>
    <contour>
      <point x="52" y="531" type="curve" smooth="yes" name="hr00"/>
      <point x="52" y="493"/>
      <point x="83" y="463"/>
      <point x="120" y="463" type="curve" smooth="yes"/>
      <point x="158" y="463"/>
      <point x="189" y="493"/>
      <point x="189" y="531" type="curve" smooth="yes"/>
      <point x="189" y="569"/>
      <point x="158" y="600"/>
      <point x="120" y="600" type="curve" smooth="yes"/>
      <point x="83" y="600"/>
      <point x="52" y="569"/>
    </contour>
    <contour>
      <point x="230" y="531" type="curve" smooth="yes"/>
      <point x="230" y="493"/>
      <point x="260" y="463"/>
      <point x="298" y="463" type="curve" smooth="yes"/>
      <point x="336" y="463"/>
      <point x="365" y="493"/>
      <point x="365" y="531" type="curve" smooth="yes"/>
      <point x="365" y="569"/>
      <point x="336" y="600"/>
      <point x="298" y="600" type="curve" smooth="yes"/>
      <point x="260" y="600"/>
      <point x="230" y="569"/>
    </contour>
  </outline>
</glyph>
<glyph name="copyright" format="1">
  <advance width="752"/>
  <unicode hex="00A9"/>
  <outline>
    <contour>
      <point x="30" y="373" type="qcurve" name="hr00"/>
      <point x="30" y="444"/>
      <point x="84" y="570"/>
      <point x="178" y="664"/>
      <point x="304" y="719"/>
      <point x="375" y="719" type="qcurve"/>
      <point x="446" y="719"/>
      <point x="572" y="664"/>
      <point x="667" y="570"/>
      <point x="722" y="444"/>
      <point x="722" y="373" type="qcurve"/>
      <point x="722" y="302"/>
      <point x="667" y="176"/>
      <point x="572" y="82"/>
      <point x="446" y="27"/>
      <point x="375" y="27" type="qcurve"/>
      <point x="304" y="27"/>
      <point x="178" y="82"/>
      <point x="84" y="176"/>
      <point x="30" y="302"/>
    </contour>
    <contour>
      <point x="160" y="374" type="qcurve"/>
      <point x="160" y="329"/>
      <point x="194" y="250"/>
      <point x="253" y="191"/>
      <point x="332" y="157"/>
      <point x="376" y="157" type="qcurve"/>
      <point x="421" y="157"/>
      <point x="499" y="191"/>
      <point x="557" y="250"/>
      <point x="591" y="329"/>
      <point x="591" y="374" type="qcurve"/>
      <point x="591" y="418"/>
      <point x="557" y="496"/>
      <point x="499" y="555"/>
      <point x="421" y="589"/>
      <point x="376" y="589" type="qcurve"/>
      <point x="332" y="589"/>
      <point x="253" y="555"/>
      <point x="194" y="496"/>
      <point x="160" y="418"/>
    </contour>
    <contour>
      <point x="482" y="220" type="line"/>
      <point x="465" y="209"/>
      <point x="417" y="191"/>
      <point x="388" y="191" type="qcurve"/>
      <point x="350" y="191"/>
      <point x="283" y="217"/>
      <point x="232" y="264"/>
      <point x="203" y="330"/>
      <point x="203" y="371" type="qcurve"/>
      <point x="203" y="416"/>
      <point x="233" y="486"/>
      <point x="283" y="534"/>
      <point x="350" y="558"/>
      <point x="387" y="558" type="qcurve"/>
      <point x="410" y="558"/>
      <point x="443" y="554"/>
      <point x="454" y="552" type="qcurve"/>
      <point x="463" y="413" type="line"/>
      <point x="408" y="413" type="line"/>
      <point x="393" y="459" type="line"/>
      <point x="388" y="460"/>
      <point x="384" y="460" type="qcurve"/>
      <point x="377" y="460" type="line"/>
      <point x="337" y="460"/>
      <point x="297" y="411"/>
      <point x="297" y="373" type="qcurve"/>
      <point x="297" y="336"/>
      <point x="350" y="289"/>
      <point x="384" y="289" type="qcurve"/>
      <point x="403" y="289"/>
      <point x="435" y="300"/>
      <point x="447" y="306" type="qcurve"/>
    </contour>
  </outline>
</glyph>
<glyph name="ordfeminine" format="1">
  <advance width="385"/>
  <unicode hex="00AA"/>
  <outline>
    <contour>
      <point x="320" y="591" type="curve" name="hr00"/>
      <point x="320" y="664"/>
      <point x="286" y="724"/>
      <point x="176" y="724" type="curve" smooth="yes"/>
      <point x="120" y="724"/>
      <point x="57" y="707"/>
      <point x="33" y="643" type="curve"/>
      <point x="146" y="617" type="line"/>
      <point x="155" y="640" type="line"/>
      <point x="164" y="645"/>
      <point x="171" y="645"/>
      <point x="177" y="645" type="curve" smooth="yes" name="hr01"/>
      <point x="202" y="645"/>
      <point x="209" y="623"/>
      <point x="209" y="610" type="curve" smooth="yes"/>
      <point x="209" y="598" type="line"/>
      <point x="133" y="597"/>
      <point x="32" y="585"/>
      <point x="32" y="495" type="curve" smooth="yes"/>
      <point x="32" y="432"/>
      <point x="92" y="401"/>
      <point x="138" y="401" type="curve" smooth="yes"/>
      <point x="180" y="401"/>
      <point x="210" y="415"/>
      <point x="228" y="435" type="curve"/>
      <point x="243" y="416"/>
      <point x="264" y="404"/>
      <point x="290" y="404" type="curve" smooth="yes"/>
      <point x="325" y="404"/>
      <point x="351" y="425"/>
      <point x="360" y="433" type="curve"/>
      <point x="342" y="493" type="line"/>
      <point x="339" y="493"/>
      <point x="333" y="491"/>
      <point x="328" y="491" type="curve" smooth="yes"/>
      <point x="321" y="491" type="line"/>
      <point x="319" y="491"/>
      <point x="319" y="496"/>
      <point x="319" y="542" type="curve" smooth="yes"/>
      <point x="319" y="591"/>
    </contour>
    <contour>
      <point x="164" y="482" type="curve" smooth="yes"/>
      <point x="143" y="482"/>
      <point x="136" y="499"/>
      <point x="136" y="510" type="curve" smooth="yes"/>
      <point x="136" y="543"/>
      <point x="176" y="545"/>
      <point x="209" y="545" type="curve"/>
      <point x="209" y="501" type="line"/>
      <point x="201" y="490"/>
      <point x="188" y="482"/>
    </contour>
  </outline>
</glyph>
<glyph name="logicalnot" format="1">
  <advance width="572"/>
  <unicode hex="00AC"/>
  <outline>
    <contour>
      <point x="411" y="260" type="line" name="hr00"/>
      <point x="508" y="260" type="line" smooth="yes"/>
      <point x="513" y="260"/>
      <point x="516" y="262"/>
      <point x="516" y="267" type="curve" smooth="yes"/>
      <point x="516" y="467" type="line"/>
      <point x="503" y="480" type="line"/>
      <point x="51" y="480" type="line"/>
      <point x="41" y="468" type="line"/>
      <point x="41" y="375" type="line" name="hr01"/>
      <point x="411" y="375" type="line"/>
    </contour>
  </outline>
</glyph>
<glyph name="registered" format="1">
  <advance width="752"/>
  <unicode hex="00AE"/>
  <outline>
    <contour>
      <point x="30" y="373" type="qcurve" name="hr00"/>
      <point x="30" y="444"/>
      <point x="84" y="570"/>
      <point x="178" y="664"/>
      <point x="304" y="719"/>
      <point x="375" y="719" type="qcurve"/>
      <point x="446" y="719"/>
      <point x="572" y="664"/>
      <point x="667" y="570"/>
      <point x="722" y="444"/>
      <point x="722" y="373" type="qcurve"/>
      <point x="722" y="302"/>
      <point x="667" y="176"/>
      <point x="572" y="82"/>
      <point x="446" y="27"/>
      <point x="375" y="27" type="qcurve"/>
      <point x="304" y="27"/>
      <point x="178" y="82"/>
      <point x="84" y="176"/>
      <point x="30" y="302"/>
    </contour>
    <contour>
      <point x="160" y="374" type="qcurve"/>
      <point x="160" y="329"/>
      <point x="194" y="250"/>
      <point x="253" y="191"/>
      <point x="332" y="157"/>
      <point x="376" y="157" type="qcurve"/>
      <point x="421" y="157"/>
      <point x="499" y="191"/>
      <point x="557" y="250"/>
      <point x="591" y="329"/>
      <point x="591" y="374" type="qcurve"/>
      <point x="591" y="418"/>
      <point x="557" y="496"/>
      <point x="499" y="555"/>
      <point x="421" y="589"/>
      <point x="376" y="589" type="qcurve"/>
      <point x="332" y="589"/>
      <point x="253" y="555"/>
      <point x="194" y="496"/>
      <point x="160" y="418"/>
    </contour>
    <contour>
      <point x="247" y="259" type="line"/>
      <point x="267" y="267" type="line"/>
      <point x="267" y="469" type="line"/>
      <point x="257" y="470"/>
      <point x="250" y="471"/>
      <point x="246" y="472" type="qcurve"/>
      <point x="246" y="540" type="line"/>
      <point x="353" y="540" type="line"/>
      <point x="398" y="540"/>
      <point x="458" y="520"/>
      <point x="495" y="487"/>
      <point x="510" y="445"/>
      <point x="510" y="423" type="qcurve"/>
      <point x="510" y="361"/>
      <point x="462" y="331" type="qcurve"/>
      <point x="485" y="269" type="line"/>
      <point x="512" y="265" type="line"/>
      <point x="512" y="208" type="line"/>
      <point x="413" y="208" type="line"/>
      <point x="383" y="307" type="line"/>
      <point x="374" y="306"/>
      <point x="365" y="306" type="qcurve"/>
      <point x="346" y="306" type="line"/>
      <point x="346" y="268" type="line"/>
      <point x="387" y="257" type="line"/>
      <point x="387" y="208" type="line"/>
      <point x="249" y="208" type="line"/>
    </contour>
    <contour>
      <point x="346" y="379" type="line"/>
      <point x="372" y="379"/>
      <point x="404" y="386"/>
      <point x="421" y="398"/>
      <point x="426" y="414"/>
      <point x="426" y="423" type="qcurve"/>
      <point x="426" y="442"/>
      <point x="394" y="466"/>
      <point x="346" y="466" type="qcurve"/>
    </contour>
  </outline>
</glyph>
<glyph name="degree" format="1">
  <advance width="346"/>
  <unicode hex="00B0"/>
  <outline>
    <contour>
      <point x="28" y="564" type="qcurve" name="hr00"/>
      <point x="28" y="598"/>
      <point x="49" y="657"/>
      <point x="87" y="700"/>
      <point x="140" y="724"/>
      <point x="172" y="724" type="qcurve"/>
      <point x="204" y="724"/>
      <point x="258" y="700"/>
      <point x="297" y="657"/>
      <point x="318" y="598"/>
      <point x="318" y="564" type="qcurve"/>
      <point x="318" y="528"/>
      <point x="297" y="468"/>
      <point x="258" y="425"/>
      <point x="204" y="401"/>
      <point x="172" y="401" type="qcurve"/>
      <point x="107" y="401"/>
      <point x="28" y="491"/>
    </contour>
    <contour>
      <point x="133" y="564" type="qcurve"/>
      <point x="133" y="556"/>
      <point x="135" y="531"/>
      <point x="142" y="508"/>
      <point x="158" y="491"/>
      <point x="172" y="491" type="qcurve"/>
      <point x="186" y="491"/>
      <point x="202" y="508"/>
      <point x="211" y="531"/>
      <point x="213" y="556"/>
      <point x="213" y="564" type="qcurve"/>
      <point x="213" y="572"/>
      <point x="211" y="595"/>
      <point x="202" y="617"/>
      <point x="186" y="633"/>
      <point x="172" y="633" type="qcurve"/>
      <point x="158" y="633"/>
      <point x="142" y="617"/>
      <point x="135" y="595"/>
      <point x="133" y="572"/>
    </contour>
  </outline>
</glyph>
<glyph name="plusminus" format="1">
  <advance width="453"/>
  <unicode hex="00B1"/>
  <outline>
    <contour>
      <point x="177" y="517" type="line" name="hr00"/>
      <point x="177" y="401" type="line"/>
      <point x="62" y="401" type="line"/>
      <point x="46" y="378" type="line"/>
      <point x="46" y="304" type="line"/>
      <point x="177" y="304" type="line"/>
      <point x="177" y="187" type="line"/>
      <point x="271" y="187" type="line"/>
      <point x="271" y="304" type="line"/>
      <point x="404" y="304" type="line"/>
      <point x="404" y="401" type="line"/>
      <point x="271" y="401" type="line"/>
      <point x="271" y="517" type="line"/>
    </contour>
    <contour>
      <point x="404" y="148" type="line"/>
      <point x="62" y="148" type="line"/>
      <point x="46" y="125" type="line"/>
      <point x="46" y="51" type="line"/>
      <point x="404" y="51" type="line"/>
    </contour>
  </outline>
</glyph>
<glyph name="twosuperior" format="1">
  <advance width="336"/>
  <unicode hex="00B2"/>
  <outline>
    <contour>
      <point x="58" y="402" type="line" name="hr00"/>
      <point x="41" y="461" type="line"/>
      <point x="50" y="471"/>
      <point x="98" y="509"/>
      <point x="147" y="553"/>
      <point x="185" y="600"/>
      <point x="185" y="619" type="qcurve"/>
      <point x="185" y="639"/>
      <point x="164" y="651"/>
      <point x="153" y="651" type="qcurve"/>
      <point x="148" y="651"/>
      <point x="144" y="650" type="qcurve"/>
      <point x="136" y="648" type="line"/>
      <point x="116" y="607" type="line"/>
      <point x="27" y="635" type="line"/>
      <point x="36" y="658"/>
      <point x="67" y="693"/>
      <point x="105" y="716"/>
      <point x="149" y="728"/>
      <point x="170" y="728" type="qcurve"/>
      <point x="190" y="728"/>
      <point x="232" y="716"/>
      <point x="267" y="692"/>
      <point x="290" y="654"/>
      <point x="290" y="627" type="qcurve"/>
      <point x="290" y="595"/>
      <point x="261" y="546"/>
      <point x="221" y="510"/>
      <point x="180" y="485"/>
      <point x="168" y="477" type="qcurve"/>
      <point x="225" y="477" type="line"/>
      <point x="243" y="513" type="line"/>
      <point x="296" y="513" type="line"/>
      <point x="285" y="402" type="line"/>
    </contour>
  </outline>
</glyph>
<glyph name="threesuperior" format="1">
  <advance width="323"/>
  <unicode hex="00B3"/>
  <outline>
    <contour>
      <point x="62" y="511" type="line" name="hr00"/>
      <point x="76" y="497"/>
      <point x="118" y="476"/>
      <point x="145" y="476" type="qcurve"/>
      <point x="163" y="476"/>
      <point x="185" y="494"/>
      <point x="185" y="508" type="qcurve"/>
      <point x="185" y="525"/>
      <point x="158" y="540"/>
      <point x="112" y="540" type="qcurve"/>
      <point x="112" y="592" type="line"/>
      <point x="134" y="592"/>
      <point x="160" y="599"/>
      <point x="174" y="610"/>
      <point x="178" y="624"/>
      <point x="178" y="630" type="qcurve"/>
      <point x="178" y="639"/>
      <point x="163" y="652"/>
      <point x="152" y="652" type="qcurve"/>
      <point x="142" y="652"/>
      <point x="133" y="649"/>
      <point x="129" y="648" type="qcurve"/>
      <point x="114" y="621" type="line"/>
      <point x="31" y="650" type="line"/>
      <point x="48" y="691"/>
      <point x="123" y="728"/>
      <point x="167" y="728" type="qcurve"/>
      <point x="190" y="728"/>
      <point x="232" y="715"/>
      <point x="264" y="691"/>
      <point x="283" y="659"/>
      <point x="283" y="640" type="qcurve"/>
      <point x="283" y="606"/>
      <point x="248" y="575"/>
      <point x="229" y="570" type="qcurve"/>
      <point x="237" y="568"/>
      <point x="248" y="564" type="qcurve"/>
      <point x="259" y="560"/>
      <point x="277" y="543"/>
      <point x="290" y="516"/>
      <point x="290" y="497" type="qcurve"/>
      <point x="290" y="470"/>
      <point x="266" y="433"/>
      <point x="226" y="411"/>
      <point x="174" y="402"/>
      <point x="147" y="402" type="qcurve"/>
      <point x="107" y="402"/>
      <point x="41" y="431"/>
      <point x="28" y="443" type="qcurve"/>
    </contour>
  </outline>
</glyph>
<glyph name="acute" format="1">
  <advance width="348"/>
  <unicode hex="00B4"/>
  <outline>
    <contour>
      <point x="99" y="459" type="line" name="hr00"/>
      <point x="296" y="583" type="line"/>
      <point x="218" y="692" type="line"/>
      <point x="181" y="677" type="line"/>
      <point x="52" y="513" type="line"/>
    </contour>
  </outline>
</glyph>
<glyph name="mu" format="1">
  <advance width="562"/>
  <unicode hex="00B5"/>
  <unicode hex="03BC"/>
  <outline>
    <contour>
      <point x="88" y="-274" type="line" name="hr00"/>
      <point x="88" y="398" type="line"/>
      <point x="35" y="398" type="line"/>
      <point x="25" y="465" type="line"/>
      <point x="175" y="492" type="line"/>
      <point x="209" y="458" type="line"/>
      <point x="209" y="151" type="line"/>
      <point x="213" y="121"/>
      <point x="249" y="92"/>
      <point x="276" y="92" type="qcurve" name="mh01"/>
      <point x="303" y="92"/>
      <point x="349" y="124"/>
      <point x="357" y="144" type="qcurve"/>
      <point x="357" y="401" type="line"/>
      <point x="312" y="398" type="line"/>
      <point x="301" y="465" type="line"/>
      <point x="443" y="492" type="line"/>
      <point x="478" y="454" type="line"/>
      <point x="478" y="105" type="line"/>
      <point x="478" y="91"/>
      <point x="488" y="83"/>
      <point x="494" y="83" type="qcurve"/>
      <point x="499" y="83"/>
      <point x="506" y="85"/>
      <point x="508" y="85" type="qcurve"/>
      <point x="527" y="29" type="line"/>
      <point x="521" y="22"/>
      <point x="481" y="-4"/>
      <point x="450" y="-4" type="qcurve"/>
      <point x="424" y="-4"/>
      <point x="381" y="17"/>
      <point x="369" y="43" type="qcurve"/>
      <point x="346" y="18"/>
      <point x="290" y="-4"/>
      <point x="262" y="-4" type="qcurve"/>
      <point x="248" y="-4"/>
      <point x="219" y="0"/>
      <point x="205" y="3" type="qcurve"/>
      <point x="207" y="-9"/>
      <point x="209" y="-33"/>
      <point x="209" y="-41" type="qcurve"/>
      <point x="209" y="-274" type="line"/>
    </contour>
  </outline>
</glyph>
<glyph name="paragraph" format="1">
  <advance width="656"/>
  <unicode hex="00B6"/>
  <outline>
    <contour>
      <point x="561" y="0" type="line" name="hr00"/>
      <point x="561" y="591" type="line"/>
      <point x="595" y="591" type="line"/>
      <point x="595" y="691" type="line"/>
      <point x="246" y="691" type="line" smooth="yes"/>
      <point x="85" y="691"/>
      <point x="27" y="586"/>
      <point x="27" y="500" type="curve" smooth="yes"/>
      <point x="27" y="384"/>
      <point x="114" y="302"/>
      <point x="259" y="299" type="curve"/>
      <point x="259" y="130" type="line"/>
      <point x="197" y="88" type="line"/>
      <point x="277" y="-17" type="line" name="hr01"/>
      <point x="329" y="16"/>
      <point x="377" y="64"/>
      <point x="377" y="104" type="curve" smooth="yes"/>
      <point x="377" y="591" type="line"/>
      <point x="430" y="591" type="line"/>
      <point x="430" y="0" type="line" name="hr02"/>
    </contour>
  </outline>
</glyph>
<glyph name="ordmasculine" format="1">
  <advance width="354"/>
  <unicode hex="00BA"/>
  <outline>
    <contour>
      <point x="30" y="563" type="curve" smooth="yes" name="hr00"/>
      <point x="30" y="454"/>
      <point x="87" y="399"/>
      <point x="176" y="399" type="curve" smooth="yes"/>
      <point x="265" y="399"/>
      <point x="324" y="454"/>
      <point x="324" y="563" type="curve" smooth="yes"/>
      <point x="324" y="674"/>
      <point x="265" y="726"/>
      <point x="176" y="726" type="curve" smooth="yes"/>
      <point x="87" y="726"/>
      <point x="30" y="674"/>
    </contour>
    <contour>
      <point x="135" y="561" type="curve" smooth="yes"/>
      <point x="135" y="602"/>
      <point x="139" y="632"/>
      <point x="176" y="632" type="curve" smooth="yes"/>
      <point x="213" y="632"/>
      <point x="219" y="602"/>
      <point x="219" y="561" type="curve" smooth="yes"/>
      <point x="219" y="519"/>
      <point x="213" y="492"/>
      <point x="176" y="492" type="curve" smooth="yes"/>
      <point x="139" y="492"/>
      <point x="135" y="519"/>
    </contour>
  </outline>
</glyph>
<glyph name="guillemotright" format="1">
  <advance width="469"/>
  <unicode hex="00BB"/>
  <outline>
    <contour>
      <point x="189" y="486" type="line" name="hr00"/>
      <point x="337" y="337" type="line"/>
      <point x="190" y="190" type="line"/>
      <point x="256" y="123" type="line"/>
      <point x="469" y="337" type="line"/>
      <point x="256" y="553" type="line"/>
    </contour>
    <contour>
      <point x="33" y="465" type="line"/>
      <point x="160" y="337" type="line"/>
      <point x="34" y="211" type="line"/>
      <point x="100" y="144" type="line"/>
      <point x="293" y="337" type="line"/>
      <point x="100" y="532" type="line"/>
    </contour>
  </outline>
</glyph>
<glyph name="onehalf" format="1">
  <advance width="784"/>
  <unicode hex="00BD"/>
  <outline>
    <contour>
      <point x="472" y="-1" type="line" name="hr00"/>
      <point x="453" y="68" type="line"/>
      <point x="460" y="77"/>
      <point x="491" y="109"/>
      <point x="529" y="149"/>
      <point x="569" y="192"/>
      <point x="601" y="234"/>
      <point x="622" y="269"/>
      <point x="622" y="280" type="qcurve"/>
      <point x="622" y="291"/>
      <point x="609" y="304"/>
      <point x="598" y="304" type="qcurve"/>
      <point x="585" y="304" name="mh01"/>
      <point x="580" y="302" type="qcurve"/>
      <point x="562" y="249" type="line" name="mh02"/>
      <point x="445" y="294" type="line" name="mh03"/>
      <point x="471" y="350" name="mh04"/>
      <point x="555" y="399"/>
      <point x="598" y="399" type="qcurve"/>
      <point x="625" y="399"/>
      <point x="677" y="388"/>
      <point x="716" y="362" name="mv01"/>
      <point x="740" y="317"/>
      <point x="740" y="284" type="qcurve" name="mh05"/>
      <point x="740" y="256" name="mh06"/>
      <point x="709" y="194"/>
      <point x="667" y="139" name="mh07"/>
      <point x="624" y="97"/>
      <point x="612" y="88" type="qcurve" name="mh08"/>
      <point x="679" y="88" type="line" name="mh09"/>
      <point x="703" y="149" type="line" name="mh10"/>
      <point x="755" y="149" type="line"/>
      <point x="739" y="-1" type="line" name="mh11"/>
    </contour>
    <contour>
      <point x="263" y="0" type="line" name="mh12"/>
      <point x="138" y="0" type="line"/>
      <point x="135" y="13" type="line"/>
      <point x="453" y="691" type="line" name="mh13"/>
      <point x="581" y="691" type="line" name="mv02"/>
      <point x="580" y="677" type="line" name="mh14"/>
    </contour>
    <contour>
      <point x="45" y="371" type="line"/>
      <point x="91" y="378" type="line"/>
      <point x="91" y="608" type="line"/>
      <point x="37" y="600" type="line"/>
      <point x="29" y="666" type="line"/>
      <point x="193" y="714" type="line" name="mh15"/>
      <point x="206" y="702" type="line"/>
      <point x="206" y="381" type="line"/>
      <point x="244" y="373" type="line"/>
      <point x="244" y="315" type="line" name="mh16"/>
      <point x="45" y="315" type="line" name="mh17"/>
    </contour>
  </outline>
</glyph>
<glyph name="threequarters" format="1">
  <advance width="805"/>
  <unicode hex="00BE"/>
  <outline>
    <contour>
      <point x="317" y="0" type="line" name="mh01"/>
      <point x="192" y="0" type="line" name="mh02"/>
      <point x="189" y="13" type="line"/>
      <point x="507" y="691" type="line" name="mv01"/>
      <point x="635" y="691" type="line" name="mh03"/>
      <point x="634" y="677" type="line" name="mh04"/>
    </contour>
    <contour>
      <point x="771" y="101" type="line"/>
      <point x="726" y="101" type="line"/>
      <point x="726" y="66" type="line"/>
      <point x="772" y="58" type="line"/>
      <point x="772" y="0" type="line"/>
      <point x="532" y="0" type="line" name="hr01"/>
      <point x="526" y="49" type="line"/>
      <point x="610" y="63" type="line"/>
      <point x="610" y="101" type="line"/>
      <point x="440" y="101" type="line"/>
      <point x="440" y="181" type="line"/>
      <point x="617" y="400" type="line"/>
      <point x="726" y="400" type="line"/>
      <point x="726" y="185" type="line"/>
      <point x="771" y="185" type="line"/>
    </contour>
    <contour>
      <point x="332" y="607" type="qcurve"/>
      <point x="332" y="579"/>
      <point x="306" y="532"/>
      <point x="283" y="523" type="qcurve"/>
      <point x="291" y="518"/>
      <point x="310" y="506"/>
      <point x="327" y="487"/>
      <point x="339" y="460"/>
      <point x="339" y="441" type="qcurve"/>
      <point x="339" y="408"/>
      <point x="313" y="360"/>
      <point x="268" y="328"/>
      <point x="208" y="313"/>
      <point x="174" y="313" type="qcurve"/>
      <point x="121" y="313"/>
      <point x="53" y="348"/>
      <point x="37" y="363" type="qcurve"/>
      <point x="94" y="444" type="line"/>
      <point x="114" y="425"/>
      <point x="158" y="407"/>
      <point x="173" y="407" type="qcurve" name="hr02"/>
      <point x="187" y="407"/>
      <point x="217" y="423"/>
      <point x="217" y="443" type="qcurve"/>
      <point x="217" y="463"/>
      <point x="192" y="482"/>
      <point x="162" y="482" type="qcurve"/>
      <point x="157" y="482"/>
      <point x="148" y="481"/>
      <point x="143" y="481" type="qcurve"/>
      <point x="143" y="554" type="line" name="hr03"/>
      <point x="147" y="554"/>
      <point x="154" y="553"/>
      <point x="158" y="553" type="qcurve"/>
      <point x="215" y="553"/>
      <point x="215" y="589" type="qcurve"/>
      <point x="215" y="601"/>
      <point x="196" y="621"/>
      <point x="177" y="621" type="qcurve"/>
      <point x="166" y="621"/>
      <point x="156" y="617"/>
      <point x="152" y="615" type="qcurve" name="hr04"/>
      <point x="134" y="565" type="line" name="mh05"/>
      <point x="26" y="605" type="line"/>
      <point x="35" y="633"/>
      <point x="70" y="674"/>
      <point x="114" y="701"/>
      <point x="165" y="715"/>
      <point x="191" y="715" type="qcurve" name="mh06"/>
      <point x="219" y="715"/>
      <point x="270" y="704"/>
      <point x="309" y="679"/>
      <point x="332" y="637"/>
    </contour>
    <contour>
      <point x="610" y="185" type="line"/>
      <point x="610" y="269" type="line"/>
      <point x="536" y="185" type="line"/>
    </contour>
  </outline>
</glyph>
<glyph name="Atilde" format="1">
  <advance width="621"/>
  <unicode hex="00C3"/>
  <outline>
    <contour>
      <point x="433" y="881" type="line" name="hr02"/>
      <point x="514" y="805" type="line"/>
      <point x="492" y="775"/>
      <point x="426" y="727"/>
      <point x="391" y="727" type="qcurve"/>
      <point x="368" y="727"/>
      <point x="335" y="741"/>
      <point x="305" y="758"/>
      <point x="274" y="772"/>
      <point x="253" y="772" type="qcurve"/>
      <point x="224" y="772"/>
      <point x="190" y="737"/>
      <point x="184" y="718" type="qcurve" name="hr01"/>
      <point x="110" y="762" type="line"/>
      <point x="110" y="781" type="line"/>
      <point x="114" y="793"/>
      <point x="135" y="825"/>
      <point x="167" y="853"/>
      <point x="212" y="873"/>
      <point x="242" y="873" type="qcurve"/>
      <point x="268" y="873"/>
      <point x="312" y="857"/>
      <point x="347" y="839"/>
      <point x="372" y="823"/>
      <point x="379" y="823" type="qcurve"/>
    </contour>
    <contour>
      <point x="349" y="0" type="line"/>
      <point x="349" y="75" type="line"/>
      <point x="429" y="96" type="line"/>
      <point x="393" y="218" type="line"/>
      <point x="197" y="218" type="line"/>
      <point x="159" y="92" type="line"/>
      <point x="247" y="76" type="line"/>
      <point x="247" y="0" type="line"/>
      <point x="8" y="0" type="line"/>
      <point x="-5" y="78" type="line"/>
      <point x="50" y="96" type="line"/>
      <point x="248" y="691" type="line" name="mh01"/>
      <point x="372" y="691" type="line"/>
      <point x="573" y="96" type="line"/>
      <point x="619" y="78" type="line"/>
      <point x="609" y="0" type="line"/>
    </contour>
    <contour>
      <point x="228" y="323" type="line"/>
      <point x="349" y="323" type="line"/>
      <point x="296" y="549" type="line"/>
    </contour>
  </outline>
</glyph>
<glyph name="Aring" format="1">
  <advance width="617"/>
  <unicode hex="00C5"/>
  <outline>
    <contour>
      <point x="347" y="0" type="line" name="hr00"/>
      <point x="347" y="75" type="line"/>
      <point x="427" y="96" type="line"/>
      <point x="391" y="218" type="line"/>
      <point x="195" y="218" type="line"/>
      <point x="157" y="92" type="line"/>
      <point x="245" y="76" type="line"/>
      <point x="245" y="0" type="line"/>
      <point x="6" y="0" type="line"/>
      <point x="-7" y="78" type="line"/>
      <point x="48" y="96" type="line"/>
      <point x="234" y="656" type="line"/>
      <point x="216" y="670"/>
      <point x="195" y="714"/>
      <point x="195" y="740" type="qcurve"/>
      <point x="195" y="762"/>
      <point x="211" y="801"/>
      <point x="240" y="830"/>
      <point x="278" y="846"/>
      <point x="301" y="846" type="qcurve" name="mh01"/>
      <point x="323" y="846"/>
      <point x="362" y="830"/>
      <point x="390" y="801"/>
      <point x="407" y="762"/>
      <point x="407" y="740" type="qcurve"/>
      <point x="407" y="718"/>
      <point x="392" y="680"/>
      <point x="378" y="666" type="qcurve"/>
      <point x="571" y="96" type="line"/>
      <point x="617" y="78" type="line"/>
      <point x="607" y="0" type="line"/>
    </contour>
    <contour>
      <point x="226" y="323" type="line"/>
      <point x="347" y="323" type="line"/>
      <point x="294" y="549" type="line"/>
    </contour>
    <contour>
      <point x="262" y="740" type="qcurve"/>
      <point x="262" y="722"/>
      <point x="282" y="701"/>
      <point x="301" y="701" type="qcurve"/>
      <point x="319" y="701"/>
      <point x="339" y="722"/>
      <point x="339" y="740" type="qcurve"/>
      <point x="339" y="758"/>
      <point x="319" y="779"/>
      <point x="301" y="779" type="qcurve"/>
      <point x="282" y="779"/>
      <point x="262" y="758"/>
    </contour>
  </outline>
</glyph>
<glyph name="Ccedilla" format="1">
  <advance width="589"/>
  <unicode hex="00C7"/>
  <outline>
    <contour>
      <point x="272" y="-82" type="line" name="hr00"/>
      <point x="301" y="1" type="line"/>
      <point x="244" y="10"/>
      <point x="146" y="61"/>
      <point x="72" y="145"/>
      <point x="30" y="260"/>
      <point x="30" y="334" type="qcurve" name="mh01"/>
      <point x="30" y="422"/>
      <point x="87" y="555"/>
      <point x="180" y="645"/>
      <point x="298" y="691"/>
      <point x="360" y="691" type="qcurve" name="mh02"/>
      <point x="427" y="691"/>
      <point x="512" y="672"/>
      <point x="529" y="667" type="qcurve"/>
      <point x="549" y="460" type="line"/>
      <point x="468" y="460" type="line"/>
      <point x="447" y="506"/>
      <point x="425" y="556"/>
      <point x="414" y="580"/>
      <point x="410" y="584"/>
      <point x="409" y="584" type="qcurve"/>
      <point x="402" y="585"/>
      <point x="386" y="586"/>
      <point x="370" y="586" type="qcurve"/>
      <point x="328" y="586"/>
      <point x="254" y="553"/>
      <point x="199" y="491"/>
      <point x="166" y="403"/>
      <point x="166" y="348" type="qcurve"/>
      <point x="166" y="294"/>
      <point x="195" y="203"/>
      <point x="249" y="138"/>
      <point x="325" y="101"/>
      <point x="372" y="101" type="qcurve" name="mh03"/>
      <point x="413" y="101"/>
      <point x="495" y="131"/>
      <point x="524" y="160" type="qcurve"/>
      <point x="566" y="71" type="line"/>
      <point x="543" y="43"/>
      <point x="454" y="4"/>
      <point x="403" y="-2" type="qcurve" name="mh04"/>
      <point x="391" y="-41" type="line" name="mh05"/>
      <point x="411" y="-45"/>
      <point x="448" y="-62"/>
      <point x="477" y="-89"/>
      <point x="495" y="-129"/>
      <point x="495" y="-156" type="qcurve"/>
      <point x="495" y="-182"/>
      <point x="473" y="-229"/>
      <point x="430" y="-265"/>
      <point x="369" y="-286"/>
      <point x="330" y="-286" type="qcurve" name="hr01"/>
      <point x="288" y="-286"/>
      <point x="227" y="-268"/>
      <point x="202" y="-259" type="qcurve"/>
      <point x="252" y="-162" type="line"/>
      <point x="324" y="-210" type="line"/>
      <point x="331" y="-210"/>
      <point x="353" y="-205"/>
      <point x="373" y="-193"/>
      <point x="387" y="-173"/>
      <point x="387" y="-159" type="qcurve"/>
      <point x="387" y="-136"/>
      <point x="352" y="-102"/>
      <point x="309" y="-102" type="qcurve"/>
      <point x="296" y="-101" type="line"/>
    </contour>
  </outline>
</glyph>
<glyph name="Eacute" format="1">
  <advance width="555"/>
  <unicode hex="00C9"/>
  <outline>
    <contour>
      <point x="497" y="690" type="line" name="mh01"/>
      <point x="516" y="486" type="line" name="mh02"/>
      <point x="438" y="486" type="line"/>
      <point x="397" y="585" type="line"/>
      <point x="235" y="585" type="line" name="mh03"/>
      <point x="235" y="407" type="line"/>
      <point x="387" y="407" type="line" name="mh04"/>
      <point x="387" y="302" type="line" name="mv01"/>
      <point x="235" y="302" type="line"/>
      <point x="235" y="105" type="line" name="mh05"/>
      <point x="404" y="105" type="line"/>
      <point x="441" y="204" type="line" name="mh06"/>
      <point x="520" y="204" type="line" name="hr01"/>
      <point x="499" y="0" type="line"/>
      <point x="53" y="0" type="line" name="hr02"/>
      <point x="39" y="88" type="line"/>
      <point x="104" y="101" type="line"/>
      <point x="104" y="594" type="line" name="mh07"/>
      <point x="41" y="601" type="line"/>
      <point x="41" y="690" type="line" name="mh08"/>
    </contour>
    <contour>
      <point x="205" y="795" type="line"/>
      <point x="334" y="959" type="line"/>
      <point x="371" y="974" type="line" name="hr03"/>
      <point x="449" y="865" type="line"/>
      <point x="252" y="741" type="line" name="mh09"/>
    </contour>
  </outline>
</glyph>
<glyph name="Idieresis" format="1">
  <advance width="348"/>
  <unicode hex="00CF"/>
  <outline>
    <contour>
      <point x="37" y="89" type="line" name="hr00"/>
      <point x="107" y="102" type="line"/>
      <point x="107" y="593" type="line"/>
      <point x="39" y="600" type="line"/>
      <point x="39" y="691" type="line"/>
      <point x="299" y="691" type="line"/>
      <point x="314" y="598" type="line"/>
      <point x="238" y="586" type="line"/>
      <point x="238" y="99" type="line"/>
      <point x="312" y="87" type="line"/>
      <point x="312" y="68" type="line"/>
      <point x="312" y="55"/>
      <point x="311" y="27"/>
      <point x="311" y="15" type="qcurve"/>
      <point x="311" y="0" type="line"/>
      <point x="51" y="0" type="line"/>
    </contour>
    <contour>
      <point x="23" y="804" type="qcurve"/>
      <point x="23" y="833"/>
      <point x="63" y="873"/>
      <point x="91" y="873" type="qcurve"/>
      <point x="120" y="873"/>
      <point x="160" y="833"/>
      <point x="160" y="804" type="qcurve" name="hr01"/>
      <point x="160" y="775"/>
      <point x="120" y="736"/>
      <point x="91" y="736" type="qcurve"/>
      <point x="63" y="736"/>
      <point x="23" y="775"/>
    </contour>
    <contour>
      <point x="201" y="804" type="qcurve"/>
      <point x="201" y="833"/>
      <point x="240" y="873"/>
      <point x="269" y="873" type="qcurve"/>
      <point x="298" y="873"/>
      <point x="336" y="833"/>
      <point x="336" y="804" type="qcurve"/>
      <point x="336" y="775"/>
      <point x="298" y="736"/>
      <point x="269" y="736" type="qcurve"/>
      <point x="240" y="736"/>
      <point x="201" y="775"/>
    </contour>
  </outline>
</glyph>
<glyph name="Eth" format="1">
  <advance width="639"/>
  <unicode hex="00D0"/>
  <outline>
    <contour>
      <point x="41" y="88" type="line" name="hr00"/>
      <point x="106" y="101" type="line"/>
      <point x="106" y="309" type="line"/>
      <point x="14" y="309" type="line"/>
      <point x="14" y="391" type="line"/>
      <point x="28" y="403" type="line"/>
      <point x="106" y="403" type="line"/>
      <point x="106" y="595" type="line"/>
      <point x="43" y="603" type="line"/>
      <point x="43" y="691" type="line" name="mh01"/>
      <point x="222" y="691" type="line"/>
      <point x="313" y="691"/>
      <point x="456" y="649" name="mh02"/>
      <point x="555" y="565"/>
      <point x="608" y="438"/>
      <point x="608" y="354" type="qcurve"/>
      <point x="608" y="185"/>
      <point x="434" y="0"/>
      <point x="265" y="0" type="qcurve"/>
      <point x="48" y="0" type="line"/>
    </contour>
    <contour>
      <point x="237" y="309" type="line"/>
      <point x="237" y="105" type="line"/>
      <point x="242" y="105"/>
      <point x="251" y="104"/>
      <point x="256" y="104" type="qcurve"/>
      <point x="362" y="104"/>
      <point x="472" y="230"/>
      <point x="472" y="351" type="qcurve" name="mh03"/>
      <point x="472" y="470" name="mh04"/>
      <point x="352" y="586"/>
      <point x="237" y="586" type="qcurve"/>
      <point x="237" y="403" type="line" name="mh05"/>
      <point x="362" y="403" type="line"/>
      <point x="369" y="403"/>
      <point x="369" y="396" type="qcurve"/>
      <point x="369" y="309" type="line"/>
    </contour>
  </outline>
</glyph>
<glyph name="Ntilde" format="1">
  <advance width="727"/>
  <unicode hex="00D1"/>
  <outline>
    <contour>
      <point x="211" y="562" type="line" name="hr00"/>
      <point x="211" y="104" type="line"/>
      <point x="262" y="88" type="line"/>
      <point x="262" y="65" type="line"/>
      <point x="262" y="51"/>
      <point x="261" y="24"/>
      <point x="261" y="13" type="qcurve"/>
      <point x="261" y="0" type="line"/>
      <point x="53" y="0" type="line"/>
      <point x="37" y="87" type="line"/>
      <point x="106" y="100" type="line"/>
      <point x="106" y="590" type="line"/>
      <point x="42" y="597" type="line"/>
      <point x="42" y="690" type="line"/>
      <point x="298" y="690" type="line"/>
      <point x="525" y="96" type="line"/>
      <point x="525" y="592" type="line"/>
      <point x="467" y="599" type="line"/>
      <point x="467" y="690" type="line"/>
      <point x="682" y="690" type="line"/>
      <point x="697" y="597" type="line"/>
      <point x="630" y="585" type="line"/>
      <point x="630" y="0" type="line"/>
      <point x="428" y="0" type="line"/>
    </contour>
    <contour>
      <point x="486" y="881" type="line"/>
      <point x="567" y="805" type="line"/>
      <point x="545" y="775"/>
      <point x="479" y="727"/>
      <point x="444" y="727" type="qcurve"/>
      <point x="421" y="727"/>
      <point x="388" y="741"/>
      <point x="358" y="758"/>
      <point x="327" y="772"/>
      <point x="306" y="772" type="qcurve"/>
      <point x="277" y="772"/>
      <point x="243" y="737"/>
      <point x="237" y="718" type="qcurve"/>
      <point x="163" y="762" type="line" name="hr01"/>
      <point x="163" y="781" type="line"/>
      <point x="167" y="793"/>
      <point x="188" y="825"/>
      <point x="220" y="853"/>
      <point x="265" y="873"/>
      <point x="295" y="873" type="qcurve"/>
      <point x="321" y="873"/>
      <point x="365" y="857"/>
      <point x="400" y="839"/>
      <point x="425" y="823"/>
      <point x="432" y="823" type="qcurve"/>
    </contour>
  </outline>
</glyph>
<glyph name="Oacute" format="1">
  <advance width="655"/>
  <unicode hex="00D3"/>
  <outline>
    <contour>
      <point x="328" y="-4" type="qcurve" name="hr00"/>
      <point x="257" y="-4"/>
      <point x="148" y="48"/>
      <point x="74" y="140"/>
      <point x="36" y="268"/>
      <point x="36" y="345" type="qcurve"/>
      <point x="36" y="422"/>
      <point x="74" y="550"/>
      <point x="148" y="642"/>
      <point x="257" y="693"/>
      <point x="328" y="693" type="qcurve" name="mv01"/>
      <point x="399" y="693"/>
      <point x="508" y="642"/>
      <point x="581" y="550"/>
      <point x="619" y="422"/>
      <point x="619" y="345" type="qcurve"/>
      <point x="619" y="268"/>
      <point x="581" y="140"/>
      <point x="508" y="48"/>
      <point x="399" y="-4"/>
    </contour>
    <contour>
      <point x="173" y="343" type="qcurve"/>
      <point x="173" y="292"/>
      <point x="195" y="204"/>
      <point x="235" y="138"/>
      <point x="292" y="101"/>
      <point x="328" y="101" type="qcurve"/>
      <point x="363" y="101"/>
      <point x="420" y="138"/>
      <point x="460" y="204"/>
      <point x="482" y="292"/>
      <point x="482" y="343" type="qcurve"/>
      <point x="482" y="394"/>
      <point x="460" y="484"/>
      <point x="420" y="550"/>
      <point x="363" y="588"/>
      <point x="328" y="588" type="qcurve"/>
      <point x="292" y="588"/>
      <point x="235" y="550"/>
      <point x="195" y="484"/>
      <point x="173" y="394"/>
    </contour>
    <contour>
      <point x="229" y="795" type="line"/>
      <point x="358" y="959" type="line"/>
      <point x="395" y="974" type="line"/>
      <point x="473" y="865" type="line"/>
      <point x="276" y="741" type="line"/>
    </contour>
  </outline>
</glyph>
<glyph name="Ocircumflex" format="1">
  <advance width="655"/>
  <unicode hex="00D4"/>
  <outline>
    <contour>
      <point x="147" y="737" type="line" name="mh01"/>
      <point x="318" y="903" type="line" name="mv01"/>
      <point x="355" y="903" type="line"/>
      <point x="527" y="736" type="line" name="mh02"/>
      <point x="520" y="724" type="line"/>
      <point x="434" y="724" type="line"/>
      <point x="336" y="782" type="line"/>
      <point x="238" y="724" type="line"/>
      <point x="153" y="724" type="line"/>
    </contour>
    <contour>
      <point x="328" y="-4" type="qcurve"/>
      <point x="257" y="-4"/>
      <point x="148" y="48"/>
      <point x="74" y="140"/>
      <point x="36" y="268"/>
      <point x="36" y="345" type="qcurve"/>
      <point x="36" y="422"/>
      <point x="74" y="550"/>
      <point x="148" y="642"/>
      <point x="257" y="693"/>
      <point x="328" y="693" type="qcurve" name="mv02"/>
      <point x="399" y="693"/>
      <point x="508" y="642"/>
      <point x="581" y="550"/>
      <point x="619" y="422"/>
      <point x="619" y="345" type="qcurve"/>
      <point x="619" y="268"/>
      <point x="581" y="140"/>
      <point x="508" y="48"/>
      <point x="399" y="-4"/>
    </contour>
    <contour>
      <point x="173" y="343" type="qcurve"/>
      <point x="173" y="292"/>
      <point x="195" y="204"/>
      <point x="235" y="138"/>
      <point x="292" y="101"/>
      <point x="328" y="101" type="qcurve"/>
      <point x="363" y="101"/>
      <point x="420" y="138"/>
      <point x="460" y="204"/>
      <point x="482" y="292"/>
      <point x="482" y="343" type="qcurve"/>
      <point x="482" y="394"/>
      <point x="460" y="484"/>
      <point x="420" y="550"/>
      <point x="363" y="588"/>
      <point x="328" y="588" type="qcurve"/>
      <point x="292" y="588"/>
      <point x="235" y="550"/>
      <point x="195" y="484"/>
      <point x="173" y="394"/>
    </contour>
  </outline>
</glyph>
<glyph name="Otilde" format="1">
  <advance width="655"/>
  <unicode hex="00D5"/>
  <outline>
    <contour>
      <point x="443" y="881" type="line" name="hr02"/>
      <point x="524" y="805" type="line"/>
      <point x="503" y="775"/>
      <point x="437" y="727"/>
      <point x="401" y="727" type="qcurve"/>
      <point x="378" y="727"/>
      <point x="345" y="741"/>
      <point x="315" y="758"/>
      <point x="284" y="772"/>
      <point x="263" y="772" type="qcurve"/>
      <point x="234" y="772"/>
      <point x="201" y="737"/>
      <point x="194" y="718" type="qcurve" name="hr01"/>
      <point x="121" y="762" type="line"/>
      <point x="121" y="781" type="line"/>
      <point x="125" y="793"/>
      <point x="145" y="825"/>
      <point x="177" y="853"/>
      <point x="222" y="873"/>
      <point x="252" y="873" type="qcurve"/>
      <point x="278" y="873"/>
      <point x="323" y="857"/>
      <point x="358" y="839"/>
      <point x="383" y="823"/>
      <point x="390" y="823" type="qcurve"/>
    </contour>
    <contour>
      <point x="328" y="-4" type="qcurve" name="ab01"/>
      <point x="257" y="-4"/>
      <point x="148" y="48"/>
      <point x="74" y="140"/>
      <point x="36" y="268"/>
      <point x="36" y="345" type="qcurve"/>
      <point x="36" y="422"/>
      <point x="74" y="550"/>
      <point x="148" y="642"/>
      <point x="257" y="693"/>
      <point x="328" y="693" type="qcurve" name="ah01"/>
      <point x="399" y="693"/>
      <point x="508" y="642"/>
      <point x="581" y="550"/>
      <point x="619" y="422"/>
      <point x="619" y="345" type="qcurve"/>
      <point x="619" y="268"/>
      <point x="581" y="140"/>
      <point x="508" y="48"/>
      <point x="399" y="-4"/>
    </contour>
    <contour>
      <point x="173" y="343" type="qcurve"/>
      <point x="173" y="292"/>
      <point x="195" y="204"/>
      <point x="235" y="138"/>
      <point x="292" y="101"/>
      <point x="328" y="101" type="qcurve" name="av01"/>
      <point x="363" y="101"/>
      <point x="420" y="138"/>
      <point x="460" y="204"/>
      <point x="482" y="292"/>
      <point x="482" y="343" type="qcurve"/>
      <point x="482" y="394"/>
      <point x="460" y="484"/>
      <point x="420" y="550"/>
      <point x="363" y="588"/>
      <point x="328" y="588" type="qcurve" name="ah02"/>
      <point x="292" y="588"/>
      <point x="235" y="550"/>
      <point x="195" y="484"/>
      <point x="173" y="394"/>
    </contour>
  </outline>
</glyph>
<glyph name="Odieresis" format="1">
  <advance width="655"/>
  <unicode hex="00D6"/>
  <outline>
    <contour>
      <point x="328" y="-4" type="qcurve" name="hr00"/>
      <point x="257" y="-4"/>
      <point x="148" y="48"/>
      <point x="74" y="140"/>
      <point x="36" y="268"/>
      <point x="36" y="345" type="qcurve" name="mh01"/>
      <point x="36" y="422"/>
      <point x="74" y="550"/>
      <point x="148" y="642"/>
      <point x="257" y="693"/>
      <point x="328" y="693" type="qcurve" name="mv01"/>
      <point x="399" y="693"/>
      <point x="508" y="642"/>
      <point x="581" y="550"/>
      <point x="619" y="422"/>
      <point x="619" y="345" type="qcurve" name="mh02"/>
      <point x="619" y="268"/>
      <point x="581" y="140"/>
      <point x="508" y="48"/>
      <point x="399" y="-4"/>
    </contour>
    <contour>
      <point x="173" y="343" type="qcurve"/>
      <point x="173" y="292"/>
      <point x="195" y="204"/>
      <point x="235" y="138"/>
      <point x="292" y="101"/>
      <point x="328" y="101" type="qcurve"/>
      <point x="363" y="101"/>
      <point x="420" y="138"/>
      <point x="460" y="204"/>
      <point x="482" y="292"/>
      <point x="482" y="343" type="qcurve"/>
      <point x="482" y="394"/>
      <point x="460" y="484"/>
      <point x="420" y="550"/>
      <point x="363" y="588"/>
      <point x="328" y="588" type="qcurve"/>
      <point x="292" y="588"/>
      <point x="235" y="550"/>
      <point x="195" y="484"/>
      <point x="173" y="394"/>
    </contour>
    <contour>
      <point x="174" y="804" type="qcurve"/>
      <point x="174" y="833"/>
      <point x="214" y="873"/>
      <point x="242" y="873" type="qcurve"/>
      <point x="271" y="873"/>
      <point x="311" y="833"/>
      <point x="311" y="804" type="qcurve"/>
      <point x="311" y="775"/>
      <point x="271" y="736"/>
      <point x="242" y="736" type="qcurve"/>
      <point x="214" y="736"/>
      <point x="174" y="775"/>
    </contour>
    <contour>
      <point x="352" y="804" type="qcurve" name="hr01"/>
      <point x="352" y="833"/>
      <point x="391" y="873"/>
      <point x="420" y="873" type="qcurve"/>
      <point x="449" y="873"/>
      <point x="487" y="833"/>
      <point x="487" y="804" type="qcurve" name="mh03"/>
      <point x="487" y="775"/>
      <point x="449" y="736"/>
      <point x="420" y="736" type="qcurve" name="mv02"/>
      <point x="391" y="736"/>
      <point x="352" y="775"/>
    </contour>
  </outline>
</glyph>
<glyph name="Oslash" format="1">
  <advance width="655"/>
  <unicode hex="00D8"/>
  <outline>
    <contour>
      <point x="328" y="-4" type="qcurve" name="hr00"/>
      <point x="278" y="-4"/>
      <point x="234" y="10" type="qcurve"/>
      <point x="201" y="-63" type="line"/>
      <point x="76" y="-63" type="line"/>
      <point x="72" y="-40" type="line"/>
      <point x="125" y="77" type="line"/>
      <point x="80" y="124"/>
      <point x="36" y="260"/>
      <point x="36" y="345" type="qcurve" name="mh01"/>
      <point x="36" y="422"/>
      <point x="74" y="550"/>
      <point x="148" y="642"/>
      <point x="257" y="693"/>
      <point x="328" y="693" type="qcurve" name="ah01"/>
      <point x="368" y="693"/>
      <point x="403" y="684" type="qcurve"/>
      <point x="436" y="757" type="line"/>
      <point x="563" y="757" type="line"/>
      <point x="563" y="733" type="line"/>
      <point x="515" y="627" type="line"/>
      <point x="566" y="581"/>
      <point x="619" y="436"/>
      <point x="619" y="345" type="qcurve"/>
      <point x="619" y="268"/>
      <point x="581" y="140"/>
      <point x="508" y="48"/>
      <point x="399" y="-4"/>
    </contour>
    <contour>
      <point x="482" y="343" type="qcurve" name="mh02"/>
      <point x="482" y="429"/>
      <point x="453" y="492" type="qcurve" name="mh03"/>
      <point x="280" y="111" type="line"/>
      <point x="301" y="101"/>
      <point x="328" y="101" type="qcurve"/>
      <point x="363" y="101"/>
      <point x="420" y="138"/>
      <point x="460" y="204" name="mh04"/>
      <point x="482" y="292"/>
    </contour>
    <contour>
      <point x="173" y="343" type="qcurve" name="ah03"/>
      <point x="173" y="275"/>
      <point x="191" y="221" type="qcurve"/>
      <point x="357" y="584" type="line"/>
      <point x="344" y="588"/>
      <point x="328" y="588" type="qcurve" name="ah02"/>
      <point x="292" y="588"/>
      <point x="235" y="550"/>
      <point x="195" y="484"/>
      <point x="173" y="394"/>
    </contour>
  </outline>
</glyph>
<glyph name="Ugrave" format="1">
  <advance width="670"/>
  <unicode hex="00D9"/>
  <outline>
    <contour>
      <point x="219" y="250" type="line" name="hr00"/>
      <point x="219" y="175"/>
      <point x="278" y="101"/>
      <point x="353" y="101" type="qcurve"/>
      <point x="413" y="101"/>
      <point x="479" y="172"/>
      <point x="479" y="251" type="qcurve"/>
      <point x="479" y="594" type="line"/>
      <point x="415" y="603" type="line"/>
      <point x="415" y="691" type="line"/>
      <point x="643" y="691" type="line"/>
      <point x="643" y="600" type="line" name="hr02"/>
      <point x="584" y="587" type="line" name="mh01"/>
      <point x="584" y="248" type="line"/>
      <point x="584" y="131"/>
      <point x="466" y="-4"/>
      <point x="353" y="-4" type="qcurve"/>
      <point x="278" y="-4"/>
      <point x="176" y="30"/>
      <point x="115" y="95"/>
      <point x="88" y="189"/>
      <point x="88" y="248" type="qcurve" name="hr01"/>
      <point x="88" y="593" type="line"/>
      <point x="21" y="602" type="line"/>
      <point x="21" y="691" type="line" name="ah01"/>
      <point x="290" y="691" type="line"/>
      <point x="290" y="603" type="line"/>
      <point x="219" y="592" type="line" name="mh02"/>
    </contour>
    <contour>
      <point x="395" y="724" type="line"/>
      <point x="212" y="868" type="line"/>
      <point x="289" y="959" type="line"/>
      <point x="324" y="942" type="line"/>
      <point x="436" y="765" type="line"/>
    </contour>
  </outline>
</glyph>
<glyph name="Uacute" format="1">
  <advance width="670"/>
  <unicode hex="00DA"/>
  <outline>
    <contour>
      <point x="219" y="250" type="line" name="hr00"/>
      <point x="219" y="175"/>
      <point x="278" y="101"/>
      <point x="353" y="101" type="qcurve"/>
      <point x="413" y="101"/>
      <point x="479" y="172"/>
      <point x="479" y="251" type="qcurve"/>
      <point x="479" y="594" type="line"/>
      <point x="415" y="603" type="line"/>
      <point x="415" y="691" type="line"/>
      <point x="643" y="691" type="line"/>
      <point x="643" y="600" type="line" name="hr02"/>
      <point x="584" y="587" type="line"/>
      <point x="584" y="248" type="line"/>
      <point x="584" y="131"/>
      <point x="466" y="-4"/>
      <point x="353" y="-4" type="qcurve"/>
      <point x="278" y="-4"/>
      <point x="176" y="30"/>
      <point x="115" y="95"/>
      <point x="88" y="189"/>
      <point x="88" y="248" type="qcurve" name="hr01"/>
      <point x="88" y="593" type="line"/>
      <point x="21" y="602" type="line"/>
      <point x="21" y="691" type="line" name="mh01"/>
      <point x="290" y="691" type="line"/>
      <point x="290" y="603" type="line"/>
      <point x="219" y="592" type="line"/>
    </contour>
    <contour>
      <point x="247" y="795" type="line"/>
      <point x="376" y="959" type="line"/>
      <point x="413" y="974" type="line"/>
      <point x="491" y="865" type="line"/>
      <point x="294" y="741" type="line"/>
    </contour>
  </outline>
</glyph>
<glyph name="Ucircumflex" format="1">
  <advance width="670"/>
  <unicode hex="00DB"/>
  <outline>
    <contour>
      <point x="151" y="737" type="line" name="hr00"/>
      <point x="322" y="903" type="line" name="av01"/>
      <point x="359" y="903" type="line"/>
      <point x="531" y="736" type="line"/>
      <point x="524" y="724" type="line"/>
      <point x="438" y="724" type="line"/>
      <point x="340" y="782" type="line"/>
      <point x="242" y="724" type="line"/>
      <point x="157" y="724" type="line"/>
    </contour>
    <contour>
      <point x="219" y="250" type="line"/>
      <point x="219" y="175"/>
      <point x="278" y="101"/>
      <point x="353" y="101" type="qcurve"/>
      <point x="413" y="101"/>
      <point x="479" y="172"/>
      <point x="479" y="251" type="qcurve"/>
      <point x="479" y="594" type="line"/>
      <point x="415" y="603" type="line"/>
      <point x="415" y="691" type="line"/>
      <point x="643" y="691" type="line"/>
      <point x="643" y="600" type="line" name="hr02"/>
      <point x="584" y="587" type="line"/>
      <point x="584" y="248" type="line"/>
      <point x="584" y="131"/>
      <point x="466" y="-4"/>
      <point x="353" y="-4" type="qcurve"/>
      <point x="278" y="-4"/>
      <point x="176" y="30"/>
      <point x="115" y="95"/>
      <point x="88" y="189"/>
      <point x="88" y="248" type="qcurve" name="hr01"/>
      <point x="88" y="593" type="line"/>
      <point x="21" y="602" type="line"/>
      <point x="21" y="691" type="line"/>
      <point x="290" y="691" type="line"/>
      <point x="290" y="603" type="line"/>
      <point x="219" y="592" type="line"/>
    </contour>
  </outline>
</glyph>
<glyph name="Udieresis" format="1">
  <advance width="670"/>
  <unicode hex="00DC"/>
  <outline>
    <contour>
      <point x="219" y="250" type="line" name="hr00"/>
      <point x="219" y="175"/>
      <point x="278" y="101"/>
      <point x="353" y="101" type="qcurve"/>
      <point x="413" y="101"/>
      <point x="479" y="172"/>
      <point x="479" y="251" type="qcurve"/>
      <point x="479" y="593" type="line" name="mh01"/>
      <point x="415" y="602" type="line"/>
      <point x="415" y="690" type="line"/>
      <point x="643" y="690" type="line"/>
      <point x="643" y="599" type="line"/>
      <point x="584" y="586" type="line"/>
      <point x="584" y="248" type="line"/>
      <point x="584" y="131"/>
      <point x="466" y="-4"/>
      <point x="353" y="-4" type="qcurve" name="hr01"/>
      <point x="278" y="-4"/>
      <point x="176" y="30"/>
      <point x="115" y="95"/>
      <point x="88" y="189"/>
      <point x="88" y="248" type="qcurve"/>
      <point x="88" y="592" type="line" name="mh02"/>
      <point x="21" y="601" type="line"/>
      <point x="21" y="690" type="line" name="mh03"/>
      <point x="290" y="690" type="line"/>
      <point x="290" y="602" type="line"/>
      <point x="219" y="591" type="line"/>
    </contour>
    <contour>
      <point x="193" y="804" type="qcurve" name="mh04"/>
      <point x="193" y="833"/>
      <point x="233" y="873"/>
      <point x="261" y="873" type="qcurve"/>
      <point x="290" y="873"/>
      <point x="330" y="833"/>
      <point x="330" y="804" type="qcurve" name="hr02"/>
      <point x="330" y="775"/>
      <point x="290" y="736"/>
      <point x="261" y="736" type="qcurve" name="mv01"/>
      <point x="233" y="736"/>
      <point x="193" y="775"/>
    </contour>
    <contour>
      <point x="371" y="804" type="qcurve" name="mh05"/>
      <point x="371" y="833"/>
      <point x="410" y="873"/>
      <point x="439" y="873" type="qcurve"/>
      <point x="468" y="873"/>
      <point x="506" y="833"/>
      <point x="506" y="804" type="qcurve" name="hr03"/>
      <point x="506" y="775"/>
      <point x="468" y="736"/>
      <point x="439" y="736" type="qcurve" name="mv02"/>
      <point x="410" y="736"/>
      <point x="371" y="775"/>
    </contour>
  </outline>
</glyph>
<glyph name="Thorn" format="1">
  <advance width="556"/>
  <unicode hex="00DE"/>
  <outline>
    <contour>
      <point x="40" y="89" type="line" name="hr00"/>
      <point x="108" y="102" type="line"/>
      <point x="108" y="593" type="line"/>
      <point x="40" y="600" type="line"/>
      <point x="40" y="691" type="line"/>
      <point x="301" y="691" type="line"/>
      <point x="315" y="598" type="line"/>
      <point x="240" y="586" type="line"/>
      <point x="240" y="558" type="line"/>
      <point x="249" y="558"/>
      <point x="268" y="559"/>
      <point x="276" y="559" type="qcurve"/>
      <point x="343" y="559"/>
      <point x="444" y="529"/>
      <point x="512" y="474"/>
      <point x="545" y="398"/>
      <point x="545" y="352" type="qcurve" name="hr01"/>
      <point x="545" y="306"/>
      <point x="512" y="230"/>
      <point x="446" y="176"/>
      <point x="346" y="146"/>
      <point x="279" y="146" type="qcurve"/>
      <point x="260" y="146" type="line"/>
      <point x="251" y="146"/>
      <point x="240" y="147" type="qcurve"/>
      <point x="240" y="99" type="line"/>
      <point x="354" y="87" type="line"/>
      <point x="354" y="0" type="line"/>
      <point x="40" y="0" type="line"/>
    </contour>
    <contour>
      <point x="409" y="352" type="qcurve"/>
      <point x="409" y="373"/>
      <point x="396" y="409"/>
      <point x="358" y="436"/>
      <point x="292" y="452"/>
      <point x="240" y="453" type="qcurve"/>
      <point x="240" y="251" type="line"/>
      <point x="292" y="251"/>
      <point x="358" y="267"/>
      <point x="396" y="294"/>
      <point x="409" y="331"/>
    </contour>
  </outline>
</glyph>
<glyph name="germandbls" format="1">
  <advance width="562"/>
  <unicode hex="00DF"/>
  <outline>
    <contour>
      <point x="79" y="531" type="curve" name="hr00"/>
      <point x="79" y="83" type="line"/>
      <point x="29" y="72" type="line"/>
      <point x="36" y="0" type="line"/>
      <point x="200" y="0" type="line"/>
      <point x="200" y="532" type="line" smooth="yes"/>
      <point x="200" y="589"/>
      <point x="219" y="640"/>
      <point x="282" y="640" type="curve" smooth="yes"/>
      <point x="327" y="640"/>
      <point x="357" y="603"/>
      <point x="357" y="558" type="curve" smooth="yes"/>
      <point x="357" y="470"/>
      <point x="266" y="466"/>
      <point x="266" y="377" type="curve" smooth="yes" name="hr01"/>
      <point x="266" y="272"/>
      <point x="421" y="259"/>
      <point x="421" y="159" type="curve" smooth="yes"/>
      <point x="421" y="98"/>
      <point x="356" y="90"/>
      <point x="346" y="90" type="curve"/>
      <point x="290" y="141" type="line"/>
      <point x="239" y="20" type="line"/>
      <point x="260" y="13"/>
      <point x="297" y="-4"/>
      <point x="362" y="-4" type="curve" smooth="yes"/>
      <point x="469" y="-4"/>
      <point x="547" y="61"/>
      <point x="547" y="162" type="curve" smooth="yes"/>
      <point x="547" y="219"/>
      <point x="527" y="262"/>
      <point x="449" y="319" type="curve" smooth="yes"/>
      <point x="403" y="353"/>
      <point x="382" y="362"/>
      <point x="382" y="384" type="curve" smooth="yes"/>
      <point x="382" y="416"/>
      <point x="480" y="439"/>
      <point x="480" y="560" type="curve" smooth="yes" name="hr02"/>
      <point x="480" y="689"/>
      <point x="392" y="735"/>
      <point x="280" y="735" type="curve" smooth="yes"/>
      <point x="155" y="735"/>
      <point x="79" y="657"/>
    </contour>
  </outline>
</glyph>
<glyph name="aacute" format="1">
  <advance width="463"/>
  <unicode hex="00E1"/>
  <outline>
    <contour>
      <point x="395" y="105" type="line" name="hr00"/>
      <point x="395" y="91"/>
      <point x="406" y="83"/>
      <point x="413" y="83" type="qcurve"/>
      <point x="418" y="83"/>
      <point x="426" y="85"/>
      <point x="428" y="85" type="qcurve"/>
      <point x="446" y="29" type="line"/>
      <point x="439" y="23"/>
      <point x="397" y="-4"/>
      <point x="366" y="-4" type="qcurve"/>
      <point x="336" y="-4"/>
      <point x="297" y="22"/>
      <point x="286" y="44" type="qcurve"/>
      <point x="266" y="24"/>
      <point x="209" y="-4"/>
      <point x="174" y="-4" type="qcurve"/>
      <point x="139" y="-4"/>
      <point x="85" y="16"/>
      <point x="48" y="52"/>
      <point x="29" y="101"/>
      <point x="29" y="129" type="qcurve"/>
      <point x="29" y="173"/>
      <point x="75" y="233"/>
      <point x="146" y="270"/>
      <point x="233" y="287"/>
      <point x="274" y="288" type="qcurve"/>
      <point x="274" y="367" type="line"/>
      <point x="274" y="378"/>
      <point x="243" y="397"/>
      <point x="209" y="397" type="qcurve"/>
      <point x="201" y="397"/>
      <point x="185" y="396"/>
      <point x="180" y="394" type="qcurve"/>
      <point x="154" y="320" type="line" name="mh01"/>
      <point x="30" y="374" type="line"/>
      <point x="40" y="398"/>
      <point x="77" y="440"/>
      <point x="127" y="472"/>
      <point x="188" y="491"/>
      <point x="223" y="491" type="qcurve"/>
      <point x="255" y="491"/>
      <point x="317" y="475"/>
      <point x="365" y="437"/>
      <point x="395" y="376"/>
      <point x="395" y="330" type="qcurve"/>
    </contour>
    <contour>
      <point x="198" y="92" type="qcurve"/>
      <point x="226" y="92"/>
      <point x="266" y="122"/>
      <point x="274" y="139" type="qcurve"/>
      <point x="274" y="204" type="line"/>
      <point x="255" y="203"/>
      <point x="213" y="197"/>
      <point x="177" y="182"/>
      <point x="153" y="157"/>
      <point x="153" y="138" type="qcurve"/>
      <point x="153" y="121"/>
      <point x="175" y="92"/>
    </contour>
    <contour>
      <point x="112" y="561" type="line"/>
      <point x="238" y="722" type="line"/>
      <point x="274" y="736" type="line"/>
      <point x="351" y="630" type="line"/>
      <point x="158" y="509" type="line" name="mh02"/>
    </contour>
  </outline>
</glyph>
<glyph name="atilde" format="1">
  <advance width="463"/>
  <unicode hex="00E3"/>
  <outline>
    <contour>
      <point x="314" y="697" type="line" name="hr00"/>
      <point x="388" y="627" type="line"/>
      <point x="379" y="614"/>
      <point x="356" y="588"/>
      <point x="331" y="567"/>
      <point x="302" y="554"/>
      <point x="287" y="554" type="qcurve" name="mh01"/>
      <point x="269" y="554"/>
      <point x="239" y="567"/>
      <point x="212" y="582"/>
      <point x="185" y="595"/>
      <point x="169" y="595" type="qcurve" name="mh02"/>
      <point x="143" y="595"/>
      <point x="114" y="564"/>
      <point x="109" y="547" type="qcurve"/>
      <point x="45" y="589" type="line" name="mv01"/>
      <point x="46" y="608" type="line"/>
      <point x="50" y="618"/>
      <point x="68" y="647"/>
      <point x="97" y="672"/>
      <point x="137" y="690"/>
      <point x="164" y="690" type="qcurve" name="mv02"/>
      <point x="184" y="690"/>
      <point x="220" y="677" name="mv03"/>
      <point x="250" y="662"/>
      <point x="272" y="647" name="mv04"/>
      <point x="278" y="646" type="qcurve" name="mh03"/>
    </contour>
    <contour>
      <point x="395" y="105" type="line"/>
      <point x="395" y="91"/>
      <point x="406" y="83"/>
      <point x="413" y="83" type="qcurve"/>
      <point x="418" y="83"/>
      <point x="426" y="85"/>
      <point x="428" y="85" type="qcurve"/>
      <point x="446" y="29" type="line"/>
      <point x="439" y="23"/>
      <point x="397" y="-4"/>
      <point x="366" y="-4" type="qcurve"/>
      <point x="336" y="-4"/>
      <point x="297" y="22"/>
      <point x="286" y="44" type="qcurve" name="mh04"/>
      <point x="266" y="24"/>
      <point x="209" y="-4"/>
      <point x="174" y="-4" type="qcurve"/>
      <point x="139" y="-4"/>
      <point x="85" y="16" name="mh05"/>
      <point x="48" y="52"/>
      <point x="29" y="101"/>
      <point x="29" y="129" type="qcurve" name="mh06"/>
      <point x="29" y="173"/>
      <point x="75" y="233"/>
      <point x="146" y="270" name="mv05"/>
      <point x="233" y="287"/>
      <point x="274" y="288" type="qcurve"/>
      <point x="274" y="367" type="line"/>
      <point x="274" y="378"/>
      <point x="243" y="397"/>
      <point x="209" y="397" type="qcurve"/>
      <point x="201" y="397"/>
      <point x="185" y="396"/>
      <point x="180" y="394" type="qcurve"/>
      <point x="154" y="320" type="line"/>
      <point x="30" y="374" type="line"/>
      <point x="40" y="398"/>
      <point x="77" y="440"/>
      <point x="127" y="472" name="mh07"/>
      <point x="188" y="491"/>
      <point x="223" y="491" type="qcurve" name="mv06"/>
      <point x="255" y="491"/>
      <point x="317" y="475" name="mv07"/>
      <point x="365" y="437"/>
      <point x="395" y="376"/>
      <point x="395" y="330" type="qcurve" name="mh08"/>
    </contour>
    <contour>
      <point x="198" y="92" type="qcurve"/>
      <point x="226" y="92"/>
      <point x="266" y="122"/>
      <point x="274" y="139" type="qcurve"/>
      <point x="274" y="204" type="line" name="hr01"/>
      <point x="255" y="203"/>
      <point x="213" y="197"/>
      <point x="177" y="182"/>
      <point x="153" y="157"/>
      <point x="153" y="138" type="qcurve"/>
      <point x="153" y="121"/>
      <point x="175" y="92"/>
    </contour>
  </outline>
</glyph>
<glyph name="adieresis" format="1">
  <advance width="463"/>
  <unicode hex="00E4"/>
  <outline>
    <contour>
      <point x="70" y="634" type="qcurve" name="mh01"/>
      <point x="70" y="660"/>
      <point x="106" y="696"/>
      <point x="132" y="696" type="qcurve" name="fv01"/>
      <point x="158" y="696"/>
      <point x="194" y="660"/>
      <point x="194" y="634" type="qcurve" name="mh02"/>
      <point x="194" y="608"/>
      <point x="158" y="572"/>
      <point x="132" y="572" type="qcurve" name="mv01"/>
      <point x="106" y="572"/>
      <point x="70" y="608"/>
    </contour>
    <contour>
      <point x="231" y="634" type="qcurve" name="mh03"/>
      <point x="231" y="660"/>
      <point x="267" y="696"/>
      <point x="293" y="696" type="qcurve"/>
      <point x="319" y="696"/>
      <point x="355" y="660"/>
      <point x="355" y="634" type="qcurve"/>
      <point x="355" y="608"/>
      <point x="319" y="572"/>
      <point x="293" y="572" type="qcurve" name="mv02"/>
      <point x="267" y="572"/>
      <point x="231" y="608"/>
    </contour>
    <contour>
      <point x="395" y="105" type="line" name="mh04"/>
      <point x="395" y="91"/>
      <point x="406" y="83"/>
      <point x="413" y="83" type="qcurve"/>
      <point x="418" y="83"/>
      <point x="426" y="85"/>
      <point x="428" y="85" type="qcurve"/>
      <point x="446" y="29" type="line"/>
      <point x="439" y="23"/>
      <point x="397" y="-4"/>
      <point x="366" y="-4" type="qcurve"/>
      <point x="336" y="-4"/>
      <point x="297" y="22"/>
      <point x="286" y="44" type="qcurve"/>
      <point x="266" y="24"/>
      <point x="209" y="-4"/>
      <point x="174" y="-4" type="qcurve"/>
      <point x="139" y="-4"/>
      <point x="85" y="16"/>
      <point x="48" y="52"/>
      <point x="29" y="101"/>
      <point x="29" y="129" type="qcurve" name="mh05"/>
      <point x="29" y="173"/>
      <point x="75" y="233"/>
      <point x="146" y="270"/>
      <point x="233" y="287"/>
      <point x="274" y="288" type="qcurve"/>
      <point x="274" y="367" type="line"/>
      <point x="274" y="378"/>
      <point x="243" y="397"/>
      <point x="209" y="397" type="qcurve"/>
      <point x="201" y="397"/>
      <point x="185" y="396"/>
      <point x="180" y="394" type="qcurve"/>
      <point x="154" y="320" type="line"/>
      <point x="30" y="374" type="line" name="hr01"/>
      <point x="40" y="398"/>
      <point x="77" y="440"/>
      <point x="127" y="472"/>
      <point x="188" y="491"/>
      <point x="223" y="491" type="qcurve" name="mv03"/>
      <point x="255" y="491"/>
      <point x="317" y="475"/>
      <point x="365" y="437"/>
      <point x="395" y="376"/>
      <point x="395" y="330" type="qcurve" name="mh06"/>
    </contour>
    <contour>
      <point x="198" y="92" type="qcurve"/>
      <point x="226" y="92"/>
      <point x="266" y="122"/>
      <point x="274" y="139" type="qcurve"/>
      <point x="274" y="204" type="line"/>
      <point x="255" y="203"/>
      <point x="213" y="197" name="mv04"/>
      <point x="177" y="182"/>
      <point x="153" y="157"/>
      <point x="153" y="138" type="qcurve"/>
      <point x="153" y="121"/>
      <point x="175" y="92"/>
    </contour>
  </outline>
</glyph>
<glyph name="aring" format="1">
  <advance width="463"/>
  <unicode hex="00E5"/>
  <outline>
    <contour>
      <point x="118" y="631" type="qcurve" name="hr00"/>
      <point x="118" y="653"/>
      <point x="134" y="692"/>
      <point x="163" y="721" name="av02"/>
      <point x="201" y="737"/>
      <point x="224" y="737" type="qcurve" name="mv01"/>
      <point x="246" y="737"/>
      <point x="285" y="721"/>
      <point x="314" y="692"/>
      <point x="330" y="653"/>
      <point x="330" y="631" type="qcurve"/>
      <point x="330" y="608"/>
      <point x="314" y="570"/>
      <point x="285" y="541"/>
      <point x="246" y="525"/>
      <point x="224" y="525" type="qcurve"/>
      <point x="201" y="525"/>
      <point x="163" y="541"/>
      <point x="134" y="570"/>
      <point x="118" y="608"/>
    </contour>
    <contour>
      <point x="181" y="631" type="qcurve"/>
      <point x="181" y="611"/>
      <point x="204" y="588"/>
      <point x="224" y="588" type="qcurve" name="hr01"/>
      <point x="244" y="588"/>
      <point x="267" y="611"/>
      <point x="267" y="631" type="qcurve"/>
      <point x="267" y="651"/>
      <point x="244" y="674"/>
      <point x="224" y="674" type="qcurve"/>
      <point x="204" y="674"/>
      <point x="181" y="651"/>
    </contour>
    <contour>
      <point x="395" y="105" type="line"/>
      <point x="395" y="91"/>
      <point x="406" y="83"/>
      <point x="413" y="83" type="qcurve"/>
      <point x="418" y="83"/>
      <point x="426" y="85"/>
      <point x="428" y="85" type="qcurve"/>
      <point x="446" y="29" type="line"/>
      <point x="439" y="23"/>
      <point x="397" y="-4"/>
      <point x="366" y="-4" type="qcurve"/>
      <point x="336" y="-4"/>
      <point x="297" y="22"/>
      <point x="286" y="44" type="qcurve"/>
      <point x="266" y="24"/>
      <point x="209" y="-4"/>
      <point x="174" y="-4" type="qcurve"/>
      <point x="139" y="-4"/>
      <point x="85" y="16"/>
      <point x="48" y="52"/>
      <point x="29" y="101"/>
      <point x="29" y="129" type="qcurve"/>
      <point x="29" y="173"/>
      <point x="75" y="233"/>
      <point x="146" y="270"/>
      <point x="233" y="287"/>
      <point x="274" y="288" type="qcurve"/>
      <point x="274" y="367" type="line"/>
      <point x="274" y="378"/>
      <point x="243" y="397"/>
      <point x="209" y="397" type="qcurve"/>
      <point x="201" y="397"/>
      <point x="185" y="396"/>
      <point x="180" y="394" type="qcurve"/>
      <point x="154" y="320" type="line"/>
      <point x="30" y="374" type="line" name="hr02"/>
      <point x="40" y="398"/>
      <point x="77" y="440"/>
      <point x="127" y="472"/>
      <point x="188" y="491"/>
      <point x="223" y="491" type="qcurve" name="mv02"/>
      <point x="255" y="491"/>
      <point x="317" y="475" name="av01"/>
      <point x="365" y="437"/>
      <point x="395" y="376"/>
      <point x="395" y="330" type="qcurve"/>
    </contour>
    <contour>
      <point x="198" y="92" type="qcurve"/>
      <point x="226" y="92"/>
      <point x="266" y="122"/>
      <point x="274" y="139" type="qcurve"/>
      <point x="274" y="204" type="line"/>
      <point x="255" y="203"/>
      <point x="213" y="197"/>
      <point x="177" y="182"/>
      <point x="153" y="157"/>
      <point x="153" y="138" type="qcurve"/>
      <point x="153" y="121"/>
      <point x="175" y="92"/>
    </contour>
  </outline>
</glyph>
<glyph name="ae" format="1">
  <advance width="698"/>
  <unicode hex="00E6"/>
  <outline>
    <contour>
      <point x="499" y="491" type="curve" smooth="yes" name="hr00"/>
      <point x="449" y="491"/>
      <point x="397" y="476"/>
      <point x="356" y="442" type="curve"/>
      <point x="323" y="477"/>
      <point x="273" y="491"/>
      <point x="223" y="491" type="curve" smooth="yes"/>
      <point x="130" y="491"/>
      <point x="58" y="437"/>
      <point x="30" y="374" type="curve"/>
      <point x="154" y="320" type="line"/>
      <point x="180" y="394" type="line"/>
      <point x="187" y="397"/>
      <point x="198" y="397"/>
      <point x="209" y="397" type="curve" smooth="yes"/>
      <point x="254" y="397"/>
      <point x="274" y="381"/>
      <point x="274" y="367" type="curve" smooth="yes"/>
      <point x="274" y="288" type="line"/>
      <point x="165" y="285"/>
      <point x="29" y="246"/>
      <point x="29" y="129" type="curve" smooth="yes"/>
      <point x="29" y="54"/>
      <point x="81" y="-4"/>
      <point x="174" y="-4" type="curve" smooth="yes"/>
      <point x="234" y="-4"/>
      <point x="291" y="31"/>
      <point x="325" y="75" type="curve"/>
      <point x="369" y="20"/>
      <point x="436" y="-4"/>
      <point x="503" y="-4" type="curve" smooth="yes"/>
      <point x="585" y="-4"/>
      <point x="649" y="35"/>
      <point x="666" y="56" type="curve"/>
      <point x="643" y="143" type="line"/>
      <point x="619" y="120"/>
      <point x="566" y="91"/>
      <point x="517" y="91" type="curve" smooth="yes"/>
      <point x="445" y="91"/>
      <point x="410" y="138"/>
      <point x="402" y="198" type="curve"/>
      <point x="416" y="197"/>
      <point x="435" y="197"/>
      <point x="453" y="197" type="curve" smooth="yes"/>
      <point x="567" y="197"/>
      <point x="667" y="233"/>
      <point x="667" y="354" type="curve" smooth="yes"/>
      <point x="667" y="438"/>
      <point x="582" y="491"/>
    </contour>
    <contour>
      <point x="403" y="282" type="curve"/>
      <point x="408" y="344"/>
      <point x="452" y="397"/>
      <point x="501" y="397" type="curve" smooth="yes"/>
      <point x="528" y="397"/>
      <point x="546" y="380"/>
      <point x="546" y="350" type="curve" smooth="yes"/>
      <point x="546" y="297"/>
      <point x="487" y="281"/>
      <point x="436" y="281" type="curve" smooth="yes"/>
      <point x="426" y="281"/>
      <point x="410" y="281"/>
    </contour>
    <contour>
      <point x="198" y="92" type="curve" smooth="yes"/>
      <point x="167" y="92"/>
      <point x="153" y="115"/>
      <point x="153" y="138" type="curve" smooth="yes"/>
      <point x="153" y="190"/>
      <point x="224" y="202"/>
      <point x="274" y="204" type="curve"/>
      <point x="274" y="140" type="line"/>
      <point x="265" y="118"/>
      <point x="236" y="92"/>
    </contour>
  </outline>
</glyph>
<glyph name="ccedilla" format="1">
  <advance width="431"/>
  <unicode hex="00E7"/>
  <outline>
    <contour>
      <point x="409" y="52" type="qcurve" name="hr00"/>
      <point x="386" y="29"/>
      <point x="319" y="1"/>
      <point x="279" y="-3" type="qcurve"/>
      <point x="267" y="-38" type="line"/>
      <point x="302" y="-46"/>
      <point x="343" y="-88"/>
      <point x="343" y="-125" type="qcurve"/>
      <point x="343" y="-166"/>
      <point x="277" y="-221"/>
      <point x="216" y="-221" type="qcurve"/>
      <point x="194" y="-221"/>
      <point x="144" y="-211"/>
      <point x="125" y="-203" type="qcurve"/>
      <point x="159" y="-129" type="line"/>
      <point x="214" y="-169" type="line"/>
      <point x="216" y="-169"/>
      <point x="233" y="-167"/>
      <point x="251" y="-158"/>
      <point x="266" y="-142"/>
      <point x="266" y="-127" type="qcurve"/>
      <point x="266" y="-78"/>
      <point x="196" y="-78" type="qcurve"/>
      <point x="184" y="-62" type="line"/>
      <point x="205" y="0" type="line"/>
      <point x="172" y="7"/>
      <point x="109" y="41"/>
      <point x="60" y="98" name="mh01"/>
      <point x="31" y="179"/>
      <point x="31" y="233" type="qcurve"/>
      <point x="31" y="308"/>
      <point x="71" y="407"/>
      <point x="134" y="467"/>
      <point x="212" y="491"/>
      <point x="249" y="491" type="qcurve" name="mv01"/>
      <point x="293" y="491"/>
      <point x="354" y="467"/>
      <point x="393" y="436"/>
      <point x="413" y="407"/>
      <point x="416" y="402" type="qcurve"/>
      <point x="295" y="337" type="line"/>
      <point x="252" y="397" type="line"/>
      <point x="206" y="397"/>
      <point x="155" y="311"/>
      <point x="155" y="238" type="qcurve"/>
      <point x="155" y="209"/>
      <point x="168" y="155"/>
      <point x="196" y="115"/>
      <point x="240" y="91"/>
      <point x="271" y="91" type="qcurve"/>
      <point x="292" y="91"/>
      <point x="328" y="102"/>
      <point x="357" y="117"/>
      <point x="377" y="134"/>
      <point x="383" y="139" type="qcurve"/>
      <point x="385" y="132"/>
      <point x="393" y="108"/>
      <point x="401" y="82"/>
      <point x="407" y="58"/>
    </contour>
  </outline>
</glyph>
<glyph name="igrave" format="1">
  <advance width="288"/>
  <unicode hex="00EC"/>
  <outline>
    <contour>
      <point x="175" y="492" type="line" name="hr00"/>
      <point x="152" y="489"/>
      <point x="62" y="471"/>
      <point x="26" y="466" type="curve"/>
      <point x="37" y="398" type="line"/>
      <point x="88" y="398" type="line"/>
      <point x="88" y="77" type="line"/>
      <point x="32" y="64" type="line"/>
      <point x="43" y="0" type="line"/>
      <point x="264" y="0" type="line"/>
      <point x="264" y="64" type="line"/>
      <point x="209" y="75" type="line"/>
      <point x="209" y="456" type="line"/>
    </contour>
    <contour>
      <point x="215" y="509" type="line"/>
      <point x="22" y="630" type="line"/>
      <point x="99" y="736" type="line"/>
      <point x="135" y="722" type="line"/>
      <point x="261" y="561" type="line"/>
    </contour>
  </outline>
</glyph>
<glyph name="idieresis" format="1">
  <advance width="288"/>
  <unicode hex="00EF"/>
  <outline>
    <contour>
      <point x="-4" y="634" type="qcurve" name="hr00"/>
      <point x="-4" y="660"/>
      <point x="32" y="696"/>
      <point x="58" y="696" type="qcurve" name="at01"/>
      <point x="84" y="696"/>
      <point x="120" y="660"/>
      <point x="120" y="634" type="qcurve" name="mh01"/>
      <point x="120" y="608"/>
      <point x="84" y="572"/>
      <point x="58" y="572" type="qcurve" name="mh02"/>
      <point x="32" y="572"/>
      <point x="-4" y="608"/>
    </contour>
    <contour>
      <point x="147" y="634" type="qcurve"/>
      <point x="147" y="660"/>
      <point x="183" y="696"/>
      <point x="209" y="696" type="qcurve" name="at02"/>
      <point x="235" y="696"/>
      <point x="271" y="660"/>
      <point x="271" y="634" type="qcurve" name="mh03"/>
      <point x="271" y="608"/>
      <point x="235" y="572"/>
      <point x="209" y="572" type="qcurve" name="mv01"/>
      <point x="183" y="572"/>
      <point x="147" y="608"/>
    </contour>
    <contour>
      <point x="209" y="456" type="line" name="mh04"/>
      <point x="209" y="75" type="line" name="mh05"/>
      <point x="264" y="64" type="line"/>
      <point x="264" y="0" type="line"/>
      <point x="43" y="0" type="line" name="hr03"/>
      <point x="32" y="64" type="line"/>
      <point x="88" y="77" type="line"/>
      <point x="88" y="398" type="line" name="hr02"/>
      <point x="37" y="398" type="line"/>
      <point x="26" y="466" type="line"/>
      <point x="39" y="468"/>
      <point x="83" y="476"/>
      <point x="128" y="484"/>
      <point x="166" y="491"/>
      <point x="175" y="492" type="qcurve" name="hr01"/>
    </contour>
  </outline>
</glyph>
<glyph name="eth" format="1">
  <advance width="545"/>
  <unicode hex="00F0"/>
  <outline>
    <contour>
      <point x="185" y="736" type="line" name="hr00"/>
      <point x="214" y="725"/>
      <point x="281" y="692"/>
      <point x="313" y="669" type="qcurve"/>
      <point x="396" y="735" type="line" name="mh01"/>
      <point x="462" y="633" type="line" name="mh02"/>
      <point x="399" y="595" type="line"/>
      <point x="447" y="543"/>
      <point x="510" y="409"/>
      <point x="510" y="326" type="qcurve"/>
      <point x="510" y="296"/>
      <point x="502" y="224"/>
      <point x="481" y="151"/>
      <point x="445" y="82"/>
      <point x="388" y="28"/>
      <point x="308" y="-4"/>
      <point x="254" y="-4" type="qcurve"/>
      <point x="203" y="-4"/>
      <point x="119" y="32"/>
      <point x="61" y="93"/>
      <point x="29" y="173"/>
      <point x="29" y="218" type="qcurve" name="mh03"/>
      <point x="29" y="270"/>
      <point x="59" y="357"/>
      <point x="113" y="420"/>
      <point x="189" y="455"/>
      <point x="236" y="455" type="qcurve"/>
      <point x="284" y="455"/>
      <point x="349" y="427"/>
      <point x="369" y="408" type="qcurve"/>
      <point x="356" y="444"/>
      <point x="311" y="503"/>
      <point x="283" y="526" type="qcurve" name="mv01"/>
      <point x="170" y="459" type="line"/>
      <point x="133" y="526" type="line" name="mh04"/>
      <point x="203" y="582" type="line"/>
      <point x="183" y="593"/>
      <point x="147" y="609"/>
      <point x="133" y="615" type="qcurve"/>
    </contour>
    <contour>
      <point x="263" y="101" type="qcurve"/>
      <point x="317" y="101"/>
      <point x="374" y="179"/>
      <point x="381" y="254" type="qcurve"/>
      <point x="377" y="282"/>
      <point x="353" y="321"/>
      <point x="321" y="345"/>
      <point x="284" y="356"/>
      <point x="267" y="356" type="qcurve"/>
      <point x="235" y="356"/>
      <point x="192" y="333"/>
      <point x="166" y="296"/>
      <point x="155" y="249"/>
      <point x="155" y="225" type="qcurve"/>
      <point x="155" y="202"/>
      <point x="170" y="158"/>
      <point x="199" y="123"/>
      <point x="239" y="101"/>
    </contour>
  </outline>
</glyph>
<glyph name="ntilde" format="1">
  <advance width="555"/>
  <unicode hex="00F1"/>
  <outline>
    <contour>
      <point x="392" y="698" type="line" name="hr02"/>
      <point x="465" y="628" type="line"/>
      <point x="456" y="615"/>
      <point x="434" y="589"/>
      <point x="409" y="568"/>
      <point x="380" y="555"/>
      <point x="365" y="555" type="qcurve"/>
      <point x="347" y="555"/>
      <point x="317" y="568"/>
      <point x="289" y="583"/>
      <point x="262" y="596"/>
      <point x="247" y="596" type="qcurve"/>
      <point x="220" y="596"/>
      <point x="191" y="565"/>
      <point x="186" y="548" type="qcurve"/>
      <point x="122" y="590" type="line"/>
      <point x="123" y="609" type="line" name="hr01"/>
      <point x="127" y="619"/>
      <point x="145" y="648"/>
      <point x="174" y="673"/>
      <point x="215" y="691"/>
      <point x="242" y="691" type="qcurve" name="mv01"/>
      <point x="261" y="691"/>
      <point x="297" y="678"/>
      <point x="327" y="663"/>
      <point x="349" y="648"/>
      <point x="355" y="647" type="qcurve"/>
    </contour>
    <contour>
      <point x="209" y="455" type="line"/>
      <point x="228" y="469"/>
      <point x="292" y="491"/>
      <point x="325" y="491" type="qcurve"/>
      <point x="356" y="491"/>
      <point x="412" y="475"/>
      <point x="454" y="443"/>
      <point x="479" y="393"/>
      <point x="479" y="359" type="qcurve"/>
      <point x="479" y="73" type="line"/>
      <point x="534" y="64" type="line"/>
      <point x="534" y="45"/>
      <point x="533" y="7"/>
      <point x="533" y="0" type="qcurve"/>
      <point x="308" y="0" type="line"/>
      <point x="308" y="64" type="line"/>
      <point x="358" y="75" type="line"/>
      <point x="358" y="331" type="line"/>
      <point x="358" y="363"/>
      <point x="325" y="393"/>
      <point x="296" y="393" type="qcurve"/>
      <point x="281" y="393"/>
      <point x="253" y="385"/>
      <point x="229" y="373"/>
      <point x="212" y="360"/>
      <point x="209" y="356" type="qcurve"/>
      <point x="209" y="75" type="line"/>
      <point x="266" y="63" type="line"/>
      <point x="266" y="44"/>
      <point x="265" y="7"/>
      <point x="265" y="0" type="qcurve"/>
      <point x="43" y="0" type="line"/>
      <point x="32" y="64" type="line"/>
      <point x="88" y="77" type="line"/>
      <point x="88" y="398" type="line"/>
      <point x="37" y="398" type="line"/>
      <point x="26" y="466" type="line"/>
      <point x="39" y="468"/>
      <point x="83" y="476"/>
      <point x="128" y="484"/>
      <point x="166" y="491"/>
      <point x="174" y="492" type="qcurve"/>
    </contour>
  </outline>
</glyph>
<glyph name="ocircumflex" format="1">
  <advance width="499"/>
  <unicode hex="00F4"/>
  <outline>
    <contour>
      <point x="96" y="541" type="line" name="mh01"/>
      <point x="229" y="700" type="line" name="mh02"/>
      <point x="262" y="700" type="line"/>
      <point x="396" y="540" type="line" name="mh03"/>
      <point x="390" y="529" type="line"/>
      <point x="312" y="529" type="line"/>
      <point x="245" y="581" type="line"/>
      <point x="178" y="529" type="line" name="mv01"/>
      <point x="101" y="529" type="line" name="mv02"/>
    </contour>
    <contour>
      <point x="29" y="246" type="qcurve"/>
      <point x="29" y="307"/>
      <point x="67" y="398" name="mh04"/>
      <point x="129" y="460"/>
      <point x="208" y="491"/>
      <point x="249" y="491" type="qcurve"/>
      <point x="290" y="491"/>
      <point x="370" y="460"/>
      <point x="432" y="398"/>
      <point x="470" y="307"/>
      <point x="470" y="246" type="qcurve"/>
      <point x="470" y="185"/>
      <point x="432" y="91"/>
      <point x="370" y="28"/>
      <point x="290" y="-4"/>
      <point x="249" y="-4" type="qcurve"/>
      <point x="208" y="-4"/>
      <point x="129" y="28"/>
      <point x="67" y="91"/>
      <point x="29" y="185"/>
    </contour>
    <contour>
      <point x="153" y="240" type="qcurve"/>
      <point x="153" y="198"/>
      <point x="168" y="141"/>
      <point x="195" y="105"/>
      <point x="229" y="90"/>
      <point x="249" y="90" type="qcurve"/>
      <point x="269" y="90"/>
      <point x="304" y="105"/>
      <point x="331" y="141"/>
      <point x="346" y="198"/>
      <point x="346" y="240" type="qcurve"/>
      <point x="346" y="282"/>
      <point x="331" y="342"/>
      <point x="304" y="380"/>
      <point x="269" y="397"/>
      <point x="249" y="397" type="qcurve"/>
      <point x="229" y="397"/>
      <point x="195" y="380"/>
      <point x="168" y="342"/>
      <point x="153" y="282"/>
    </contour>
  </outline>
</glyph>
<glyph name="otilde" format="1">
  <advance width="499"/>
  <unicode hex="00F5"/>
  <outline>
    <contour>
      <point x="362" y="697" type="line" name="hr02"/>
      <point x="436" y="627" type="line"/>
      <point x="427" y="614"/>
      <point x="404" y="588"/>
      <point x="379" y="567"/>
      <point x="350" y="554"/>
      <point x="335" y="554" type="qcurve"/>
      <point x="317" y="554"/>
      <point x="287" y="567"/>
      <point x="260" y="582"/>
      <point x="233" y="595"/>
      <point x="217" y="595" type="qcurve" name="at01"/>
      <point x="191" y="595"/>
      <point x="162" y="564"/>
      <point x="157" y="547" type="qcurve"/>
      <point x="93" y="589" type="line"/>
      <point x="94" y="608" type="line" name="hr01"/>
      <point x="98" y="618"/>
      <point x="116" y="647"/>
      <point x="145" y="672"/>
      <point x="185" y="690"/>
      <point x="212" y="690" type="qcurve"/>
      <point x="232" y="690"/>
      <point x="268" y="677"/>
      <point x="298" y="662"/>
      <point x="320" y="647"/>
      <point x="326" y="646" type="qcurve"/>
    </contour>
    <contour>
      <point x="29" y="246" type="qcurve"/>
      <point x="29" y="307"/>
      <point x="67" y="398"/>
      <point x="129" y="460"/>
      <point x="208" y="491"/>
      <point x="249" y="491" type="qcurve"/>
      <point x="290" y="491"/>
      <point x="370" y="460"/>
      <point x="432" y="398"/>
      <point x="470" y="307"/>
      <point x="470" y="246" type="qcurve"/>
      <point x="470" y="185"/>
      <point x="432" y="91"/>
      <point x="370" y="28"/>
      <point x="290" y="-4"/>
      <point x="249" y="-4" type="qcurve"/>
      <point x="208" y="-4"/>
      <point x="129" y="28"/>
      <point x="67" y="91"/>
      <point x="29" y="185"/>
    </contour>
    <contour>
      <point x="153" y="240" type="qcurve"/>
      <point x="153" y="198"/>
      <point x="168" y="141"/>
      <point x="195" y="105"/>
      <point x="229" y="90"/>
      <point x="249" y="90" type="qcurve"/>
      <point x="269" y="90"/>
      <point x="304" y="105"/>
      <point x="331" y="141"/>
      <point x="346" y="198"/>
      <point x="346" y="240" type="qcurve"/>
      <point x="346" y="282"/>
      <point x="331" y="342"/>
      <point x="304" y="380"/>
      <point x="269" y="397"/>
      <point x="249" y="397" type="qcurve"/>
      <point x="229" y="397"/>
      <point x="195" y="380"/>
      <point x="168" y="342"/>
      <point x="153" y="282"/>
    </contour>
  </outline>
</glyph>
<glyph name="oslash" format="1">
  <advance width="499"/>
  <unicode hex="00F8"/>
  <outline>
    <contour>
      <point x="29" y="246" type="qcurve" name="hr00"/>
      <point x="29" y="307"/>
      <point x="67" y="398"/>
      <point x="129" y="460"/>
      <point x="208" y="491"/>
      <point x="249" y="491" type="qcurve" name="ah01"/>
      <point x="267" y="491"/>
      <point x="285" y="488" type="qcurve"/>
      <point x="325" y="585" type="line"/>
      <point x="443" y="585" type="line"/>
      <point x="442" y="572" type="line"/>
      <point x="388" y="440" type="line"/>
      <point x="424" y="410"/>
      <point x="470" y="313"/>
      <point x="470" y="246" type="qcurve"/>
      <point x="470" y="185"/>
      <point x="432" y="91"/>
      <point x="370" y="28"/>
      <point x="290" y="-4"/>
      <point x="249" y="-4" type="qcurve"/>
      <point x="239" y="-4"/>
      <point x="219" y="-2"/>
      <point x="209" y="0" type="qcurve"/>
      <point x="167" y="-105" type="line"/>
      <point x="52" y="-105" type="line"/>
      <point x="49" y="-92" type="line"/>
      <point x="107" y="51" type="line"/>
      <point x="72" y="83"/>
      <point x="29" y="180"/>
    </contour>
    <contour>
      <point x="346" y="240" type="qcurve" name="ah04"/>
      <point x="346" y="283"/>
      <point x="337" y="315" type="qcurve"/>
      <point x="249" y="90" type="line" name="ah03"/>
      <point x="269" y="90"/>
      <point x="304" y="105"/>
      <point x="331" y="141"/>
      <point x="346" y="198"/>
    </contour>
    <contour>
      <point x="153" y="240" type="qcurve"/>
      <point x="153" y="203"/>
      <point x="159" y="178" type="qcurve" name="ah05"/>
      <point x="248" y="397" type="line" name="ah02"/>
      <point x="228" y="397"/>
      <point x="194" y="379"/>
      <point x="168" y="341"/>
      <point x="153" y="282"/>
    </contour>
  </outline>
</glyph>
<glyph name="ucircumflex" format="1">
  <advance width="539"/>
  <unicode hex="00FB"/>
  <outline>
    <contour>
      <point x="112" y="541" type="line" name="hr00"/>
      <point x="245" y="700" type="line" name="mv01"/>
      <point x="278" y="700" type="line"/>
      <point x="412" y="540" type="line"/>
      <point x="406" y="529" type="line"/>
      <point x="328" y="529" type="line"/>
      <point x="261" y="581" type="line"/>
      <point x="194" y="529" type="line"/>
      <point x="117" y="529" type="line"/>
    </contour>
    <contour>
      <point x="300" y="398" type="line"/>
      <point x="288" y="465" type="line"/>
      <point x="431" y="492" type="line"/>
      <point x="466" y="454" type="line" name="mh01"/>
      <point x="466" y="105" type="line"/>
      <point x="466" y="91"/>
      <point x="476" y="83"/>
      <point x="482" y="83" type="qcurve"/>
      <point x="487" y="83"/>
      <point x="494" y="85"/>
      <point x="496" y="85" type="qcurve"/>
      <point x="515" y="29" type="line"/>
      <point x="509" y="22"/>
      <point x="468" y="-4"/>
      <point x="437" y="-4" type="qcurve"/>
      <point x="411" y="-4"/>
      <point x="368" y="18"/>
      <point x="356" y="44" type="qcurve"/>
      <point x="333" y="19"/>
      <point x="263" y="-4"/>
      <point x="230" y="-4" type="qcurve"/>
      <point x="159" y="-4"/>
      <point x="75" y="69"/>
      <point x="75" y="146" type="qcurve"/>
      <point x="75" y="398" type="line" name="mh02"/>
      <point x="24" y="398" type="line"/>
      <point x="13" y="465" type="line"/>
      <point x="161" y="492" type="line"/>
      <point x="196" y="454" type="line" name="mh03"/>
      <point x="196" y="169" type="line"/>
      <point x="196" y="130"/>
      <point x="233" y="92"/>
      <point x="264" y="92" type="qcurve"/>
      <point x="291" y="92"/>
      <point x="337" y="124"/>
      <point x="345" y="144" type="qcurve"/>
      <point x="345" y="401" type="line"/>
    </contour>
  </outline>
</glyph>
<glyph name="udieresis" format="1">
  <advance width="539"/>
  <unicode hex="00FC"/>
  <outline>
    <contour>
      <point x="121" y="634" type="qcurve" name="mv01"/>
      <point x="121" y="660"/>
      <point x="157" y="696"/>
      <point x="183" y="696" type="qcurve"/>
      <point x="209" y="696"/>
      <point x="245" y="660"/>
      <point x="245" y="634" type="qcurve"/>
      <point x="245" y="608"/>
      <point x="209" y="572"/>
      <point x="183" y="572" type="qcurve" name="av01"/>
      <point x="157" y="572"/>
      <point x="121" y="608"/>
    </contour>
    <contour>
      <point x="283" y="634" type="qcurve"/>
      <point x="283" y="660"/>
      <point x="319" y="696"/>
      <point x="345" y="696" type="qcurve"/>
      <point x="371" y="696"/>
      <point x="407" y="660"/>
      <point x="407" y="634" type="qcurve"/>
      <point x="407" y="608"/>
      <point x="371" y="572"/>
      <point x="345" y="572" type="qcurve"/>
      <point x="319" y="572"/>
      <point x="283" y="608"/>
    </contour>
    <contour>
      <point x="300" y="398" type="line"/>
      <point x="288" y="465" type="line"/>
      <point x="431" y="492" type="line"/>
      <point x="466" y="454" type="line" name="mh01"/>
      <point x="466" y="105" type="line" name="hr04"/>
      <point x="466" y="91"/>
      <point x="476" y="83"/>
      <point x="482" y="83" type="qcurve"/>
      <point x="487" y="83"/>
      <point x="494" y="85"/>
      <point x="496" y="85" type="qcurve"/>
      <point x="515" y="29" type="line" name="hr03"/>
      <point x="509" y="22"/>
      <point x="468" y="-4"/>
      <point x="437" y="-4" type="qcurve"/>
      <point x="411" y="-4"/>
      <point x="368" y="18"/>
      <point x="356" y="44" type="qcurve"/>
      <point x="333" y="19"/>
      <point x="263" y="-4"/>
      <point x="230" y="-4" type="qcurve" name="hr02"/>
      <point x="159" y="-4"/>
      <point x="75" y="69"/>
      <point x="75" y="146" type="qcurve"/>
      <point x="75" y="398" type="line" name="mh02"/>
      <point x="24" y="398" type="line" name="hr01"/>
      <point x="13" y="465" type="line"/>
      <point x="161" y="492" type="line"/>
      <point x="196" y="454" type="line" name="mh03"/>
      <point x="196" y="169" type="line"/>
      <point x="196" y="130"/>
      <point x="233" y="92"/>
      <point x="264" y="92" type="qcurve"/>
      <point x="291" y="92"/>
      <point x="337" y="124"/>
      <point x="345" y="144" type="qcurve"/>
      <point x="345" y="401" type="line"/>
    </contour>
  </outline>
</glyph>
<glyph name="yacute" format="1">
  <advance width="499"/>
  <unicode hex="00FD"/>
  <outline>
    <contour>
      <point x="496" y="455" type="line" name="hr00"/>
      <point x="493" y="447"/>
      <point x="473" y="391"/>
      <point x="444" y="309"/>
      <point x="409" y="209"/>
      <point x="372" y="103"/>
      <point x="336" y="0"/>
      <point x="305" y="-88"/>
      <point x="281" y="-153"/>
      <point x="276" y="-167" type="qcurve"/>
      <point x="261" y="-206"/>
      <point x="226" y="-249"/>
      <point x="191" y="-270"/>
      <point x="161" y="-274"/>
      <point x="150" y="-274" type="qcurve"/>
      <point x="141" y="-274"/>
      <point x="112" y="-270"/>
      <point x="79" y="-260"/>
      <point x="44" y="-242"/>
      <point x="29" y="-228" type="qcurve"/>
      <point x="83" y="-144" type="line"/>
      <point x="95" y="-154" type="line"/>
      <point x="103" y="-160"/>
      <point x="119" y="-172"/>
      <point x="136" y="-180"/>
      <point x="142" y="-180" type="qcurve"/>
      <point x="158" y="-180"/>
      <point x="181" y="-154"/>
      <point x="193" y="-121" type="qcurve"/>
      <point x="215" y="-61" type="line"/>
      <point x="46" y="407" type="line"/>
      <point x="8" y="407" type="line"/>
      <point x="0" y="479" type="line"/>
      <point x="150" y="491" type="line"/>
      <point x="280" y="119" type="line"/>
      <point x="299" y="172"/>
      <point x="336" y="273"/>
      <point x="351" y="315" type="qcurve"/>
      <point x="369" y="363"/>
      <point x="384" y="407" type="qcurve"/>
      <point x="338" y="407" type="line"/>
      <point x="330" y="480" type="line"/>
      <point x="476" y="491" type="line"/>
    </contour>
    <contour>
      <point x="123" y="561" type="line"/>
      <point x="249" y="722" type="line"/>
      <point x="285" y="736" type="line"/>
      <point x="362" y="630" type="line"/>
      <point x="169" y="509" type="line"/>
    </contour>
  </outline>
</glyph>
<glyph name="ydieresis" format="1">
  <advance width="499"/>
  <unicode hex="00FF"/>
  <outline>
    <contour>
      <point x="496" y="455" type="line" name="hr00"/>
      <point x="493" y="447"/>
      <point x="473" y="391"/>
      <point x="444" y="309"/>
      <point x="409" y="209"/>
      <point x="372" y="103"/>
      <point x="336" y="0"/>
      <point x="305" y="-88"/>
      <point x="281" y="-153"/>
      <point x="276" y="-167" type="qcurve"/>
      <point x="261" y="-206"/>
      <point x="226" y="-249"/>
      <point x="191" y="-270"/>
      <point x="161" y="-274"/>
      <point x="150" y="-274" type="qcurve"/>
      <point x="141" y="-274"/>
      <point x="112" y="-270"/>
      <point x="79" y="-260"/>
      <point x="44" y="-242"/>
      <point x="29" y="-228" type="qcurve"/>
      <point x="83" y="-144" type="line"/>
      <point x="95" y="-154" type="line"/>
      <point x="103" y="-160"/>
      <point x="119" y="-172"/>
      <point x="136" y="-180"/>
      <point x="142" y="-180" type="qcurve"/>
      <point x="158" y="-180"/>
      <point x="181" y="-154"/>
      <point x="193" y="-121" type="qcurve"/>
      <point x="215" y="-61" type="line"/>
      <point x="46" y="407" type="line"/>
      <point x="8" y="407" type="line"/>
      <point x="0" y="479" type="line"/>
      <point x="150" y="491" type="line"/>
      <point x="280" y="119" type="line"/>
      <point x="299" y="172"/>
      <point x="336" y="273"/>
      <point x="351" y="315" type="qcurve"/>
      <point x="369" y="363"/>
      <point x="384" y="407" type="qcurve"/>
      <point x="338" y="407" type="line"/>
      <point x="330" y="480" type="line"/>
      <point x="476" y="491" type="line"/>
    </contour>
    <contour>
      <point x="110" y="634" type="qcurve"/>
      <point x="110" y="660"/>
      <point x="146" y="696"/>
      <point x="172" y="696" type="qcurve"/>
      <point x="198" y="696"/>
      <point x="234" y="660"/>
      <point x="234" y="634" type="qcurve"/>
      <point x="234" y="608"/>
      <point x="198" y="572"/>
      <point x="172" y="572" type="qcurve"/>
      <point x="146" y="572"/>
      <point x="110" y="608"/>
    </contour>
    <contour>
      <point x="271" y="634" type="qcurve"/>
      <point x="271" y="660"/>
      <point x="307" y="696"/>
      <point x="333" y="696" type="qcurve"/>
      <point x="359" y="696"/>
      <point x="395" y="660"/>
      <point x="395" y="634" type="qcurve"/>
      <point x="395" y="608"/>
      <point x="359" y="572"/>
      <point x="333" y="572" type="qcurve"/>
      <point x="307" y="572"/>
      <point x="271" y="608"/>
    </contour>
  </outline>
</glyph>
